<ttFont>
    <TTGlyph name="A" xMin="-2" yMin="-8" xMax="841" yMax="672">
      <contour>
        <pt x="371" y="21" on="0"/>
        <pt x="371" y="-5" on="0"/>
        <pt x="364" y="-5" on="1"/>
        <pt x="56" y="-5" on="1"/>
        <pt x="47" y="-5" on="0"/>
        <pt x="38" y="10" on="0"/>
        <pt x="38" y="32" on="0"/>
        <pt x="50" y="41" on="1"/>
        <pt x="62" y="42" on="0"/>
        <pt x="93" y="44" on="0"/>
        <pt x="106" y="45" on="1"/>
        <pt x="139" y="47" on="0"/>
        <pt x="142" y="52" on="1"/>
        <pt x="245" y="326" on="1"/>
        <pt x="246" y="333" on="1"/>
        <pt x="246" y="371" on="0"/>
        <pt x="165" y="378" on="1"/>
        <pt x="147" y="379" on="0"/>
        <pt x="137" y="379" on="1"/>
        <pt x="97" y="379" on="0"/>
        <pt x="38" y="324" on="0"/>
        <pt x="38" y="281" on="1"/>
        <pt x="38" y="252" on="0"/>
        <pt x="66" y="252" on="1"/>
        <pt x="86" y="252" on="0"/>
        <pt x="97" y="270" on="0"/>
        <pt x="97" y="285" on="1"/>
        <pt x="97" y="309" on="1"/>
        <pt x="100" y="318" on="0"/>
        <pt x="108" y="322" on="0"/>
        <pt x="125" y="322" on="0"/>
        <pt x="137" y="312" on="0"/>
        <pt x="140" y="305" on="1"/>
        <pt x="148" y="290" on="0"/>
        <pt x="148" y="262" on="0"/>
        <pt x="135" y="238" on="0"/>
        <pt x="125" y="228" on="1"/>
        <pt x="101" y="206" on="0"/>
        <pt x="80" y="206" on="1"/>
        <pt x="41" y="206" on="0"/>
        <pt x="-2" y="245" on="0"/>
        <pt x="-2" y="312" on="0"/>
        <pt x="18" y="364" on="0"/>
        <pt x="36" y="383" on="1"/>
        <pt x="75" y="424" on="0"/>
        <pt x="130" y="424" on="1"/>
        <pt x="168" y="424" on="0"/>
        <pt x="228" y="411" on="0"/>
        <pt x="262" y="388" on="1"/>
        <pt x="264" y="387" on="1"/>
        <pt x="265" y="387" on="0"/>
        <pt x="273" y="393" on="0"/>
        <pt x="273" y="395" on="1"/>
        <pt x="354" y="606" on="1"/>
        <pt x="354" y="609" on="1"/>
        <pt x="354" y="611" on="0"/>
        <pt x="349" y="618" on="0"/>
        <pt x="347" y="618" on="1"/>
        <pt x="211" y="618" on="1"/>
        <pt x="204" y="618" on="0"/>
        <pt x="204" y="635" on="0"/>
        <pt x="213" y="663" on="0"/>
        <pt x="222" y="663" on="1"/>
        <pt x="657" y="672" on="1"/>
        <pt x="665" y="672" on="0"/>
        <pt x="673" y="655" on="0"/>
        <pt x="673" y="623" on="0"/>
        <pt x="663" y="623" on="1"/>
        <pt x="572" y="623" on="1"/>
        <pt x="645" y="406" on="1"/>
        <pt x="647" y="395" on="0"/>
        <pt x="653" y="387" on="0"/>
        <pt x="693" y="387" on="0"/>
        <pt x="754" y="406" on="0"/>
        <pt x="788" y="406" on="1"/>
        <pt x="805" y="406" on="0"/>
        <pt x="805" y="387" on="1"/>
        <pt x="805" y="375" on="0"/>
        <pt x="787" y="362" on="0"/>
        <pt x="776" y="361" on="1"/>
        <pt x="685" y="349" on="1"/>
        <pt x="673" y="349" on="0"/>
        <pt x="673" y="338" on="1"/>
        <pt x="775" y="43" on="1"/>
        <pt x="829" y="29" on="1"/>
        <pt x="841" y="28" on="0"/>
        <pt x="841" y="3" on="0"/>
        <pt x="835" y="-4" on="1"/>
        <pt x="828" y="-3" on="0"/>
        <pt x="822" y="-3" on="1"/>
        <pt x="811" y="-3" on="1"/>
        <pt x="622" y="-8" on="1"/>
        <pt x="611" y="-8" on="0"/>
        <pt x="605" y="0" on="0"/>
        <pt x="605" y="28" on="0"/>
        <pt x="633" y="39" on="0"/>
        <pt x="656" y="45" on="0"/>
        <pt x="675" y="44" on="0"/>
        <pt x="686" y="43" on="1"/>
        <pt x="708" y="41" on="0"/>
        <pt x="721" y="41" on="1"/>
        <pt x="721" y="53" on="1"/>
        <pt x="633" y="326" on="1"/>
        <pt x="622" y="326" on="1"/>
        <pt x="618" y="326" on="0"/>
        <pt x="539" y="255" on="0"/>
        <pt x="519" y="236" on="0"/>
        <pt x="512" y="218" on="0"/>
        <pt x="482" y="218" on="0"/>
        <pt x="465" y="236" on="0"/>
        <pt x="450" y="258" on="0"/>
        <pt x="433" y="276" on="0"/>
        <pt x="418" y="276" on="0"/>
        <pt x="418" y="275" on="0"/>
        <pt x="417" y="275" on="1"/>
        <pt x="416" y="275" on="1"/>
        <pt x="337" y="57" on="1"/>
        <pt x="335" y="55" on="0"/>
        <pt x="335" y="40" on="0"/>
        <pt x="346" y="36" on="0"/>
        <pt x="360" y="31" on="0"/>
      </contour>
      <contour>
        <pt x="192" y="64" on="1"/>
        <pt x="192" y="54" on="1"/>
        <pt x="192" y="50" on="0"/>
        <pt x="194" y="41" on="0"/>
        <pt x="205" y="41" on="1"/>
        <pt x="279" y="41" on="1"/>
        <pt x="283" y="41" on="0"/>
        <pt x="295" y="60" on="0"/>
        <pt x="302" y="69" on="1"/>
        <pt x="496" y="601" on="1"/>
        <pt x="496" y="618" on="1"/>
        <pt x="399" y="618" on="1"/>
        <pt x="193" y="69" on="1"/>
        <pt x="192" y="69" on="0"/>
      </contour>
      <contour>
        <pt x="439" y="338" on="1"/>
        <pt x="438" y="332" on="1"/>
        <pt x="438" y="324" on="0"/>
        <pt x="443" y="320" on="0"/>
        <pt x="456" y="311" on="0"/>
        <pt x="473" y="299" on="0"/>
        <pt x="490" y="287" on="0"/>
        <pt x="502" y="280" on="1"/>
        <pt x="605" y="365" on="1"/>
        <pt x="617" y="371" on="0"/>
        <pt x="617" y="374" on="0"/>
        <pt x="616" y="376" on="1"/>
        <pt x="616" y="378" on="1"/>
        <pt x="540" y="594" on="1"/>
      </contour>
    </TTGlyph>
    <TTGlyph name="AE" xMin="-14" yMin="-3" xMax="885" yMax="668">
      <contour>
        <pt x="430" y="-3" on="1"/>
        <pt x="416" y="-3" on="0"/>
        <pt x="416" y="21" on="1"/>
        <pt x="416" y="25" on="1"/>
        <pt x="416" y="27" on="0"/>
        <pt x="417" y="29" on="1"/>
        <pt x="430" y="91" on="1"/>
        <pt x="430" y="101" on="1"/>
        <pt x="431" y="148" on="1"/>
        <pt x="431" y="190" on="1"/>
        <pt x="430" y="268" on="1"/>
        <pt x="430" y="289" on="1"/>
        <pt x="413" y="277" on="0"/>
        <pt x="381" y="258" on="0"/>
        <pt x="361" y="258" on="1"/>
        <pt x="350" y="259" on="1"/>
        <pt x="283" y="337" on="1"/>
        <pt x="277" y="338" on="1"/>
        <pt x="260" y="338" on="0"/>
        <pt x="244" y="306" on="1"/>
        <pt x="222" y="276" on="0"/>
        <pt x="98" y="54" on="0"/>
        <pt x="94" y="47" on="1"/>
        <pt x="137" y="30" on="0"/>
        <pt x="137" y="0" on="1"/>
        <pt x="0" y="0" on="1"/>
        <pt x="-14" y="0" on="0"/>
        <pt x="-14" y="23" on="1"/>
        <pt x="-14" y="28" on="1"/>
        <pt x="-14" y="29" on="0"/>
        <pt x="-13" y="30" on="1"/>
        <pt x="26" y="43" on="0"/>
        <pt x="95" y="155" on="1"/>
        <pt x="111" y="181" on="0"/>
        <pt x="123" y="197" on="1"/>
        <pt x="135" y="213" on="0"/>
        <pt x="171" y="265" on="0"/>
        <pt x="188" y="290" on="1"/>
        <pt x="229" y="349" on="0"/>
        <pt x="229" y="353" on="1"/>
        <pt x="229" y="368" on="1"/>
        <pt x="229" y="374" on="0"/>
        <pt x="174" y="383" on="0"/>
        <pt x="164" y="383" on="1"/>
        <pt x="137" y="383" on="0"/>
        <pt x="110" y="383" on="1"/>
        <pt x="107" y="384" on="0"/>
        <pt x="97" y="396" on="0"/>
        <pt x="97" y="398" on="1"/>
        <pt x="110" y="430" on="0"/>
        <pt x="182" y="430" on="1"/>
        <pt x="216" y="429" on="1"/>
        <pt x="270" y="414" on="1"/>
        <pt x="271" y="414" on="0"/>
        <pt x="281" y="425" on="0"/>
        <pt x="290" y="440" on="0"/>
        <pt x="325" y="495" on="0"/>
        <pt x="344" y="526" on="1"/>
        <pt x="395" y="608" on="0"/>
        <pt x="403" y="622" on="1"/>
        <pt x="323" y="622" on="1"/>
        <pt x="323" y="668" on="1"/>
        <pt x="338" y="668" on="0"/>
        <pt x="413" y="666" on="0"/>
        <pt x="456" y="665" on="1"/>
        <pt x="571" y="662" on="0"/>
        <pt x="590" y="661" on="1"/>
        <pt x="670" y="645" on="1"/>
        <pt x="703" y="645" on="1"/>
        <pt x="743" y="645" on="0"/>
        <pt x="823" y="661" on="0"/>
        <pt x="863" y="661" on="1"/>
        <pt x="885" y="661" on="0"/>
        <pt x="885" y="622" on="1"/>
        <pt x="883" y="600" on="1"/>
        <pt x="862" y="547" on="0"/>
        <pt x="843" y="522" on="1"/>
        <pt x="839" y="520" on="0"/>
        <pt x="829" y="520" on="1"/>
        <pt x="818" y="520" on="0"/>
        <pt x="814" y="523" on="0"/>
        <pt x="807" y="537" on="0"/>
        <pt x="798" y="553" on="0"/>
        <pt x="794" y="560" on="1"/>
        <pt x="790" y="569" on="1"/>
        <pt x="787" y="572" on="0"/>
        <pt x="779" y="582" on="0"/>
        <pt x="774" y="588" on="1"/>
        <pt x="763" y="602" on="0"/>
        <pt x="763" y="600" on="1"/>
        <pt x="603" y="600" on="1"/>
        <pt x="603" y="354" on="1"/>
        <pt x="625" y="354" on="0"/>
        <pt x="643" y="366" on="1"/>
        <pt x="678" y="387" on="0"/>
        <pt x="700" y="387" on="1"/>
        <pt x="700" y="385" on="0"/>
        <pt x="699" y="370" on="0"/>
        <pt x="698" y="362" on="1"/>
        <pt x="697" y="339" on="0"/>
        <pt x="696" y="333" on="0"/>
        <pt x="692" y="319" on="0"/>
        <pt x="690" y="312" on="1"/>
        <pt x="685" y="293" on="0"/>
        <pt x="683" y="289" on="1"/>
        <pt x="677" y="289" on="1"/>
        <pt x="664" y="289" on="0"/>
        <pt x="643" y="306" on="0"/>
        <pt x="628" y="306" on="1"/>
        <pt x="603" y="306" on="0"/>
        <pt x="603" y="277" on="1"/>
        <pt x="603" y="259" on="1"/>
        <pt x="603" y="254" on="0"/>
        <pt x="612" y="177" on="0"/>
        <pt x="616" y="140" on="0"/>
        <pt x="617" y="136" on="0"/>
        <pt x="617" y="132" on="1"/>
        <pt x="616" y="112" on="1"/>
        <pt x="616" y="107" on="0"/>
        <pt x="617" y="106" on="1"/>
        <pt x="624" y="55" on="0"/>
        <pt x="656" y="46" on="1"/>
        <pt x="670" y="41" on="0"/>
        <pt x="708" y="43" on="0"/>
        <pt x="720" y="43" on="1"/>
        <pt x="742" y="43" on="1"/>
        <pt x="778" y="44" on="1"/>
        <pt x="790" y="44" on="1"/>
        <pt x="803" y="51" on="0"/>
        <pt x="813" y="84" on="0"/>
        <pt x="823" y="116" on="0"/>
        <pt x="841" y="141" on="0"/>
        <pt x="861" y="141" on="1"/>
        <pt x="861" y="130" on="0"/>
        <pt x="858" y="98" on="0"/>
        <pt x="857" y="79" on="0"/>
        <pt x="856" y="74" on="0"/>
        <pt x="853" y="61" on="0"/>
        <pt x="848" y="46" on="0"/>
        <pt x="846" y="39" on="1"/>
        <pt x="843" y="28" on="0"/>
        <pt x="837" y="15" on="0"/>
        <pt x="833" y="5" on="0"/>
        <pt x="829" y="-3" on="1"/>
      </contour>
      <contour>
        <pt x="577" y="168" on="1"/>
        <pt x="563" y="398" on="1"/>
        <pt x="563" y="538" on="1"/>
        <pt x="563" y="542" on="0"/>
        <pt x="559" y="564" on="0"/>
        <pt x="557" y="576" on="1"/>
        <pt x="554" y="594" on="0"/>
        <pt x="549" y="614" on="1"/>
        <pt x="496" y="600" on="1"/>
        <pt x="496" y="597" on="0"/>
        <pt x="488" y="495" on="0"/>
        <pt x="482" y="414" on="0"/>
        <pt x="479" y="373" on="1"/>
        <pt x="472" y="272" on="0"/>
        <pt x="470" y="229" on="1"/>
        <pt x="466" y="43" on="1"/>
        <pt x="500" y="43" on="0"/>
        <pt x="577" y="59" on="1"/>
      </contour>
      <contour>
        <pt x="310" y="398" on="1"/>
        <pt x="309" y="390" on="1"/>
        <pt x="309" y="382" on="0"/>
        <pt x="328" y="360" on="1"/>
        <pt x="363" y="317" on="0"/>
        <pt x="376" y="321" on="1"/>
        <pt x="382" y="321" on="0"/>
        <pt x="398" y="330" on="1"/>
        <pt x="420" y="343" on="0"/>
        <pt x="430" y="353" on="1"/>
        <pt x="432" y="374" on="0"/>
        <pt x="436" y="419" on="1"/>
        <pt x="441" y="495" on="0"/>
        <pt x="444" y="525" on="0"/>
        <pt x="444" y="532" on="1"/>
        <pt x="445" y="562" on="1"/>
        <pt x="445" y="572" on="1"/>
        <pt x="433" y="572" on="0"/>
        <pt x="424" y="563" on="0"/>
        <pt x="410" y="544" on="0"/>
        <pt x="384" y="510" on="0"/>
        <pt x="359" y="475" on="0"/>
        <pt x="348" y="462" on="1"/>
        <pt x="336" y="445" on="0"/>
        <pt x="326" y="428" on="0"/>
        <pt x="317" y="413" on="0"/>
        <pt x="311" y="400" on="0"/>
      </contour>
      <contour>
        <pt x="829" y="607" on="1"/>
        <pt x="824" y="607" on="0"/>
        <pt x="824" y="591" on="0"/>
        <pt x="829" y="591" on="1"/>
        <pt x="834" y="591" on="0"/>
        <pt x="834" y="607" on="0"/>
      </contour>
    </TTGlyph>
    <TTGlyph name="Aacute" xMin="-2" yMin="-8" xMax="841" yMax="789">
      <component glyphName="A" x="0" y="0" flags="0x1204"/>
      <component glyphName="acute" x="408" y="20" flags="0x1004"/>
    </TTGlyph>
    <TTGlyph name="Acircumflex" xMin="-2" yMin="-8" xMax="841" yMax="808">
      <component glyphName="A" x="0" y="0" flags="0x1204"/>
      <component glyphName="circumflex" x="247" y="20" flags="0x1004"/>
    </TTGlyph>
    <TTGlyph name="Adieresis" xMin="-2" yMin="-8" xMax="841" yMax="818">
      <component glyphName="A" x="0" y="0" flags="0x1204"/>
      <component glyphName="dieresis" x="205" y="20" flags="0x1004"/>
    </TTGlyph>
    <TTGlyph name="Agrave" xMin="-2" yMin="-8" xMax="841" yMax="789">
      <component glyphName="A" x="0" y="0" flags="0x1204"/>
      <component glyphName="grave" x="292" y="20" flags="0x1004"/>
    </TTGlyph>
    <TTGlyph name="Aring" xMin="-2" yMin="-8" xMax="841" yMax="918">
      <component glyphName="A" x="0" y="0" flags="0x1204"/>
      <component glyphName="ring" x="305" y="20" flags="0x1004"/>
    </TTGlyph>
    <TTGlyph name="Atilde" xMin="-2" yMin="-8" xMax="841" yMax="847">
      <component glyphName="A" x="0" y="0" flags="0x1204"/>
      <component glyphName="tilde" x="146" y="20" flags="0x1004"/>
    </TTGlyph>
    <TTGlyph name="B" xMin="11" yMin="-54" xMax="689" yMax="681">
      <contour>
        <pt x="214" y="332" on="1"/>
        <pt x="213" y="266" on="1"/>
        <pt x="213" y="209" on="0"/>
        <pt x="217" y="53" on="1"/>
        <pt x="223" y="40" on="1"/>
        <pt x="230" y="33" on="0"/>
        <pt x="346" y="27" on="0"/>
        <pt x="355" y="26" on="1"/>
        <pt x="355" y="167" on="0"/>
        <pt x="347" y="245" on="1"/>
        <pt x="344" y="296" on="0"/>
        <pt x="343" y="390" on="0"/>
        <pt x="341" y="436" on="1"/>
        <pt x="336" y="540" on="0"/>
        <pt x="316" y="625" on="1"/>
        <pt x="309" y="632" on="0"/>
        <pt x="291" y="632" on="1"/>
        <pt x="231" y="632" on="0"/>
        <pt x="204" y="625" on="1"/>
        <pt x="204" y="553" on="0"/>
        <pt x="206" y="527" on="1"/>
        <pt x="211" y="480" on="0"/>
        <pt x="211" y="449" on="1"/>
        <pt x="215" y="362" on="1"/>
      </contour>
      <contour>
        <pt x="78" y="-54" on="1"/>
        <pt x="55" y="-54" on="0"/>
        <pt x="55" y="-25" on="1"/>
        <pt x="55" y="5" on="0"/>
        <pt x="102" y="24" on="1"/>
        <pt x="124" y="32" on="0"/>
        <pt x="174" y="40" on="1"/>
        <pt x="180" y="46" on="1"/>
        <pt x="180" y="295" on="1"/>
        <pt x="180" y="305" on="0"/>
        <pt x="166" y="311" on="0"/>
        <pt x="150" y="316" on="0"/>
        <pt x="136" y="325" on="0"/>
        <pt x="136" y="337" on="1"/>
        <pt x="136" y="367" on="0"/>
        <pt x="174" y="369" on="1"/>
        <pt x="174" y="463" on="0"/>
        <pt x="155" y="600" on="1"/>
        <pt x="134" y="600" on="0"/>
        <pt x="102" y="563" on="0"/>
        <pt x="75" y="518" on="0"/>
        <pt x="50" y="481" on="0"/>
        <pt x="26" y="481" on="0"/>
        <pt x="11" y="499" on="0"/>
        <pt x="11" y="505" on="1"/>
        <pt x="11" y="514" on="1"/>
        <pt x="11" y="518" on="0"/>
        <pt x="12" y="520" on="1"/>
        <pt x="41" y="594" on="0"/>
        <pt x="115" y="638" on="1"/>
        <pt x="185" y="681" on="0"/>
        <pt x="345" y="681" on="0"/>
        <pt x="460" y="658" on="0"/>
        <pt x="541" y="622" on="0"/>
        <pt x="593" y="577" on="0"/>
        <pt x="608" y="556" on="1"/>
        <pt x="633" y="518" on="0"/>
        <pt x="633" y="485" on="1"/>
        <pt x="633" y="478" on="0"/>
        <pt x="632" y="476" on="1"/>
        <pt x="635" y="473" on="0"/>
        <pt x="635" y="411" on="0"/>
        <pt x="608" y="363" on="0"/>
        <pt x="577" y="337" on="1"/>
        <pt x="632" y="316" on="0"/>
        <pt x="689" y="243" on="0"/>
        <pt x="689" y="131" on="0"/>
        <pt x="655" y="58" on="0"/>
        <pt x="604" y="9" on="0"/>
        <pt x="542" y="-18" on="0"/>
        <pt x="514" y="-25" on="1"/>
        <pt x="474" y="-35" on="0"/>
        <pt x="392" y="-35" on="0"/>
        <pt x="306" y="-21" on="0"/>
        <pt x="261" y="-21" on="1"/>
        <pt x="217" y="-21" on="1"/>
        <pt x="213" y="-29" on="0"/>
        <pt x="206" y="-35" on="0"/>
        <pt x="187" y="-35" on="0"/>
        <pt x="174" y="-21" on="0"/>
        <pt x="149" y="-21" on="0"/>
        <pt x="128" y="-31" on="0"/>
        <pt x="118" y="-38" on="1"/>
        <pt x="93" y="-54" on="0"/>
      </contour>
      <contour>
        <pt x="396" y="23" on="1"/>
        <pt x="396" y="14" on="0"/>
        <pt x="451" y="14" on="0"/>
        <pt x="529" y="29" on="0"/>
        <pt x="564" y="47" on="1"/>
        <pt x="645" y="90" on="0"/>
        <pt x="645" y="164" on="1"/>
        <pt x="645" y="238" on="0"/>
        <pt x="626" y="263" on="1"/>
        <pt x="614" y="278" on="0"/>
        <pt x="573" y="296" on="0"/>
        <pt x="539" y="307" on="1"/>
        <pt x="520" y="307" on="1"/>
        <pt x="513" y="306" on="0"/>
        <pt x="476" y="300" on="0"/>
        <pt x="435" y="294" on="0"/>
        <pt x="398" y="289" on="0"/>
        <pt x="385" y="287" on="0"/>
        <pt x="385" y="279" on="1"/>
        <pt x="385" y="275" on="1"/>
        <pt x="385" y="177" on="0"/>
        <pt x="397" y="28" on="1"/>
        <pt x="396" y="27" on="0"/>
        <pt x="396" y="26" on="1"/>
      </contour>
      <contour>
        <pt x="386" y="342" on="1"/>
        <pt x="428" y="344" on="1"/>
        <pt x="438" y="345" on="0"/>
        <pt x="454" y="346" on="1"/>
        <pt x="487" y="350" on="0"/>
        <pt x="510" y="354" on="1"/>
        <pt x="520" y="356" on="1"/>
        <pt x="556" y="378" on="0"/>
        <pt x="585" y="440" on="0"/>
        <pt x="585" y="462" on="1"/>
        <pt x="585" y="543" on="0"/>
        <pt x="502" y="589" on="1"/>
        <pt x="470" y="607" on="0"/>
        <pt x="408" y="620" on="0"/>
        <pt x="391" y="620" on="0"/>
        <pt x="391" y="619" on="1"/>
        <pt x="371" y="619" on="1"/>
        <pt x="371" y="578" on="0"/>
        <pt x="376" y="513" on="1"/>
        <pt x="386" y="383" on="0"/>
      </contour>
    </TTGlyph>
    <TTGlyph name="C" xMin="18" yMin="-50" xMax="633" yMax="679">
      <contour>
        <pt x="328" y="6" on="1"/>
        <pt x="377" y="5" on="1"/>
        <pt x="467" y="5" on="0"/>
        <pt x="520" y="35" on="1"/>
        <pt x="567" y="61" on="0"/>
        <pt x="574" y="92" on="1"/>
        <pt x="582" y="125" on="0"/>
        <pt x="600" y="145" on="0"/>
        <pt x="618" y="145" on="0"/>
        <pt x="633" y="134" on="0"/>
        <pt x="633" y="105" on="0"/>
        <pt x="616" y="61" on="0"/>
        <pt x="602" y="42" on="1"/>
        <pt x="574" y="0" on="0"/>
        <pt x="535" y="-18" on="1"/>
        <pt x="467" y="-50" on="0"/>
        <pt x="375" y="-50" on="1"/>
        <pt x="259" y="-50" on="0"/>
        <pt x="186" y="14" on="1"/>
        <pt x="89" y="100" on="0"/>
        <pt x="76" y="293" on="1"/>
        <pt x="26" y="293" on="1"/>
        <pt x="18" y="293" on="0"/>
        <pt x="18" y="317" on="0"/>
        <pt x="28" y="329" on="0"/>
        <pt x="42" y="336" on="0"/>
        <pt x="59" y="340" on="0"/>
        <pt x="66" y="342" on="1"/>
        <pt x="73" y="435" on="0"/>
        <pt x="104" y="512" on="1"/>
        <pt x="128" y="572" on="0"/>
        <pt x="174" y="614" on="0"/>
        <pt x="242" y="647" on="0"/>
        <pt x="278" y="658" on="1"/>
        <pt x="345" y="679" on="0"/>
        <pt x="409" y="679" on="1"/>
        <pt x="522" y="653" on="1"/>
        <pt x="528" y="664" on="0"/>
        <pt x="553" y="678" on="0"/>
        <pt x="570" y="678" on="1"/>
        <pt x="597" y="678" on="0"/>
        <pt x="597" y="631" on="1"/>
        <pt x="566" y="497" on="1"/>
        <pt x="566" y="495" on="0"/>
        <pt x="549" y="491" on="1"/>
        <pt x="528" y="491" on="0"/>
        <pt x="522" y="504" on="1"/>
        <pt x="483" y="614" on="0"/>
        <pt x="417" y="626" on="1"/>
        <pt x="400" y="629" on="0"/>
        <pt x="387" y="629" on="1"/>
        <pt x="325" y="629" on="0"/>
        <pt x="325" y="583" on="1"/>
        <pt x="325" y="577" on="0"/>
        <pt x="326" y="573" on="1"/>
        <pt x="326" y="576" on="1"/>
        <pt x="327" y="571" on="0"/>
        <pt x="327" y="558" on="1"/>
        <pt x="327" y="454" on="1"/>
        <pt x="327" y="234" on="0"/>
        <pt x="315" y="51" on="0"/>
        <pt x="315" y="6" on="0"/>
      </contour>
      <contour>
        <pt x="280" y="427" on="1"/>
        <pt x="280" y="566" on="0"/>
        <pt x="284" y="617" on="1"/>
        <pt x="267" y="617" on="0"/>
        <pt x="226" y="588" on="1"/>
        <pt x="186" y="562" on="0"/>
        <pt x="150" y="490" on="0"/>
        <pt x="141" y="454" on="1"/>
        <pt x="127" y="397" on="0"/>
        <pt x="127" y="245" on="0"/>
        <pt x="146" y="153" on="0"/>
        <pt x="164" y="118" on="1"/>
        <pt x="198" y="54" on="0"/>
        <pt x="263" y="20" on="1"/>
        <pt x="280" y="119" on="0"/>
        <pt x="280" y="408" on="1"/>
      </contour>
      <contour>
        <pt x="547" y="553" on="1"/>
        <pt x="555" y="588" on="0"/>
        <pt x="555" y="621" on="1"/>
        <pt x="545" y="620" on="0"/>
        <pt x="528" y="618" on="0"/>
        <pt x="511" y="616" on="0"/>
        <pt x="505" y="614" on="1"/>
      </contour>
    </TTGlyph>
    <TTGlyph name="Ccedilla" xMin="22" yMin="-258" xMax="637" yMax="679">
      <component glyphName="C" x="4" y="0" flags="0x1004"/>
      <component glyphName="cedilla" x="258" y="0" flags="0x1004"/>
    </TTGlyph>
    <TTGlyph name="D" xMin="-3" yMin="-38" xMax="722" yMax="694">
      <contour>
        <pt x="356" y="627" on="1"/>
        <pt x="357" y="617" on="1"/>
        <pt x="357" y="483" on="0"/>
        <pt x="348" y="198" on="0"/>
        <pt x="348" y="43" on="0"/>
        <pt x="355" y="19" on="0"/>
        <pt x="362" y="12" on="1"/>
        <pt x="372" y="2" on="0"/>
        <pt x="404" y="2" on="1"/>
        <pt x="530" y="2" on="0"/>
        <pt x="604" y="95" on="1"/>
        <pt x="673" y="181" on="0"/>
        <pt x="673" y="308" on="1"/>
        <pt x="673" y="363" on="0"/>
        <pt x="643" y="484" on="0"/>
        <pt x="577" y="585" on="0"/>
        <pt x="473" y="651" on="0"/>
        <pt x="400" y="651" on="1"/>
        <pt x="383" y="651" on="0"/>
        <pt x="356" y="643" on="0"/>
      </contour>
      <contour>
        <pt x="128" y="689" on="1"/>
        <pt x="168" y="674" on="0"/>
        <pt x="273" y="674" on="0"/>
        <pt x="320" y="680" on="0"/>
        <pt x="338" y="684" on="1"/>
        <pt x="383" y="694" on="0"/>
        <pt x="410" y="694" on="1"/>
        <pt x="468" y="694" on="0"/>
        <pt x="580" y="640" on="0"/>
        <pt x="668" y="539" on="0"/>
        <pt x="722" y="395" on="0"/>
        <pt x="722" y="223" on="0"/>
        <pt x="672" y="94" on="0"/>
        <pt x="626" y="50" on="1"/>
        <pt x="534" y="-38" on="0"/>
        <pt x="373" y="-38" on="1"/>
        <pt x="341" y="-38" on="0"/>
        <pt x="279" y="-31" on="0"/>
        <pt x="247" y="-28" on="1"/>
        <pt x="151" y="-17" on="0"/>
        <pt x="125" y="-17" on="1"/>
        <pt x="88" y="-17" on="1"/>
        <pt x="78" y="-17" on="0"/>
        <pt x="67" y="-18" on="1"/>
        <pt x="60" y="-11" on="0"/>
        <pt x="60" y="16" on="0"/>
        <pt x="71" y="20" on="0"/>
        <pt x="94" y="20" on="1"/>
        <pt x="155" y="20" on="1"/>
        <pt x="162" y="20" on="0"/>
        <pt x="162" y="30" on="1"/>
        <pt x="162" y="80" on="0"/>
        <pt x="151" y="264" on="0"/>
        <pt x="150" y="294" on="1"/>
        <pt x="139" y="302" on="0"/>
        <pt x="113" y="314" on="0"/>
        <pt x="99" y="321" on="1"/>
        <pt x="141" y="345" on="0"/>
        <pt x="153" y="373" on="1"/>
        <pt x="153" y="393" on="1"/>
        <pt x="151" y="411" on="0"/>
        <pt x="146" y="487" on="0"/>
        <pt x="141" y="540" on="0"/>
        <pt x="140" y="564" on="1"/>
        <pt x="137" y="611" on="0"/>
        <pt x="134" y="634" on="1"/>
        <pt x="132" y="641" on="0"/>
        <pt x="104" y="641" on="0"/>
        <pt x="79" y="632" on="0"/>
        <pt x="58" y="617" on="0"/>
        <pt x="39" y="599" on="0"/>
        <pt x="29" y="590" on="1"/>
        <pt x="16" y="590" on="0"/>
        <pt x="-3" y="597" on="0"/>
        <pt x="-3" y="611" on="1"/>
        <pt x="-3" y="621" on="1"/>
        <pt x="25" y="656" on="0"/>
        <pt x="86" y="686" on="0"/>
      </contour>
      <contour>
        <pt x="291" y="634" on="1"/>
        <pt x="187" y="631" on="1"/>
        <pt x="183" y="460" on="1"/>
        <pt x="183" y="372" on="0"/>
        <pt x="192" y="222" on="1"/>
        <pt x="205" y="25" on="0"/>
        <pt x="205" y="20" on="1"/>
        <pt x="212" y="13" on="1"/>
        <pt x="225" y="13" on="0"/>
        <pt x="236" y="14" on="1"/>
        <pt x="278" y="15" on="1"/>
        <pt x="310" y="14" on="1"/>
        <pt x="310" y="39" on="1"/>
        <pt x="309" y="64" on="1"/>
        <pt x="314" y="403" on="1"/>
        <pt x="313" y="437" on="1"/>
        <pt x="313" y="478" on="1"/>
        <pt x="314" y="559" on="1"/>
        <pt x="314" y="584" on="1"/>
        <pt x="314" y="620" on="0"/>
        <pt x="307" y="635" on="1"/>
        <pt x="302" y="634" on="0"/>
      </contour>
    </TTGlyph>
    <TTGlyph name="E" xMin="27" yMin="-16" xMax="633" yMax="678">
      <contour>
        <pt x="528" y="-9" on="1"/>
        <pt x="497" y="-10" on="1"/>
        <pt x="470" y="-10" on="1"/>
        <pt x="401" y="-10" on="0"/>
        <pt x="191" y="-15" on="1"/>
        <pt x="162" y="-16" on="1"/>
        <pt x="155" y="-16" on="0"/>
        <pt x="91" y="-16" on="0"/>
        <pt x="39" y="-11" on="0"/>
        <pt x="39" y="19" on="0"/>
        <pt x="53" y="24" on="1"/>
        <pt x="138" y="22" on="1"/>
        <pt x="138" y="94" on="0"/>
        <pt x="127" y="226" on="0"/>
        <pt x="127" y="298" on="1"/>
        <pt x="122" y="307" on="0"/>
        <pt x="97" y="315" on="0"/>
        <pt x="88" y="324" on="0"/>
        <pt x="88" y="335" on="1"/>
        <pt x="88" y="346" on="0"/>
        <pt x="98" y="351" on="0"/>
        <pt x="111" y="352" on="0"/>
        <pt x="124" y="354" on="0"/>
        <pt x="127" y="361" on="1"/>
        <pt x="127" y="375" on="1"/>
        <pt x="128" y="420" on="1"/>
        <pt x="128" y="435" on="1"/>
        <pt x="129" y="518" on="1"/>
        <pt x="129" y="549" on="0"/>
        <pt x="123" y="603" on="1"/>
        <pt x="119" y="602" on="0"/>
        <pt x="105" y="602" on="1"/>
        <pt x="77" y="602" on="0"/>
        <pt x="39" y="602" on="0"/>
        <pt x="34" y="602" on="1"/>
        <pt x="27" y="603" on="0"/>
        <pt x="27" y="611" on="1"/>
        <pt x="27" y="634" on="0"/>
        <pt x="40" y="653" on="0"/>
        <pt x="59" y="653" on="1"/>
        <pt x="179" y="654" on="1"/>
        <pt x="231" y="654" on="0"/>
        <pt x="335" y="646" on="0"/>
        <pt x="426" y="646" on="0"/>
        <pt x="503" y="650" on="0"/>
        <pt x="539" y="664" on="1"/>
        <pt x="547" y="668" on="0"/>
        <pt x="558" y="678" on="0"/>
        <pt x="565" y="678" on="1"/>
        <pt x="572" y="678" on="0"/>
        <pt x="584" y="667" on="0"/>
        <pt x="584" y="659" on="1"/>
        <pt x="583" y="655" on="1"/>
        <pt x="583" y="653" on="1"/>
        <pt x="573" y="636" on="0"/>
        <pt x="561" y="615" on="0"/>
        <pt x="556" y="610" on="1"/>
        <pt x="549" y="600" on="0"/>
        <pt x="530" y="600" on="0"/>
        <pt x="420" y="604" on="0"/>
        <pt x="312" y="599" on="1"/>
        <pt x="301" y="480" on="0"/>
        <pt x="301" y="362" on="1"/>
        <pt x="345" y="362" on="0"/>
        <pt x="394" y="382" on="0"/>
        <pt x="416" y="391" on="0"/>
        <pt x="427" y="391" on="1"/>
        <pt x="438" y="391" on="0"/>
        <pt x="450" y="377" on="0"/>
        <pt x="450" y="331" on="0"/>
        <pt x="429" y="306" on="0"/>
        <pt x="368" y="306" on="0"/>
        <pt x="363" y="325" on="1"/>
        <pt x="301" y="321" on="1"/>
        <pt x="300" y="308" on="1"/>
        <pt x="295" y="243" on="0"/>
        <pt x="295" y="226" on="1"/>
        <pt x="295" y="198" on="1"/>
        <pt x="295" y="185" on="0"/>
        <pt x="296" y="149" on="0"/>
        <pt x="297" y="108" on="0"/>
        <pt x="299" y="72" on="0"/>
        <pt x="300" y="47" on="0"/>
        <pt x="301" y="46" on="1"/>
        <pt x="307" y="34" on="1"/>
        <pt x="357" y="33" on="1"/>
        <pt x="421" y="32" on="1"/>
        <pt x="546" y="32" on="0"/>
        <pt x="585" y="65" on="1"/>
        <pt x="592" y="71" on="0"/>
        <pt x="597" y="71" on="1"/>
        <pt x="633" y="71" on="0"/>
        <pt x="633" y="37" on="1"/>
        <pt x="631" y="23" on="1"/>
        <pt x="629" y="10" on="0"/>
        <pt x="627" y="10" on="1"/>
        <pt x="614" y="-3" on="1"/>
        <pt x="604" y="-4" on="1"/>
        <pt x="554" y="-9" on="0"/>
      </contour>
      <contour>
        <pt x="165" y="598" on="1"/>
        <pt x="163" y="479" on="1"/>
        <pt x="163" y="371" on="1"/>
        <pt x="163" y="239" on="0"/>
        <pt x="170" y="153" on="1"/>
        <pt x="178" y="35" on="0"/>
        <pt x="183" y="35" on="1"/>
        <pt x="189" y="29" on="1"/>
        <pt x="265" y="28" on="1"/>
        <pt x="265" y="55" on="0"/>
        <pt x="262" y="101" on="0"/>
        <pt x="260" y="124" on="1"/>
        <pt x="256" y="195" on="0"/>
        <pt x="256" y="296" on="0"/>
        <pt x="264" y="431" on="0"/>
        <pt x="264" y="502" on="1"/>
        <pt x="263" y="562" on="1"/>
        <pt x="263" y="599" on="1"/>
        <pt x="165" y="604" on="1"/>
      </contour>
    </TTGlyph>
    <TTGlyph name="Eacute" xMin="27" yMin="-16" xMax="633" yMax="789">
      <component glyphName="E" x="0" y="0" flags="0x1204"/>
      <component glyphName="acute" x="205" y="20" flags="0x1004"/>
    </TTGlyph>
    <TTGlyph name="Ecircumflex" xMin="27" yMin="-16" xMax="633" yMax="808">
      <component glyphName="E" x="0" y="0" flags="0x1204"/>
      <component glyphName="circumflex" x="97" y="20" flags="0x1004"/>
    </TTGlyph>
    <TTGlyph name="Edieresis" xMin="27" yMin="-16" xMax="633" yMax="818">
      <component glyphName="E" x="0" y="0" flags="0x1204"/>
      <component glyphName="dieresis" x="28" y="20" flags="0x1004"/>
    </TTGlyph>
    <TTGlyph name="Egrave" xMin="27" yMin="-16" xMax="633" yMax="789">
      <component glyphName="E" x="0" y="0" flags="0x1204"/>
      <component glyphName="grave" x="187" y="20" flags="0x1004"/>
    </TTGlyph>
    <TTGlyph name="Eth" xMin="22" yMin="0" xMax="731" yMax="702">
      <contour>
        <pt x="176" y="1" on="1"/>
        <pt x="43" y="5" on="1"/>
        <pt x="29" y="21" on="1"/>
        <pt x="48" y="72" on="0"/>
        <pt x="131" y="72" on="1"/>
        <pt x="132" y="82" on="0"/>
        <pt x="136" y="130" on="0"/>
        <pt x="141" y="184" on="0"/>
        <pt x="145" y="232" on="0"/>
        <pt x="146" y="241" on="1"/>
        <pt x="144" y="293" on="1"/>
        <pt x="43" y="293" on="1"/>
        <pt x="41" y="293" on="0"/>
        <pt x="30" y="305" on="0"/>
        <pt x="27" y="316" on="0"/>
        <pt x="26" y="326" on="1"/>
        <pt x="24" y="351" on="0"/>
        <pt x="22" y="369" on="1"/>
        <pt x="146" y="369" on="1"/>
        <pt x="146" y="614" on="1"/>
        <pt x="137" y="616" on="0"/>
        <pt x="90" y="660" on="0"/>
        <pt x="84" y="669" on="0"/>
        <pt x="77" y="697" on="0"/>
        <pt x="77" y="702" on="1"/>
        <pt x="102" y="699" on="1"/>
        <pt x="104" y="698" on="0"/>
        <pt x="121" y="687" on="0"/>
        <pt x="130" y="681" on="1"/>
        <pt x="148" y="670" on="0"/>
        <pt x="160" y="664" on="1"/>
        <pt x="161" y="664" on="0"/>
        <pt x="173" y="666" on="0"/>
        <pt x="178" y="662" on="0"/>
        <pt x="200" y="650" on="0"/>
        <pt x="204" y="647" on="1"/>
        <pt x="510" y="647" on="1"/>
        <pt x="556" y="647" on="0"/>
        <pt x="627" y="597" on="1"/>
        <pt x="633" y="592" on="0"/>
        <pt x="662" y="569" on="0"/>
        <pt x="695" y="542" on="0"/>
        <pt x="723" y="517" on="0"/>
        <pt x="729" y="512" on="1"/>
        <pt x="730" y="470" on="1"/>
        <pt x="730" y="428" on="1"/>
        <pt x="730" y="406" on="0"/>
        <pt x="731" y="372" on="0"/>
        <pt x="730" y="357" on="1"/>
        <pt x="728" y="324" on="0"/>
        <pt x="714" y="293" on="1"/>
        <pt x="714" y="291" on="0"/>
        <pt x="701" y="278" on="0"/>
        <pt x="698" y="274" on="0"/>
        <pt x="701" y="260" on="0"/>
        <pt x="698" y="253" on="0"/>
        <pt x="690" y="233" on="0"/>
        <pt x="681" y="211" on="0"/>
        <pt x="676" y="202" on="1"/>
        <pt x="671" y="191" on="1"/>
        <pt x="650" y="158" on="0"/>
        <pt x="614" y="108" on="0"/>
        <pt x="612" y="106" on="1"/>
        <pt x="602" y="96" on="0"/>
        <pt x="496" y="38" on="1"/>
        <pt x="410" y="-6" on="0"/>
        <pt x="254" y="0" on="1"/>
        <pt x="213" y="1" on="0"/>
      </contour>
      <contour>
        <pt x="450" y="339" on="0"/>
        <pt x="439" y="327" on="0"/>
        <pt x="427" y="325" on="0"/>
        <pt x="360" y="325" on="0"/>
        <pt x="350" y="327" on="1"/>
        <pt x="335" y="90" on="1"/>
        <pt x="350" y="54" on="1"/>
        <pt x="365" y="58" on="1"/>
        <pt x="380" y="62" on="0"/>
        <pt x="401" y="68" on="1"/>
        <pt x="459" y="83" on="0"/>
        <pt x="481" y="90" on="1"/>
        <pt x="525" y="102" on="0"/>
        <pt x="563" y="134" on="1"/>
        <pt x="637" y="195" on="0"/>
        <pt x="674" y="320" on="1"/>
        <pt x="680" y="341" on="0"/>
        <pt x="686" y="367" on="0"/>
        <pt x="692" y="389" on="0"/>
        <pt x="696" y="410" on="0"/>
        <pt x="700" y="427" on="0"/>
        <pt x="700" y="431" on="0"/>
        <pt x="696" y="446" on="0"/>
        <pt x="692" y="462" on="0"/>
        <pt x="686" y="476" on="0"/>
        <pt x="685" y="479" on="1"/>
        <pt x="626" y="575" on="0"/>
        <pt x="519" y="592" on="1"/>
        <pt x="486" y="598" on="0"/>
        <pt x="468" y="598" on="1"/>
        <pt x="440" y="598" on="1"/>
        <pt x="406" y="597" on="1"/>
        <pt x="393" y="597" on="1"/>
        <pt x="384" y="589" on="0"/>
        <pt x="365" y="557" on="0"/>
        <pt x="362" y="528" on="0"/>
        <pt x="361" y="473" on="0"/>
        <pt x="359" y="417" on="0"/>
        <pt x="358" y="385" on="1"/>
        <pt x="447" y="385" on="1"/>
        <pt x="449" y="377" on="0"/>
        <pt x="453" y="362" on="0"/>
        <pt x="453" y="348" on="0"/>
      </contour>
      <contour>
        <pt x="306" y="275" on="1"/>
        <pt x="307" y="310" on="1"/>
        <pt x="189" y="310" on="1"/>
        <pt x="189" y="72" on="1"/>
        <pt x="277" y="72" on="1"/>
        <pt x="279" y="72" on="0"/>
        <pt x="290" y="98" on="0"/>
        <pt x="292" y="106" on="1"/>
      </contour>
      <contour>
        <pt x="324" y="521" on="1"/>
        <pt x="321" y="579" on="1"/>
        <pt x="189" y="599" on="1"/>
        <pt x="189" y="375" on="1"/>
        <pt x="212" y="375" on="0"/>
        <pt x="223" y="377" on="0"/>
        <pt x="248" y="382" on="0"/>
        <pt x="262" y="384" on="1"/>
        <pt x="294" y="390" on="0"/>
        <pt x="306" y="395" on="1"/>
        <pt x="311" y="400" on="0"/>
        <pt x="321" y="425" on="0"/>
        <pt x="321" y="428" on="1"/>
      </contour>
    </TTGlyph>
    <TTGlyph name="Euro" xMin="29" yMin="5" xMax="679" yMax="677">
      <contour>
        <pt x="400" y="5" on="1"/>
        <pt x="368" y="6" on="1"/>
        <pt x="357" y="6" on="1"/>
        <pt x="355" y="8" on="0"/>
        <pt x="341" y="17" on="0"/>
        <pt x="309" y="34" on="0"/>
        <pt x="243" y="73" on="0"/>
        <pt x="215" y="98" on="1"/>
        <pt x="150" y="158" on="0"/>
        <pt x="146" y="226" on="1"/>
        <pt x="41" y="226" on="1"/>
        <pt x="37" y="226" on="0"/>
        <pt x="29" y="242" on="1"/>
        <pt x="29" y="267" on="0"/>
        <pt x="47" y="267" on="1"/>
        <pt x="140" y="267" on="1"/>
        <pt x="140" y="341" on="1"/>
        <pt x="54" y="341" on="1"/>
        <pt x="43" y="341" on="0"/>
        <pt x="39" y="350" on="0"/>
        <pt x="39" y="356" on="1"/>
        <pt x="39" y="385" on="0"/>
        <pt x="117" y="385" on="1"/>
        <pt x="153" y="385" on="1"/>
        <pt x="182" y="518" on="0"/>
        <pt x="272" y="596" on="1"/>
        <pt x="366" y="677" on="0"/>
        <pt x="495" y="677" on="1"/>
        <pt x="600" y="677" on="0"/>
        <pt x="656" y="632" on="1"/>
        <pt x="679" y="614" on="0"/>
        <pt x="679" y="563" on="0"/>
        <pt x="654" y="563" on="1"/>
        <pt x="649" y="563" on="1"/>
        <pt x="648" y="563" on="0"/>
        <pt x="633" y="586" on="0"/>
        <pt x="602" y="612" on="0"/>
        <pt x="584" y="618" on="1"/>
        <pt x="559" y="628" on="0"/>
        <pt x="503" y="628" on="1"/>
        <pt x="503" y="628" on="0"/>
        <pt x="450" y="626" on="1"/>
        <pt x="403" y="595" on="0"/>
        <pt x="374" y="530" on="1"/>
        <pt x="346" y="470" on="0"/>
        <pt x="346" y="411" on="1"/>
        <pt x="460" y="415" on="1"/>
        <pt x="474" y="415" on="0"/>
        <pt x="482" y="406" on="0"/>
        <pt x="482" y="396" on="1"/>
        <pt x="482" y="380" on="0"/>
        <pt x="435" y="370" on="0"/>
        <pt x="379" y="367" on="0"/>
        <pt x="332" y="363" on="0"/>
        <pt x="332" y="354" on="1"/>
        <pt x="332" y="292" on="1"/>
        <pt x="338" y="291" on="1"/>
        <pt x="346" y="293" on="0"/>
        <pt x="405" y="300" on="0"/>
        <pt x="434" y="304" on="0"/>
        <pt x="450" y="304" on="0"/>
        <pt x="470" y="301" on="0"/>
        <pt x="470" y="289" on="1"/>
        <pt x="470" y="277" on="0"/>
        <pt x="450" y="262" on="0"/>
        <pt x="437" y="261" on="1"/>
        <pt x="320" y="242" on="1"/>
        <pt x="313" y="229" on="1"/>
        <pt x="363" y="56" on="1"/>
        <pt x="368" y="42" on="0"/>
        <pt x="446" y="42" on="0"/>
        <pt x="517" y="54" on="0"/>
        <pt x="546" y="69" on="1"/>
        <pt x="609" y="101" on="0"/>
        <pt x="637" y="173" on="1"/>
        <pt x="648" y="174" on="1"/>
        <pt x="659" y="174" on="0"/>
        <pt x="668" y="169" on="0"/>
        <pt x="668" y="158" on="1"/>
        <pt x="668" y="142" on="0"/>
        <pt x="625" y="86" on="0"/>
        <pt x="576" y="39" on="0"/>
        <pt x="549" y="26" on="1"/>
        <pt x="503" y="5" on="0"/>
        <pt x="410" y="5" on="1"/>
      </contour>
      <contour>
        <pt x="178" y="291" on="1"/>
        <pt x="178" y="231" on="0"/>
        <pt x="209" y="166" on="1"/>
        <pt x="225" y="133" on="0"/>
        <pt x="277" y="78" on="0"/>
        <pt x="313" y="68" on="1"/>
        <pt x="313" y="80" on="1"/>
        <pt x="277" y="204" on="1"/>
        <pt x="278" y="209" on="0"/>
        <pt x="278" y="217" on="0"/>
        <pt x="278" y="228" on="0"/>
        <pt x="276" y="237" on="0"/>
        <pt x="274" y="240" on="1"/>
        <pt x="271" y="249" on="0"/>
        <pt x="271" y="257" on="1"/>
        <pt x="271" y="273" on="0"/>
        <pt x="283" y="285" on="1"/>
        <pt x="351" y="583" on="1"/>
        <pt x="351" y="596" on="1"/>
        <pt x="310" y="582" on="0"/>
        <pt x="267" y="532" on="1"/>
        <pt x="224" y="480" on="0"/>
        <pt x="214" y="440" on="1"/>
      </contour>
    </TTGlyph>
    <TTGlyph name="F" xMin="19" yMin="-25" xMax="667" yMax="689">
      <contour>
        <pt x="398" y="-18" on="1"/>
        <pt x="150" y="-25" on="0"/>
        <pt x="86" y="-25" on="0"/>
        <pt x="50" y="-21" on="0"/>
        <pt x="50" y="-3" on="1"/>
        <pt x="50" y="31" on="0"/>
        <pt x="112" y="31" on="1"/>
        <pt x="131" y="31" on="0"/>
        <pt x="138" y="52" on="0"/>
        <pt x="138" y="71" on="1"/>
        <pt x="131" y="174" on="1"/>
        <pt x="137" y="286" on="1"/>
        <pt x="124" y="286" on="1"/>
        <pt x="102" y="286" on="0"/>
        <pt x="81" y="301" on="0"/>
        <pt x="81" y="311" on="1"/>
        <pt x="81" y="336" on="0"/>
        <pt x="137" y="336" on="1"/>
        <pt x="145" y="368" on="0"/>
        <pt x="145" y="419" on="1"/>
        <pt x="145" y="488" on="1"/>
        <pt x="144" y="562" on="1"/>
        <pt x="144" y="589" on="1"/>
        <pt x="137" y="614" on="1"/>
        <pt x="32" y="627" on="1"/>
        <pt x="22" y="629" on="0"/>
        <pt x="19" y="645" on="0"/>
        <pt x="19" y="660" on="0"/>
        <pt x="22" y="673" on="0"/>
        <pt x="32" y="677" on="1"/>
        <pt x="83" y="677" on="0"/>
        <pt x="148" y="668" on="1"/>
        <pt x="271" y="651" on="0"/>
        <pt x="298" y="651" on="1"/>
        <pt x="322" y="651" on="0"/>
        <pt x="347" y="651" on="1"/>
        <pt x="367" y="652" on="1"/>
        <pt x="565" y="689" on="1"/>
        <pt x="658" y="689" on="1"/>
        <pt x="664" y="677" on="1"/>
        <pt x="667" y="586" on="1"/>
        <pt x="667" y="561" on="0"/>
        <pt x="653" y="520" on="0"/>
        <pt x="629" y="520" on="1"/>
        <pt x="620" y="520" on="1"/>
        <pt x="617" y="520" on="0"/>
        <pt x="615" y="521" on="1"/>
        <pt x="521" y="621" on="1"/>
        <pt x="510" y="621" on="1"/>
        <pt x="437" y="621" on="0"/>
        <pt x="337" y="601" on="0"/>
        <pt x="336" y="596" on="1"/>
        <pt x="333" y="569" on="0"/>
        <pt x="331" y="528" on="0"/>
        <pt x="329" y="489" on="0"/>
        <pt x="329" y="470" on="1"/>
        <pt x="329" y="361" on="1"/>
        <pt x="344" y="348" on="0"/>
        <pt x="390" y="349" on="0"/>
        <pt x="400" y="352" on="1"/>
        <pt x="427" y="358" on="0"/>
        <pt x="444" y="365" on="0"/>
        <pt x="449" y="385" on="0"/>
        <pt x="454" y="406" on="0"/>
        <pt x="461" y="423" on="0"/>
        <pt x="472" y="423" on="1"/>
        <pt x="497" y="423" on="0"/>
        <pt x="497" y="379" on="1"/>
        <pt x="497" y="344" on="0"/>
        <pt x="482" y="277" on="0"/>
        <pt x="466" y="243" on="0"/>
        <pt x="454" y="243" on="1"/>
        <pt x="444" y="247" on="1"/>
        <pt x="435" y="251" on="0"/>
        <pt x="435" y="254" on="1"/>
        <pt x="435" y="311" on="1"/>
        <pt x="336" y="311" on="1"/>
        <pt x="329" y="298" on="1"/>
        <pt x="329" y="235" on="1"/>
        <pt x="329" y="108" on="0"/>
        <pt x="336" y="31" on="1"/>
        <pt x="337" y="25" on="0"/>
        <pt x="347" y="25" on="1"/>
        <pt x="420" y="31" on="1"/>
        <pt x="448" y="31" on="0"/>
        <pt x="448" y="9" on="1"/>
        <pt x="448" y="-18" on="0"/>
      </contour>
      <contour>
        <pt x="175" y="243" on="1"/>
        <pt x="173" y="152" on="1"/>
        <pt x="173" y="104" on="1"/>
        <pt x="175" y="44" on="1"/>
        <pt x="181" y="31" on="1"/>
        <pt x="211" y="31" on="1"/>
        <pt x="260" y="31" on="0"/>
        <pt x="287" y="37" on="1"/>
        <pt x="294" y="40" on="0"/>
        <pt x="294" y="54" on="1"/>
        <pt x="293" y="69" on="1"/>
        <pt x="298" y="261" on="1"/>
        <pt x="292" y="490" on="1"/>
        <pt x="292" y="546" on="1"/>
        <pt x="292" y="573" on="0"/>
        <pt x="293" y="584" on="1"/>
        <pt x="287" y="596" on="1"/>
        <pt x="199" y="614" on="1"/>
        <pt x="193" y="602" on="1"/>
        <pt x="192" y="601" on="0"/>
        <pt x="187" y="498" on="0"/>
        <pt x="183" y="420" on="0"/>
        <pt x="181" y="380" on="1"/>
        <pt x="178" y="322" on="0"/>
      </contour>
      <contour>
        <pt x="621" y="641" on="0"/>
        <pt x="616" y="646" on="0"/>
        <pt x="583" y="646" on="0"/>
        <pt x="583" y="637" on="1"/>
        <pt x="583" y="624" on="0"/>
        <pt x="607" y="607" on="0"/>
        <pt x="615" y="602" on="1"/>
        <pt x="621" y="611" on="0"/>
      </contour>
    </TTGlyph>
    <TTGlyph name="G" xMin="1" yMin="-63" xMax="793" yMax="692">
      <contour>
        <pt x="562" y="285" on="1"/>
        <pt x="649" y="281" on="1"/>
        <pt x="681" y="281" on="0"/>
        <pt x="746" y="304" on="0"/>
        <pt x="766" y="328" on="1"/>
        <pt x="776" y="328" on="0"/>
        <pt x="793" y="317" on="0"/>
        <pt x="793" y="284" on="0"/>
        <pt x="771" y="266" on="0"/>
        <pt x="743" y="257" on="0"/>
        <pt x="716" y="250" on="0"/>
        <pt x="705" y="227" on="0"/>
        <pt x="702" y="200" on="0"/>
        <pt x="700" y="172" on="0"/>
        <pt x="700" y="146" on="0"/>
        <pt x="697" y="136" on="1"/>
        <pt x="654" y="-63" on="0"/>
        <pt x="404" y="-63" on="1"/>
        <pt x="276" y="-63" on="0"/>
        <pt x="186" y="30" on="1"/>
        <pt x="91" y="126" on="0"/>
        <pt x="62" y="302" on="1"/>
        <pt x="8" y="302" on="1"/>
        <pt x="1" y="302" on="0"/>
        <pt x="1" y="319" on="1"/>
        <pt x="2" y="329" on="1"/>
        <pt x="5" y="330" on="0"/>
        <pt x="20" y="336" on="0"/>
        <pt x="28" y="339" on="1"/>
        <pt x="52" y="347" on="0"/>
        <pt x="57" y="350" on="0"/>
        <pt x="66" y="386" on="0"/>
        <pt x="71" y="409" on="1"/>
        <pt x="83" y="462" on="0"/>
        <pt x="90" y="487" on="1"/>
        <pt x="124" y="580" on="0"/>
        <pt x="278" y="692" on="0"/>
        <pt x="373" y="692" on="1"/>
        <pt x="402" y="692" on="0"/>
        <pt x="494" y="671" on="0"/>
        <pt x="543" y="661" on="0"/>
        <pt x="590" y="661" on="0"/>
        <pt x="613" y="671" on="0"/>
        <pt x="628" y="682" on="0"/>
        <pt x="642" y="692" on="0"/>
        <pt x="656" y="692" on="0"/>
        <pt x="660" y="688" on="1"/>
        <pt x="677" y="671" on="1"/>
        <pt x="677" y="527" on="1"/>
        <pt x="677" y="516" on="0"/>
        <pt x="657" y="506" on="0"/>
        <pt x="649" y="506" on="1"/>
        <pt x="614" y="522" on="0"/>
        <pt x="550" y="569" on="0"/>
        <pt x="485" y="613" on="0"/>
        <pt x="417" y="644" on="0"/>
        <pt x="377" y="644" on="1"/>
        <pt x="363" y="643" on="1"/>
        <pt x="343" y="473" on="0"/>
        <pt x="343" y="387" on="1"/>
        <pt x="343" y="233" on="0"/>
        <pt x="363" y="129" on="1"/>
        <pt x="364" y="124" on="0"/>
        <pt x="370" y="82" on="0"/>
        <pt x="374" y="58" on="1"/>
        <pt x="383" y="-5" on="0"/>
        <pt x="384" y="-6" on="1"/>
        <pt x="391" y="-17" on="0"/>
        <pt x="411" y="-21" on="0"/>
        <pt x="425" y="-21" on="0"/>
        <pt x="452" y="-14" on="0"/>
        <pt x="469" y="-9" on="1"/>
        <pt x="510" y="3" on="0"/>
        <pt x="534" y="13" on="1"/>
        <pt x="559" y="30" on="0"/>
        <pt x="595" y="80" on="0"/>
        <pt x="595" y="128" on="0"/>
        <pt x="585" y="159" on="0"/>
        <pt x="568" y="187" on="0"/>
        <pt x="546" y="215" on="0"/>
        <pt x="534" y="232" on="1"/>
        <pt x="522" y="232" on="0"/>
        <pt x="472" y="204" on="0"/>
        <pt x="458" y="204" on="0"/>
        <pt x="437" y="224" on="0"/>
        <pt x="437" y="250" on="0"/>
        <pt x="467" y="270" on="0"/>
        <pt x="487" y="276" on="1"/>
        <pt x="522" y="285" on="0"/>
      </contour>
      <contour>
        <pt x="240" y="38" on="1"/>
        <pt x="261" y="23" on="0"/>
        <pt x="319" y="-6" on="0"/>
        <pt x="321" y="-6" on="1"/>
        <pt x="339" y="-6" on="1"/>
        <pt x="325" y="79" on="0"/>
        <pt x="293" y="248" on="0"/>
        <pt x="293" y="334" on="1"/>
        <pt x="293" y="345" on="0"/>
        <pt x="296" y="379" on="1"/>
        <pt x="301" y="452" on="0"/>
        <pt x="301" y="488" on="1"/>
        <pt x="301" y="562" on="1"/>
        <pt x="301" y="601" on="0"/>
        <pt x="302" y="616" on="1"/>
        <pt x="296" y="623" on="0"/>
        <pt x="293" y="623" on="1"/>
        <pt x="287" y="623" on="0"/>
        <pt x="261" y="610" on="1"/>
        <pt x="189" y="561" on="0"/>
        <pt x="116" y="432" on="0"/>
        <pt x="116" y="258" on="0"/>
        <pt x="196" y="71" on="0"/>
      </contour>
      <contour>
        <pt x="636" y="116" on="1"/>
        <pt x="653" y="183" on="0"/>
        <pt x="656" y="204" on="1"/>
        <pt x="656" y="231" on="0"/>
        <pt x="608" y="239" on="1"/>
        <pt x="597" y="241" on="0"/>
        <pt x="589" y="241" on="1"/>
        <pt x="609" y="209" on="0"/>
        <pt x="635" y="150" on="0"/>
      </contour>
      <contour>
        <pt x="543" y="620" on="1"/>
        <pt x="548" y="616" on="0"/>
        <pt x="578" y="600" on="1"/>
        <pt x="631" y="571" on="0"/>
        <pt x="644" y="558" on="1"/>
        <pt x="644" y="627" on="1"/>
        <pt x="641" y="626" on="0"/>
        <pt x="622" y="625" on="0"/>
        <pt x="594" y="623" on="0"/>
        <pt x="560" y="621" on="0"/>
      </contour>
    </TTGlyph>
    <TTGlyph name="H" xMin="29" yMin="-32" xMax="885" yMax="658">
      <contour>
        <pt x="162" y="-7" on="1"/>
        <pt x="95" y="-8" on="1"/>
        <pt x="70" y="-8" on="0"/>
        <pt x="48" y="-6" on="1"/>
        <pt x="39" y="-2" on="0"/>
        <pt x="34" y="5" on="0"/>
        <pt x="34" y="12" on="1"/>
        <pt x="36" y="26" on="1"/>
        <pt x="39" y="40" on="0"/>
        <pt x="41" y="40" on="1"/>
        <pt x="167" y="40" on="1"/>
        <pt x="173" y="181" on="1"/>
        <pt x="173" y="286" on="0"/>
        <pt x="149" y="286" on="1"/>
        <pt x="130" y="286" on="0"/>
        <pt x="97" y="266" on="0"/>
        <pt x="83" y="266" on="1"/>
        <pt x="59" y="266" on="0"/>
        <pt x="59" y="287" on="1"/>
        <pt x="59" y="293" on="0"/>
        <pt x="60" y="301" on="0"/>
        <pt x="66" y="304" on="1"/>
        <pt x="153" y="341" on="1"/>
        <pt x="153" y="378" on="1"/>
        <pt x="116" y="577" on="1"/>
        <pt x="41" y="577" on="1"/>
        <pt x="29" y="605" on="0"/>
        <pt x="29" y="610" on="1"/>
        <pt x="29" y="623" on="0"/>
        <pt x="57" y="627" on="0"/>
        <pt x="75" y="627" on="1"/>
        <pt x="103" y="626" on="1"/>
        <pt x="107" y="637" on="0"/>
        <pt x="117" y="646" on="0"/>
        <pt x="128" y="646" on="1"/>
        <pt x="139" y="646" on="0"/>
        <pt x="154" y="637" on="0"/>
        <pt x="225" y="637" on="0"/>
        <pt x="345" y="658" on="0"/>
        <pt x="406" y="658" on="1"/>
        <pt x="439" y="658" on="0"/>
        <pt x="439" y="635" on="1"/>
        <pt x="439" y="618" on="0"/>
        <pt x="423" y="609" on="0"/>
        <pt x="412" y="609" on="1"/>
        <pt x="387" y="610" on="1"/>
        <pt x="373" y="610" on="0"/>
        <pt x="351" y="597" on="0"/>
        <pt x="351" y="556" on="0"/>
        <pt x="353" y="534" on="0"/>
        <pt x="354" y="522" on="1"/>
        <pt x="358" y="494" on="0"/>
        <pt x="358" y="455" on="1"/>
        <pt x="357" y="396" on="1"/>
        <pt x="364" y="384" on="1"/>
        <pt x="469" y="384" on="1"/>
        <pt x="699" y="337" on="1"/>
        <pt x="699" y="577" on="1"/>
        <pt x="699" y="581" on="0"/>
        <pt x="695" y="590" on="1"/>
        <pt x="687" y="607" on="0"/>
        <pt x="680" y="607" on="1"/>
        <pt x="581" y="607" on="1"/>
        <pt x="574" y="607" on="0"/>
        <pt x="574" y="622" on="1"/>
        <pt x="574" y="657" on="0"/>
        <pt x="731" y="657" on="1"/>
        <pt x="756" y="657" on="0"/>
        <pt x="793" y="659" on="0"/>
        <pt x="805" y="658" on="1"/>
        <pt x="829" y="658" on="0"/>
        <pt x="829" y="641" on="1"/>
        <pt x="829" y="622" on="0"/>
        <pt x="794" y="612" on="0"/>
        <pt x="782" y="612" on="1"/>
        <pt x="761" y="612" on="1"/>
        <pt x="753" y="612" on="0"/>
        <pt x="749" y="613" on="1"/>
        <pt x="742" y="607" on="1"/>
        <pt x="736" y="350" on="1"/>
        <pt x="746" y="350" on="0"/>
        <pt x="753" y="346" on="0"/>
        <pt x="756" y="346" on="1"/>
        <pt x="759" y="346" on="0"/>
        <pt x="794" y="383" on="1"/>
        <pt x="859" y="453" on="0"/>
        <pt x="873" y="453" on="0"/>
        <pt x="885" y="441" on="0"/>
        <pt x="885" y="412" on="0"/>
        <pt x="851" y="367" on="0"/>
        <pt x="827" y="348" on="1"/>
        <pt x="782" y="311" on="0"/>
        <pt x="736" y="291" on="1"/>
        <pt x="736" y="258" on="0"/>
        <pt x="737" y="199" on="0"/>
        <pt x="738" y="170" on="1"/>
        <pt x="739" y="102" on="0"/>
        <pt x="742" y="43" on="1"/>
        <pt x="750" y="39" on="0"/>
        <pt x="775" y="34" on="0"/>
        <pt x="787" y="30" on="1"/>
        <pt x="817" y="22" on="0"/>
        <pt x="817" y="3" on="1"/>
        <pt x="817" y="-20" on="0"/>
        <pt x="749" y="-20" on="0"/>
        <pt x="675" y="-5" on="0"/>
        <pt x="637" y="-5" on="1"/>
        <pt x="618" y="-6" on="1"/>
        <pt x="611" y="-5" on="0"/>
        <pt x="611" y="13" on="1"/>
        <pt x="611" y="45" on="0"/>
        <pt x="665" y="45" on="1"/>
        <pt x="682" y="45" on="0"/>
        <pt x="692" y="43" on="1"/>
        <pt x="699" y="74" on="1"/>
        <pt x="699" y="285" on="1"/>
        <pt x="469" y="335" on="1"/>
        <pt x="420" y="336" on="1"/>
        <pt x="376" y="336" on="0"/>
        <pt x="364" y="316" on="1"/>
        <pt x="357" y="114" on="1"/>
        <pt x="357" y="93" on="1"/>
        <pt x="357" y="37" on="0"/>
        <pt x="364" y="30" on="1"/>
        <pt x="394" y="30" on="1"/>
        <pt x="464" y="30" on="0"/>
        <pt x="464" y="3" on="1"/>
        <pt x="464" y="-12" on="0"/>
        <pt x="425" y="-25" on="1"/>
        <pt x="412" y="-25" on="0"/>
        <pt x="395" y="-18" on="0"/>
        <pt x="373" y="-18" on="0"/>
        <pt x="361" y="-22" on="0"/>
        <pt x="356" y="-25" on="1"/>
        <pt x="344" y="-32" on="0"/>
        <pt x="336" y="-32" on="1"/>
        <pt x="334" y="-32" on="1"/>
        <pt x="333" y="-32" on="0"/>
        <pt x="332" y="-31" on="1"/>
        <pt x="284" y="-7" on="0"/>
      </contour>
      <contour>
        <pt x="326" y="297" on="1"/>
        <pt x="326" y="384" on="0"/>
        <pt x="314" y="591" on="0"/>
        <pt x="309" y="605" on="0"/>
        <pt x="307" y="607" on="1"/>
        <pt x="215" y="607" on="0"/>
        <pt x="171" y="590" on="1"/>
        <pt x="159" y="586" on="0"/>
        <pt x="159" y="582" on="1"/>
        <pt x="208" y="198" on="1"/>
        <pt x="208" y="118" on="1"/>
        <pt x="208" y="85" on="0"/>
        <pt x="212" y="64" on="1"/>
        <pt x="215" y="43" on="1"/>
        <pt x="221" y="37" on="1"/>
        <pt x="307" y="37" on="1"/>
        <pt x="311" y="37" on="0"/>
        <pt x="315" y="108" on="0"/>
        <pt x="314" y="136" on="1"/>
      </contour>
    </TTGlyph>
    <TTGlyph name="I" xMin="26" yMin="-36" xMax="423" yMax="686">
      <contour>
        <pt x="324" y="-34" on="1"/>
        <pt x="274" y="-36" on="1"/>
        <pt x="255" y="-36" on="1"/>
        <pt x="226" y="-36" on="0"/>
        <pt x="210" y="-34" on="1"/>
        <pt x="173" y="-28" on="0"/>
        <pt x="152" y="-28" on="1"/>
        <pt x="68" y="-28" on="1"/>
        <pt x="51" y="-28" on="0"/>
        <pt x="36" y="-18" on="0"/>
        <pt x="34" y="14" on="0"/>
        <pt x="62" y="18" on="0"/>
        <pt x="96" y="15" on="0"/>
        <pt x="128" y="15" on="0"/>
        <pt x="133" y="24" on="1"/>
        <pt x="135" y="164" on="1"/>
        <pt x="137" y="272" on="1"/>
        <pt x="137" y="283" on="0"/>
        <pt x="136" y="287" on="1"/>
        <pt x="130" y="285" on="0"/>
        <pt x="116" y="285" on="0"/>
        <pt x="98" y="310" on="0"/>
        <pt x="98" y="330" on="0"/>
        <pt x="110" y="337" on="0"/>
        <pt x="124" y="341" on="0"/>
        <pt x="136" y="345" on="0"/>
        <pt x="136" y="350" on="1"/>
        <pt x="133" y="380" on="0"/>
        <pt x="132" y="451" on="0"/>
        <pt x="130" y="524" on="0"/>
        <pt x="129" y="596" on="0"/>
        <pt x="126" y="627" on="1"/>
        <pt x="119" y="634" on="0"/>
        <pt x="117" y="634" on="1"/>
        <pt x="79" y="634" on="1"/>
        <pt x="66" y="634" on="0"/>
        <pt x="40" y="635" on="0"/>
        <pt x="26" y="652" on="0"/>
        <pt x="26" y="668" on="0"/>
        <pt x="27" y="676" on="0"/>
        <pt x="33" y="679" on="1"/>
        <pt x="132" y="684" on="1"/>
        <pt x="150" y="682" on="0"/>
        <pt x="167" y="682" on="1"/>
        <pt x="345" y="686" on="1"/>
        <pt x="359" y="686" on="1"/>
        <pt x="402" y="685" on="1"/>
        <pt x="416" y="685" on="1"/>
        <pt x="423" y="682" on="0"/>
        <pt x="423" y="647" on="0"/>
        <pt x="403" y="634" on="0"/>
        <pt x="376" y="634" on="1"/>
        <pt x="328" y="636" on="1"/>
        <pt x="328" y="540" on="0"/>
        <pt x="319" y="340" on="0"/>
        <pt x="319" y="95" on="0"/>
        <pt x="330" y="12" on="1"/>
        <pt x="398" y="7" on="1"/>
        <pt x="419" y="7" on="0"/>
        <pt x="420" y="-16" on="1"/>
        <pt x="416" y="-25" on="0"/>
        <pt x="407" y="-27" on="1"/>
      </contour>
      <contour>
        <pt x="287" y="521" on="1"/>
        <pt x="287" y="636" on="0"/>
        <pt x="265" y="636" on="1"/>
        <pt x="245" y="636" on="0"/>
        <pt x="228" y="636" on="1"/>
        <pt x="194" y="636" on="0"/>
        <pt x="176" y="634" on="1"/>
        <pt x="170" y="632" on="0"/>
        <pt x="170" y="623" on="1"/>
        <pt x="170" y="589" on="0"/>
        <pt x="171" y="472" on="0"/>
        <pt x="172" y="337" on="0"/>
        <pt x="174" y="197" on="0"/>
        <pt x="176" y="140" on="1"/>
        <pt x="179" y="12" on="0"/>
        <pt x="182" y="12" on="1"/>
        <pt x="274" y="12" on="1"/>
        <pt x="280" y="18" on="1"/>
        <pt x="281" y="43" on="1"/>
        <pt x="281" y="52" on="1"/>
        <pt x="280" y="74" on="1"/>
        <pt x="280" y="80" on="1"/>
      </contour>
    </TTGlyph>
    <TTGlyph name="Iacute" xMin="26" yMin="-36" xMax="423" yMax="806">
      <component glyphName="I" x="0" y="0" flags="0x1204"/>
      <component glyphName="acute" x="113" y="37" flags="0x1004"/>
    </TTGlyph>
    <TTGlyph name="Icircumflex" xMin="26" yMin="-36" xMax="424" yMax="825">
      <component glyphName="I" x="0" y="0" flags="0x1204"/>
      <component glyphName="circumflex" x="33" y="37" flags="0x1004"/>
    </TTGlyph>
    <TTGlyph name="Idieresis" xMin="26" yMin="-36" xMax="423" yMax="818">
      <component glyphName="I" x="0" y="0" flags="0x1004"/>
      <component glyphName="dieresis" x="-42" y="20" flags="0x1004"/>
    </TTGlyph>
    <TTGlyph name="Igrave" xMin="26" yMin="-36" xMax="423" yMax="806">
      <component glyphName="I" x="0" y="0" flags="0x1004"/>
      <component glyphName="grave" x="113" y="37" flags="0x1004"/>
    </TTGlyph>
    <TTGlyph name="J" xMin="19" yMin="-95" xMax="564" yMax="682">
      <contour>
        <pt x="412" y="670" on="1"/>
        <pt x="521" y="676" on="1"/>
        <pt x="547" y="676" on="0"/>
        <pt x="564" y="620" on="0"/>
        <pt x="564" y="586" on="1"/>
        <pt x="564" y="508" on="1"/>
        <pt x="564" y="324" on="0"/>
        <pt x="518" y="116" on="0"/>
        <pt x="447" y="-4" on="0"/>
        <pt x="404" y="-38" on="1"/>
        <pt x="329" y="-95" on="0"/>
        <pt x="210" y="-95" on="1"/>
        <pt x="19" y="-95" on="0"/>
        <pt x="19" y="109" on="1"/>
        <pt x="19" y="170" on="0"/>
        <pt x="36" y="192" on="1"/>
        <pt x="44" y="204" on="0"/>
        <pt x="70" y="204" on="0"/>
        <pt x="87" y="195" on="0"/>
        <pt x="103" y="181" on="0"/>
        <pt x="121" y="163" on="0"/>
        <pt x="144" y="146" on="0"/>
        <pt x="162" y="138" on="0"/>
        <pt x="167" y="135" on="1"/>
        <pt x="177" y="129" on="0"/>
        <pt x="177" y="101" on="0"/>
        <pt x="170" y="68" on="0"/>
        <pt x="161" y="38" on="0"/>
        <pt x="152" y="15" on="0"/>
        <pt x="151" y="5" on="0"/>
        <pt x="152" y="-14" on="0"/>
        <pt x="154" y="-23" on="1"/>
        <pt x="157" y="-45" on="0"/>
        <pt x="174" y="-45" on="1"/>
        <pt x="259" y="-45" on="0"/>
        <pt x="299" y="-13" on="1"/>
        <pt x="312" y="40" on="0"/>
        <pt x="312" y="216" on="0"/>
        <pt x="317" y="343" on="0"/>
        <pt x="321" y="448" on="0"/>
        <pt x="325" y="545" on="0"/>
        <pt x="325" y="605" on="1"/>
        <pt x="324" y="619" on="1"/>
        <pt x="324" y="627" on="1"/>
        <pt x="299" y="633" on="1"/>
        <pt x="200" y="621" on="1"/>
        <pt x="175" y="617" on="0"/>
        <pt x="157" y="597" on="1"/>
        <pt x="125" y="563" on="0"/>
        <pt x="125" y="506" on="0"/>
        <pt x="156" y="488" on="0"/>
        <pt x="194" y="483" on="0"/>
        <pt x="225" y="479" on="0"/>
        <pt x="225" y="468" on="1"/>
        <pt x="225" y="454" on="0"/>
        <pt x="186" y="434" on="0"/>
        <pt x="147" y="434" on="0"/>
        <pt x="113" y="456" on="0"/>
        <pt x="100" y="472" on="1"/>
        <pt x="71" y="504" on="0"/>
        <pt x="71" y="533" on="1"/>
        <pt x="71" y="565" on="0"/>
        <pt x="104" y="609" on="1"/>
        <pt x="136" y="650" on="0"/>
        <pt x="202" y="671" on="1"/>
        <pt x="238" y="682" on="0"/>
        <pt x="310" y="682" on="0"/>
        <pt x="341" y="678" on="0"/>
        <pt x="368" y="674" on="0"/>
        <pt x="394" y="670" on="0"/>
      </contour>
      <contour>
        <pt x="70" y="107" on="1"/>
        <pt x="71" y="96" on="1"/>
        <pt x="76" y="51" on="0"/>
        <pt x="88" y="0" on="0"/>
        <pt x="109" y="-16" on="1"/>
        <pt x="109" y="62" on="0"/>
        <pt x="123" y="107" on="1"/>
        <pt x="120" y="110" on="0"/>
        <pt x="107" y="118" on="0"/>
        <pt x="100" y="122" on="1"/>
        <pt x="84" y="133" on="0"/>
        <pt x="80" y="133" on="1"/>
        <pt x="70" y="133" on="0"/>
      </contour>
      <contour>
        <pt x="512" y="574" on="1"/>
        <pt x="511" y="608" on="1"/>
        <pt x="505" y="614" on="1"/>
        <pt x="503" y="616" on="0"/>
        <pt x="460" y="621" on="0"/>
        <pt x="455" y="621" on="1"/>
        <pt x="450" y="621" on="0"/>
        <pt x="427" y="619" on="0"/>
        <pt x="414" y="618" on="1"/>
        <pt x="379" y="615" on="0"/>
        <pt x="374" y="614" on="1"/>
        <pt x="374" y="284" on="0"/>
        <pt x="344" y="-12" on="1"/>
        <pt x="404" y="6" on="0"/>
        <pt x="492" y="175" on="0"/>
        <pt x="498" y="266" on="1"/>
        <pt x="513" y="453" on="0"/>
        <pt x="513" y="532" on="1"/>
      </contour>
    </TTGlyph>
    <TTGlyph name="K" xMin="23" yMin="-17" xMax="831" yMax="677">
      <contour>
        <pt x="636" y="-17" on="1"/>
        <pt x="606" y="-17" on="0"/>
        <pt x="606" y="17" on="0"/>
        <pt x="626" y="32" on="0"/>
        <pt x="649" y="39" on="0"/>
        <pt x="669" y="44" on="0"/>
        <pt x="669" y="61" on="0"/>
        <pt x="661" y="66" on="0"/>
        <pt x="634" y="98" on="0"/>
        <pt x="590" y="161" on="0"/>
        <pt x="564" y="190" on="1"/>
        <pt x="503" y="260" on="0"/>
        <pt x="391" y="260" on="0"/>
        <pt x="372" y="228" on="1"/>
        <pt x="368" y="195" on="0"/>
        <pt x="368" y="106" on="0"/>
        <pt x="375" y="65" on="0"/>
        <pt x="387" y="46" on="1"/>
        <pt x="451" y="60" on="1"/>
        <pt x="454" y="60" on="0"/>
        <pt x="467" y="42" on="0"/>
        <pt x="467" y="27" on="0"/>
        <pt x="451" y="14" on="0"/>
        <pt x="440" y="10" on="1"/>
        <pt x="422" y="2" on="0"/>
        <pt x="401" y="2" on="1"/>
        <pt x="60" y="2" on="1"/>
        <pt x="60" y="26" on="0"/>
        <pt x="68" y="33" on="1"/>
        <pt x="77" y="42" on="0"/>
        <pt x="110" y="48" on="0"/>
        <pt x="135" y="61" on="0"/>
        <pt x="146" y="62" on="1"/>
        <pt x="147" y="93" on="1"/>
        <pt x="147" y="143" on="0"/>
        <pt x="136" y="231" on="0"/>
        <pt x="130" y="288" on="1"/>
        <pt x="90" y="288" on="1"/>
        <pt x="90" y="305" on="0"/>
        <pt x="110" y="334" on="0"/>
        <pt x="130" y="334" on="1"/>
        <pt x="130" y="616" on="1"/>
        <pt x="122" y="614" on="0"/>
        <pt x="101" y="610" on="1"/>
        <pt x="47" y="600" on="1"/>
        <pt x="23" y="600" on="0"/>
        <pt x="23" y="631" on="1"/>
        <pt x="24" y="646" on="1"/>
        <pt x="77" y="666" on="0"/>
        <pt x="169" y="675" on="1"/>
        <pt x="190" y="677" on="0"/>
        <pt x="200" y="677" on="1"/>
        <pt x="294" y="676" on="1"/>
        <pt x="402" y="675" on="1"/>
        <pt x="416" y="675" on="1"/>
        <pt x="422" y="675" on="0"/>
        <pt x="430" y="676" on="1"/>
        <pt x="455" y="677" on="0"/>
        <pt x="455" y="653" on="1"/>
        <pt x="455" y="644" on="0"/>
        <pt x="410" y="633" on="0"/>
        <pt x="388" y="624" on="0"/>
        <pt x="387" y="616" on="1"/>
        <pt x="371" y="547" on="0"/>
        <pt x="371" y="371" on="1"/>
        <pt x="371" y="360" on="1"/>
        <pt x="372" y="329" on="1"/>
        <pt x="372" y="319" on="1"/>
        <pt x="393" y="335" on="0"/>
        <pt x="511" y="444" on="0"/>
        <pt x="592" y="519" on="0"/>
        <pt x="628" y="552" on="1"/>
        <pt x="708" y="626" on="0"/>
        <pt x="748" y="654" on="0"/>
        <pt x="763" y="659" on="0"/>
        <pt x="788" y="659" on="0"/>
        <pt x="803" y="657" on="0"/>
        <pt x="807" y="643" on="1"/>
        <pt x="781" y="609" on="0"/>
        <pt x="691" y="525" on="0"/>
        <pt x="594" y="437" on="0"/>
        <pt x="504" y="353" on="0"/>
        <pt x="478" y="319" on="1"/>
        <pt x="541" y="293" on="0"/>
        <pt x="613" y="210" on="1"/>
        <pt x="643" y="176" on="0"/>
        <pt x="699" y="105" on="0"/>
        <pt x="752" y="52" on="0"/>
        <pt x="798" y="37" on="0"/>
        <pt x="831" y="37" on="1"/>
        <pt x="831" y="8" on="0"/>
        <pt x="752" y="-6" on="1"/>
        <pt x="698" y="-16" on="0"/>
        <pt x="650" y="-16" on="1"/>
      </contour>
      <contour>
        <pt x="190" y="616" on="1"/>
        <pt x="175" y="243" on="1"/>
        <pt x="175" y="228" on="1"/>
        <pt x="180" y="181" on="0"/>
        <pt x="183" y="150" on="1"/>
        <pt x="188" y="80" on="0"/>
        <pt x="190" y="62" on="1"/>
        <pt x="218" y="41" on="0"/>
        <pt x="322" y="41" on="1"/>
        <pt x="322" y="185" on="0"/>
        <pt x="338" y="496" on="0"/>
        <pt x="341" y="571" on="1"/>
        <pt x="342" y="594" on="1"/>
        <pt x="342" y="616" on="1"/>
      </contour>
    </TTGlyph>
    <TTGlyph name="L" xMin="23" yMin="-19" xMax="739" yMax="676">
      <contour>
        <pt x="433" y="-2" on="1"/>
        <pt x="306" y="-19" on="0"/>
        <pt x="171" y="-19" on="1"/>
        <pt x="136" y="-19" on="0"/>
        <pt x="79" y="-15" on="0"/>
        <pt x="29" y="0" on="0"/>
        <pt x="23" y="14" on="0"/>
        <pt x="23" y="39" on="1"/>
        <pt x="129" y="39" on="1"/>
        <pt x="128" y="116" on="1"/>
        <pt x="128" y="146" on="1"/>
        <pt x="128" y="160" on="0"/>
        <pt x="130" y="171" on="1"/>
        <pt x="126" y="291" on="1"/>
        <pt x="91" y="297" on="0"/>
        <pt x="78" y="306" on="0"/>
        <pt x="78" y="321" on="0"/>
        <pt x="90" y="336" on="0"/>
        <pt x="98" y="344" on="1"/>
        <pt x="120" y="366" on="0"/>
        <pt x="123" y="382" on="0"/>
        <pt x="131" y="435" on="0"/>
        <pt x="135" y="467" on="1"/>
        <pt x="142" y="527" on="1"/>
        <pt x="146" y="555" on="0"/>
        <pt x="146" y="562" on="1"/>
        <pt x="144" y="625" on="1"/>
        <pt x="65" y="620" on="1"/>
        <pt x="44" y="620" on="0"/>
        <pt x="44" y="642" on="1"/>
        <pt x="44" y="647" on="0"/>
        <pt x="60" y="653" on="1"/>
        <pt x="85" y="663" on="0"/>
        <pt x="97" y="663" on="1"/>
        <pt x="119" y="662" on="1"/>
        <pt x="420" y="676" on="1"/>
        <pt x="463" y="676" on="0"/>
        <pt x="463" y="655" on="1"/>
        <pt x="463" y="634" on="0"/>
        <pt x="434" y="630" on="1"/>
        <pt x="385" y="624" on="0"/>
        <pt x="375" y="619" on="1"/>
        <pt x="371" y="608" on="0"/>
        <pt x="368" y="602" on="1"/>
        <pt x="360" y="578" on="0"/>
        <pt x="356" y="540" on="0"/>
        <pt x="351" y="495" on="0"/>
        <pt x="346" y="444" on="0"/>
        <pt x="341" y="399" on="0"/>
        <pt x="338" y="367" on="0"/>
        <pt x="335" y="351" on="1"/>
        <pt x="329" y="319" on="0"/>
        <pt x="329" y="224" on="1"/>
        <pt x="330" y="104" on="1"/>
        <pt x="330" y="79" on="0"/>
        <pt x="343" y="50" on="0"/>
        <pt x="374" y="50" on="1"/>
        <pt x="447" y="45" on="1"/>
        <pt x="471" y="45" on="0"/>
        <pt x="495" y="56" on="0"/>
        <pt x="519" y="67" on="0"/>
        <pt x="532" y="74" on="1"/>
        <pt x="564" y="92" on="0"/>
        <pt x="581" y="108" on="0"/>
        <pt x="620" y="149" on="0"/>
        <pt x="642" y="172" on="1"/>
        <pt x="695" y="229" on="0"/>
        <pt x="709" y="245" on="1"/>
        <pt x="739" y="234" on="0"/>
        <pt x="739" y="183" on="1"/>
        <pt x="739" y="145" on="0"/>
        <pt x="712" y="47" on="0"/>
        <pt x="703" y="28" on="1"/>
        <pt x="682" y="-16" on="0"/>
        <pt x="659" y="-16" on="1"/>
        <pt x="612" y="-16" on="0"/>
        <pt x="521" y="-1" on="0"/>
        <pt x="495" y="-1" on="1"/>
        <pt x="462" y="-1" on="1"/>
        <pt x="438" y="-2" on="1"/>
      </contour>
      <contour>
        <pt x="171" y="72" on="1"/>
        <pt x="172" y="39" on="1"/>
        <pt x="177" y="30" on="0"/>
        <pt x="185" y="25" on="0"/>
        <pt x="193" y="25" on="1"/>
        <pt x="274" y="39" on="1"/>
        <pt x="276" y="41" on="0"/>
        <pt x="280" y="53" on="1"/>
        <pt x="285" y="72" on="1"/>
        <pt x="304" y="137" on="0"/>
        <pt x="314" y="490" on="1"/>
        <pt x="317" y="571" on="0"/>
        <pt x="317" y="604" on="1"/>
        <pt x="317" y="620" on="1"/>
        <pt x="205" y="620" on="1"/>
        <pt x="190" y="590" on="1"/>
        <pt x="187" y="583" on="0"/>
        <pt x="175" y="357" on="0"/>
        <pt x="172" y="311" on="1"/>
        <pt x="167" y="208" on="0"/>
        <pt x="163" y="169" on="0"/>
        <pt x="165" y="153" on="0"/>
        <pt x="168" y="132" on="0"/>
        <pt x="171" y="111" on="0"/>
        <pt x="171" y="106" on="1"/>
      </contour>
      <contour>
        <pt x="551" y="42" on="1"/>
        <pt x="566" y="39" on="0"/>
        <pt x="655" y="39" on="0"/>
        <pt x="683" y="97" on="0"/>
        <pt x="683" y="154" on="1"/>
        <pt x="672" y="142" on="0"/>
        <pt x="644" y="111" on="0"/>
        <pt x="628" y="95" on="1"/>
        <pt x="589" y="57" on="0"/>
      </contour>
    </TTGlyph>
    <TTGlyph name="M" xMin="-11" yMin="-5" xMax="1130" yMax="680">
      <contour>
        <pt x="212" y="422" on="0"/>
        <pt x="235" y="516" on="0"/>
        <pt x="235" y="578" on="0"/>
        <pt x="230" y="608" on="1"/>
        <pt x="165" y="602" on="1"/>
        <pt x="136" y="602" on="0"/>
        <pt x="113" y="620" on="0"/>
        <pt x="113" y="644" on="0"/>
        <pt x="132" y="654" on="1"/>
        <pt x="241" y="669" on="0"/>
        <pt x="402" y="671" on="0"/>
        <pt x="463" y="671" on="1"/>
        <pt x="466" y="610" on="0"/>
        <pt x="524" y="387" on="1"/>
        <pt x="539" y="327" on="0"/>
        <pt x="553" y="278" on="1"/>
        <pt x="561" y="276" on="1"/>
        <pt x="590" y="276" on="0"/>
        <pt x="656" y="459" on="1"/>
        <pt x="667" y="491" on="0"/>
        <pt x="686" y="545" on="0"/>
        <pt x="692" y="561" on="0"/>
        <pt x="692" y="568" on="1"/>
        <pt x="691" y="603" on="1"/>
        <pt x="691" y="620" on="1"/>
        <pt x="691" y="623" on="0"/>
        <pt x="698" y="646" on="0"/>
        <pt x="709" y="646" on="1"/>
        <pt x="908" y="680" on="1"/>
        <pt x="957" y="680" on="0"/>
        <pt x="957" y="654" on="1"/>
        <pt x="957" y="638" on="0"/>
        <pt x="936" y="628" on="0"/>
        <pt x="910" y="622" on="0"/>
        <pt x="889" y="612" on="0"/>
        <pt x="889" y="582" on="0"/>
        <pt x="903" y="514" on="0"/>
        <pt x="913" y="478" on="1"/>
        <pt x="938" y="389" on="0"/>
        <pt x="955" y="379" on="1"/>
        <pt x="961" y="376" on="0"/>
        <pt x="980" y="371" on="0"/>
        <pt x="989" y="368" on="1"/>
        <pt x="1010" y="363" on="0"/>
        <pt x="1010" y="355" on="1"/>
        <pt x="1010" y="343" on="0"/>
        <pt x="998" y="331" on="0"/>
        <pt x="991" y="325" on="1"/>
        <pt x="972" y="309" on="0"/>
        <pt x="972" y="287" on="1"/>
        <pt x="972" y="261" on="1"/>
        <pt x="979" y="240" on="1"/>
        <pt x="985" y="222" on="0"/>
        <pt x="1002" y="178" on="0"/>
        <pt x="1018" y="133" on="0"/>
        <pt x="1032" y="96" on="0"/>
        <pt x="1049" y="67" on="0"/>
        <pt x="1060" y="59" on="1"/>
        <pt x="1076" y="48" on="0"/>
        <pt x="1129" y="37" on="1"/>
        <pt x="1130" y="26" on="1"/>
        <pt x="1130" y="21" on="0"/>
        <pt x="1123" y="2" on="0"/>
        <pt x="1113" y="2" on="1"/>
        <pt x="891" y="2" on="1"/>
        <pt x="842" y="54" on="1"/>
        <pt x="727" y="465" on="1"/>
        <pt x="709" y="450" on="1"/>
        <pt x="651" y="311" on="0"/>
        <pt x="578" y="168" on="0"/>
        <pt x="563" y="144" on="0"/>
        <pt x="538" y="109" on="0"/>
        <pt x="524" y="92" on="1"/>
        <pt x="489" y="53" on="0"/>
        <pt x="437" y="53" on="0"/>
        <pt x="415" y="83" on="0"/>
        <pt x="406" y="106" on="1"/>
        <pt x="369" y="205" on="0"/>
        <pt x="297" y="408" on="0"/>
        <pt x="278" y="510" on="1"/>
        <pt x="271" y="490" on="0"/>
        <pt x="238" y="360" on="0"/>
        <pt x="215" y="272" on="0"/>
        <pt x="204" y="231" on="1"/>
        <pt x="177" y="136" on="0"/>
        <pt x="158" y="101" on="0"/>
        <pt x="153" y="86" on="0"/>
        <pt x="151" y="78" on="1"/>
        <pt x="147" y="64" on="0"/>
        <pt x="147" y="45" on="0"/>
        <pt x="155" y="37" on="1"/>
        <pt x="229" y="37" on="1"/>
        <pt x="228" y="34" on="0"/>
        <pt x="226" y="20" on="0"/>
        <pt x="222" y="13" on="1"/>
        <pt x="210" y="-5" on="0"/>
        <pt x="183" y="-5" on="1"/>
        <pt x="-11" y="-5" on="1"/>
        <pt x="-11" y="16" on="0"/>
        <pt x="8" y="32" on="0"/>
        <pt x="34" y="39" on="0"/>
        <pt x="61" y="47" on="0"/>
        <pt x="70" y="62" on="1"/>
        <pt x="76" y="75" on="0"/>
        <pt x="95" y="111" on="0"/>
        <pt x="104" y="128" on="1"/>
        <pt x="123" y="167" on="0"/>
        <pt x="140" y="226" on="0"/>
        <pt x="178" y="325" on="0"/>
      </contour>
      <contour>
        <pt x="1010" y="46" on="1"/>
        <pt x="976" y="88" on="1"/>
        <pt x="966" y="127" on="0"/>
        <pt x="940" y="234" on="0"/>
        <pt x="911" y="350" on="0"/>
        <pt x="881" y="462" on="0"/>
        <pt x="867" y="507" on="1"/>
        <pt x="836" y="607" on="0"/>
        <pt x="819" y="607" on="1"/>
        <pt x="790" y="607" on="0"/>
        <pt x="758" y="590" on="0"/>
        <pt x="750" y="563" on="1"/>
        <pt x="750" y="545" on="0"/>
        <pt x="762" y="504" on="1"/>
        <pt x="780" y="438" on="1"/>
        <pt x="786" y="415" on="0"/>
        <pt x="790" y="396" on="1"/>
        <pt x="813" y="315" on="0"/>
        <pt x="857" y="157" on="0"/>
        <pt x="887" y="79" on="1"/>
        <pt x="903" y="42" on="0"/>
        <pt x="932" y="39" on="1"/>
        <pt x="941" y="38" on="0"/>
        <pt x="968" y="38" on="0"/>
        <pt x="1000" y="46" on="0"/>
      </contour>
      <contour>
        <pt x="413" y="620" on="1"/>
        <pt x="392" y="621" on="1"/>
        <pt x="382" y="621" on="0"/>
        <pt x="357" y="621" on="0"/>
        <pt x="335" y="620" on="0"/>
        <pt x="328" y="616" on="1"/>
        <pt x="313" y="607" on="0"/>
        <pt x="313" y="576" on="1"/>
        <pt x="313" y="562" on="1"/>
        <pt x="313" y="553" on="0"/>
        <pt x="314" y="552" on="1"/>
        <pt x="437" y="139" on="1"/>
        <pt x="439" y="129" on="0"/>
        <pt x="456" y="121" on="0"/>
        <pt x="462" y="121" on="1"/>
        <pt x="472" y="121" on="1"/>
        <pt x="486" y="135" on="0"/>
        <pt x="528" y="205" on="0"/>
        <pt x="528" y="207" on="1"/>
        <pt x="516" y="237" on="0"/>
        <pt x="490" y="337" on="1"/>
        <pt x="438" y="538" on="0"/>
      </contour>
    </TTGlyph>
    <TTGlyph name="N" xMin="50" yMin="0" xMax="785" yMax="686">
      <contour>
        <pt x="222" y="48" on="0"/>
        <pt x="243" y="38" on="0"/>
        <pt x="243" y="2" on="0"/>
        <pt x="230" y="2" on="1"/>
        <pt x="69" y="4" on="1"/>
        <pt x="57" y="4" on="0"/>
        <pt x="51" y="25" on="0"/>
        <pt x="50" y="46" on="0"/>
        <pt x="64" y="55" on="0"/>
        <pt x="83" y="60" on="0"/>
        <pt x="102" y="68" on="0"/>
        <pt x="106" y="80" on="1"/>
        <pt x="128" y="215" on="0"/>
        <pt x="138" y="453" on="1"/>
        <pt x="140" y="516" on="0"/>
        <pt x="140" y="545" on="1"/>
        <pt x="140" y="586" on="1"/>
        <pt x="140" y="598" on="0"/>
        <pt x="138" y="610" on="1"/>
        <pt x="77" y="610" on="0"/>
        <pt x="68" y="623" on="1"/>
        <pt x="57" y="640" on="0"/>
        <pt x="57" y="663" on="1"/>
        <pt x="165" y="673" on="0"/>
        <pt x="359" y="682" on="0"/>
        <pt x="378" y="682" on="1"/>
        <pt x="448" y="682" on="0"/>
        <pt x="448" y="657" on="1"/>
        <pt x="448" y="646" on="0"/>
        <pt x="406" y="624" on="0"/>
        <pt x="406" y="607" on="0"/>
        <pt x="433" y="558" on="0"/>
        <pt x="452" y="529" on="1"/>
        <pt x="492" y="465" on="0"/>
        <pt x="517" y="433" on="1"/>
        <pt x="519" y="435" on="0"/>
        <pt x="524" y="435" on="1"/>
        <pt x="555" y="435" on="0"/>
        <pt x="573" y="453" on="1"/>
        <pt x="576" y="447" on="0"/>
        <pt x="576" y="424" on="0"/>
        <pt x="568" y="413" on="0"/>
        <pt x="562" y="406" on="1"/>
        <pt x="549" y="391" on="0"/>
        <pt x="549" y="363" on="0"/>
        <pt x="551" y="363" on="1"/>
        <pt x="555" y="351" on="0"/>
        <pt x="573" y="315" on="1"/>
        <pt x="604" y="254" on="1"/>
        <pt x="616" y="229" on="0"/>
        <pt x="639" y="185" on="0"/>
        <pt x="656" y="151" on="0"/>
        <pt x="659" y="146" on="1"/>
        <pt x="668" y="186" on="0"/>
        <pt x="668" y="351" on="0"/>
        <pt x="662" y="470" on="0"/>
        <pt x="658" y="518" on="1"/>
        <pt x="650" y="628" on="0"/>
        <pt x="644" y="628" on="1"/>
        <pt x="550" y="620" on="1"/>
        <pt x="550" y="649" on="0"/>
        <pt x="570" y="671" on="0"/>
        <pt x="587" y="673" on="0"/>
        <pt x="612" y="676" on="0"/>
        <pt x="639" y="679" on="0"/>
        <pt x="650" y="680" on="1"/>
        <pt x="690" y="686" on="0"/>
        <pt x="726" y="686" on="1"/>
        <pt x="780" y="686" on="0"/>
        <pt x="783" y="677" on="1"/>
        <pt x="785" y="654" on="1"/>
        <pt x="775" y="653" on="0"/>
        <pt x="744" y="644" on="0"/>
        <pt x="733" y="642" on="1"/>
        <pt x="730" y="640" on="0"/>
        <pt x="708" y="627" on="0"/>
        <pt x="705" y="625" on="1"/>
        <pt x="704" y="617" on="0"/>
        <pt x="702" y="579" on="0"/>
        <pt x="700" y="558" on="1"/>
        <pt x="697" y="507" on="0"/>
        <pt x="697" y="493" on="1"/>
        <pt x="697" y="477" on="1"/>
        <pt x="700" y="233" on="0"/>
        <pt x="710" y="87" on="0"/>
        <pt x="710" y="76" on="1"/>
        <pt x="706" y="9" on="0"/>
        <pt x="500" y="0" on="1"/>
        <pt x="480" y="0" on="0"/>
        <pt x="461" y="15" on="0"/>
        <pt x="461" y="52" on="0"/>
        <pt x="463" y="56" on="1"/>
        <pt x="340" y="266" on="1"/>
        <pt x="276" y="261" on="1"/>
        <pt x="276" y="265" on="0"/>
        <pt x="277" y="276" on="0"/>
        <pt x="286" y="297" on="0"/>
        <pt x="306" y="311" on="0"/>
        <pt x="306" y="346" on="0"/>
        <pt x="279" y="407" on="0"/>
        <pt x="260" y="440" on="1"/>
        <pt x="222" y="510" on="0"/>
        <pt x="185" y="552" on="1"/>
        <pt x="180" y="544" on="0"/>
        <pt x="180" y="527" on="1"/>
        <pt x="180" y="509" on="1"/>
        <pt x="180" y="461" on="0"/>
        <pt x="174" y="366" on="1"/>
        <pt x="161" y="182" on="0"/>
        <pt x="161" y="141" on="1"/>
        <pt x="161" y="62" on="0"/>
        <pt x="167" y="55" on="1"/>
        <pt x="171" y="50" on="0"/>
        <pt x="195" y="50" on="0"/>
      </contour>
      <contour>
        <pt x="230" y="627" on="1"/>
        <pt x="197" y="627" on="0"/>
        <pt x="197" y="610" on="1"/>
        <pt x="197" y="603" on="0"/>
        <pt x="214" y="580" on="0"/>
        <pt x="227" y="563" on="1"/>
        <pt x="270" y="507" on="0"/>
        <pt x="289" y="472" on="0"/>
        <pt x="316" y="421" on="0"/>
        <pt x="354" y="347" on="0"/>
        <pt x="397" y="263" on="0"/>
        <pt x="417" y="224" on="1"/>
        <pt x="468" y="124" on="0"/>
        <pt x="488" y="81" on="0"/>
        <pt x="496" y="72" on="1"/>
        <pt x="517" y="49" on="0"/>
        <pt x="548" y="49" on="1"/>
        <pt x="549" y="49" on="0"/>
        <pt x="572" y="54" on="0"/>
        <pt x="587" y="57" on="1"/>
        <pt x="624" y="64" on="0"/>
        <pt x="637" y="71" on="1"/>
        <pt x="637" y="116" on="0"/>
        <pt x="552" y="287" on="1"/>
        <pt x="528" y="334" on="0"/>
        <pt x="459" y="454" on="0"/>
        <pt x="365" y="585" on="1"/>
        <pt x="335" y="623" on="0"/>
        <pt x="278" y="626" on="1"/>
        <pt x="260" y="627" on="0"/>
        <pt x="249" y="627" on="1"/>
      </contour>
    </TTGlyph>
    <TTGlyph name="Ntilde" xMin="50" yMin="0" xMax="785" yMax="847">
      <component glyphName="N" x="0" y="0" flags="0x1204"/>
      <component glyphName="tilde" x="113" y="20" flags="0x1004"/>
    </TTGlyph>
    <TTGlyph name="O" xMin="40" yMin="-29" xMax="739" yMax="696">
      <contour>
        <pt x="582" y="25" on="0"/>
        <pt x="443" y="-29" on="0"/>
        <pt x="292" y="-29" on="0"/>
        <pt x="176" y="23" on="0"/>
        <pt x="89" y="108" on="0"/>
        <pt x="40" y="218" on="0"/>
        <pt x="40" y="319" on="0"/>
        <pt x="55" y="414" on="0"/>
        <pt x="72" y="460" on="1"/>
        <pt x="130" y="626" on="0"/>
        <pt x="264" y="676" on="1"/>
        <pt x="316" y="696" on="0"/>
        <pt x="378" y="696" on="1"/>
        <pt x="572" y="696" on="0"/>
        <pt x="665" y="586" on="1"/>
        <pt x="739" y="498" on="0"/>
        <pt x="739" y="363" on="1"/>
        <pt x="739" y="182" on="0"/>
        <pt x="632" y="76" on="1"/>
      </contour>
      <contour>
        <pt x="243" y="356" on="1"/>
        <pt x="240" y="317" on="0"/>
        <pt x="240" y="255" on="0"/>
        <pt x="255" y="184" on="0"/>
        <pt x="268" y="148" on="1"/>
        <pt x="292" y="77" on="0"/>
        <pt x="337" y="13" on="1"/>
        <pt x="343" y="-1" on="0"/>
        <pt x="406" y="8" on="1"/>
        <pt x="480" y="19" on="0"/>
        <pt x="496" y="74" on="1"/>
        <pt x="507" y="116" on="0"/>
        <pt x="528" y="175" on="0"/>
        <pt x="536" y="201" on="1"/>
        <pt x="554" y="260" on="0"/>
        <pt x="554" y="344" on="0"/>
        <pt x="548" y="410" on="0"/>
        <pt x="534" y="483" on="0"/>
        <pt x="511" y="557" on="0"/>
        <pt x="494" y="586" on="1"/>
        <pt x="454" y="653" on="0"/>
        <pt x="399" y="653" on="1"/>
        <pt x="341" y="653" on="0"/>
        <pt x="301" y="584" on="1"/>
        <pt x="255" y="506" on="0"/>
      </contour>
      <contour>
        <pt x="274" y="28" on="1"/>
        <pt x="275" y="32" on="1"/>
        <pt x="190" y="197" on="0"/>
        <pt x="190" y="304" on="1"/>
        <pt x="190" y="418" on="0"/>
        <pt x="269" y="630" on="1"/>
        <pt x="142" y="607" on="0"/>
        <pt x="104" y="405" on="1"/>
        <pt x="93" y="343" on="0"/>
        <pt x="93" y="261" on="0"/>
        <pt x="114" y="173" on="0"/>
        <pt x="136" y="132" on="1"/>
        <pt x="190" y="37" on="0"/>
      </contour>
      <contour>
        <pt x="508" y="642" on="1"/>
        <pt x="602" y="529" on="0"/>
        <pt x="602" y="337" on="1"/>
        <pt x="602" y="264" on="0"/>
        <pt x="548" y="106" on="1"/>
        <pt x="535" y="68" on="0"/>
        <pt x="526" y="40" on="1"/>
        <pt x="609" y="86" on="0"/>
        <pt x="693" y="259" on="0"/>
        <pt x="693" y="378" on="1"/>
        <pt x="693" y="459" on="0"/>
        <pt x="638" y="536" on="1"/>
        <pt x="587" y="608" on="0"/>
      </contour>
    </TTGlyph>
    <TTGlyph name="OE" xMin="46" yMin="7" xMax="812" yMax="703">
      <contour>
        <pt x="712" y="73" on="1"/>
        <pt x="682" y="72" on="1"/>
        <pt x="636" y="66" on="0"/>
        <pt x="590" y="58" on="1"/>
        <pt x="501" y="43" on="0"/>
        <pt x="482" y="39" on="0"/>
        <pt x="465" y="30" on="0"/>
        <pt x="456" y="25" on="1"/>
        <pt x="432" y="12" on="0"/>
        <pt x="428" y="7" on="1"/>
        <pt x="229" y="7" on="1"/>
        <pt x="218" y="14" on="0"/>
        <pt x="208" y="20" on="1"/>
        <pt x="108" y="75" on="0"/>
        <pt x="74" y="136" on="1"/>
        <pt x="46" y="188" on="0"/>
        <pt x="46" y="286" on="1"/>
        <pt x="46" y="472" on="0"/>
        <pt x="159" y="585" on="1"/>
        <pt x="196" y="622" on="0"/>
        <pt x="244" y="646" on="1"/>
        <pt x="264" y="657" on="0"/>
        <pt x="284" y="663" on="0"/>
        <pt x="301" y="663" on="1"/>
        <pt x="315" y="662" on="1"/>
        <pt x="363" y="650" on="0"/>
        <pt x="423" y="630" on="0"/>
        <pt x="438" y="627" on="0"/>
        <pt x="484" y="622" on="0"/>
        <pt x="533" y="618" on="0"/>
        <pt x="576" y="614" on="0"/>
        <pt x="588" y="614" on="0"/>
        <pt x="609" y="618" on="0"/>
        <pt x="620" y="620" on="1"/>
        <pt x="648" y="625" on="0"/>
        <pt x="654" y="629" on="1"/>
        <pt x="660" y="633" on="0"/>
        <pt x="676" y="653" on="1"/>
        <pt x="707" y="694" on="0"/>
        <pt x="710" y="695" on="1"/>
        <pt x="720" y="703" on="0"/>
        <pt x="727" y="703" on="1"/>
        <pt x="727" y="682" on="0"/>
        <pt x="714" y="644" on="1"/>
        <pt x="690" y="573" on="0"/>
        <pt x="682" y="573" on="1"/>
        <pt x="498" y="573" on="1"/>
        <pt x="583" y="385" on="1"/>
        <pt x="597" y="384" on="1"/>
        <pt x="614" y="384" on="0"/>
        <pt x="637" y="402" on="0"/>
        <pt x="658" y="423" on="0"/>
        <pt x="680" y="441" on="0"/>
        <pt x="697" y="441" on="1"/>
        <pt x="696" y="418" on="1"/>
        <pt x="693" y="386" on="0"/>
        <pt x="682" y="321" on="0"/>
        <pt x="681" y="315" on="0"/>
        <pt x="670" y="304" on="0"/>
        <pt x="668" y="304" on="1"/>
        <pt x="647" y="332" on="0"/>
        <pt x="640" y="336" on="1"/>
        <pt x="627" y="336" on="1"/>
        <pt x="583" y="320" on="1"/>
        <pt x="583" y="281" on="0"/>
        <pt x="569" y="155" on="1"/>
        <pt x="569" y="148" on="0"/>
        <pt x="555" y="106" on="1"/>
        <pt x="590" y="105" on="1"/>
        <pt x="632" y="105" on="1"/>
        <pt x="710" y="105" on="0"/>
        <pt x="753" y="138" on="1"/>
        <pt x="763" y="147" on="0"/>
        <pt x="772" y="167" on="0"/>
        <pt x="776" y="176" on="1"/>
        <pt x="785" y="197" on="0"/>
        <pt x="812" y="197" on="1"/>
        <pt x="812" y="175" on="0"/>
        <pt x="798" y="133" on="1"/>
        <pt x="773" y="55" on="0"/>
        <pt x="761" y="55" on="1"/>
        <pt x="752" y="55" on="0"/>
        <pt x="745" y="61" on="1"/>
        <pt x="731" y="73" on="0"/>
      </contour>
      <contour>
        <pt x="329" y="596" on="1"/>
        <pt x="329" y="601" on="0"/>
        <pt x="284" y="601" on="0"/>
        <pt x="250" y="555" on="0"/>
        <pt x="240" y="522" on="1"/>
        <pt x="220" y="463" on="0"/>
        <pt x="212" y="366" on="1"/>
        <pt x="210" y="342" on="0"/>
        <pt x="208" y="318" on="1"/>
        <pt x="202" y="267" on="0"/>
        <pt x="202" y="246" on="0"/>
        <pt x="205" y="207" on="0"/>
        <pt x="210" y="165" on="0"/>
        <pt x="214" y="128" on="0"/>
        <pt x="215" y="122" on="1"/>
        <pt x="217" y="122" on="0"/>
        <pt x="241" y="77" on="0"/>
        <pt x="244" y="72" on="1"/>
        <pt x="249" y="67" on="0"/>
        <pt x="252" y="63" on="1"/>
        <pt x="255" y="59" on="0"/>
        <pt x="258" y="56" on="1"/>
        <pt x="371" y="56" on="1"/>
        <pt x="374" y="56" on="0"/>
        <pt x="386" y="70" on="1"/>
        <pt x="406" y="92" on="0"/>
        <pt x="423" y="124" on="0"/>
        <pt x="435" y="176" on="0"/>
        <pt x="438" y="204" on="1"/>
        <pt x="443" y="252" on="0"/>
        <pt x="443" y="310" on="1"/>
        <pt x="443" y="453" on="0"/>
        <pt x="385" y="532" on="1"/>
        <pt x="367" y="559" on="0"/>
        <pt x="331" y="595" on="0"/>
      </contour>
      <contour>
        <pt x="442" y="565" on="1"/>
        <pt x="442" y="566" on="0"/>
        <pt x="438" y="566" on="1"/>
        <pt x="431" y="566" on="1"/>
        <pt x="429" y="566" on="0"/>
        <pt x="428" y="565" on="1"/>
        <pt x="456" y="492" on="0"/>
        <pt x="463" y="448" on="1"/>
        <pt x="472" y="382" on="0"/>
        <pt x="472" y="332" on="1"/>
        <pt x="472" y="262" on="1"/>
        <pt x="471" y="188" on="1"/>
        <pt x="471" y="171" on="1"/>
        <pt x="457" y="106" on="1"/>
        <pt x="456" y="90" on="1"/>
        <pt x="456" y="88" on="0"/>
        <pt x="457" y="75" on="0"/>
        <pt x="457" y="72" on="1"/>
        <pt x="461" y="77" on="0"/>
        <pt x="482" y="100" on="0"/>
        <pt x="493" y="113" on="1"/>
        <pt x="523" y="149" on="0"/>
        <pt x="534" y="165" on="0"/>
        <pt x="540" y="192" on="0"/>
        <pt x="542" y="221" on="0"/>
        <pt x="542" y="234" on="1"/>
        <pt x="542" y="260" on="1"/>
        <pt x="542" y="359" on="0"/>
        <pt x="513" y="468" on="0"/>
        <pt x="473" y="538" on="0"/>
      </contour>
      <contour>
        <pt x="202" y="549" on="1"/>
        <pt x="195" y="550" on="1"/>
        <pt x="186" y="550" on="0"/>
        <pt x="179" y="542" on="0"/>
        <pt x="153" y="497" on="0"/>
        <pt x="120" y="438" on="0"/>
        <pt x="109" y="407" on="1"/>
        <pt x="87" y="345" on="0"/>
        <pt x="87" y="215" on="0"/>
        <pt x="124" y="137" on="0"/>
        <pt x="160" y="106" on="1"/>
        <pt x="165" y="101" on="0"/>
        <pt x="171" y="101" on="1"/>
        <pt x="171" y="213" on="0"/>
        <pt x="181" y="440" on="0"/>
      </contour>
    </TTGlyph>
    <TTGlyph name="Oacute" xMin="40" yMin="-29" xMax="739" yMax="815">
      <component glyphName="O" x="0" y="0" flags="0x1204"/>
      <component glyphName="acute" x="279" y="46" flags="0x1004"/>
    </TTGlyph>
    <TTGlyph name="Ocircumflex" xMin="40" yMin="-29" xMax="739" yMax="834">
      <component glyphName="O" x="0" y="0" flags="0x1204"/>
      <component glyphName="circumflex" x="171" y="46" flags="0x1004"/>
    </TTGlyph>
    <TTGlyph name="Odieresis" xMin="40" yMin="-29" xMax="739" yMax="827">
      <component glyphName="O" x="0" y="0" flags="0x1204"/>
      <component glyphName="dieresis" x="103" y="29" flags="0x1004"/>
    </TTGlyph>
    <TTGlyph name="Ograve" xMin="40" yMin="-29" xMax="739" yMax="815">
      <component glyphName="O" x="0" y="0" flags="0x1204"/>
      <component glyphName="grave" x="234" y="46" flags="0x1004"/>
    </TTGlyph>
    <TTGlyph name="Oslash" xMin="-15" yMin="12" xMax="837" yMax="701">
      <contour>
        <pt x="837" y="633" on="1"/>
        <pt x="835" y="621" on="1"/>
        <pt x="711" y="521" on="1"/>
        <pt x="711" y="489" on="0"/>
        <pt x="719" y="429" on="0"/>
        <pt x="719" y="410" on="1"/>
        <pt x="719" y="382" on="1"/>
        <pt x="718" y="348" on="1"/>
        <pt x="718" y="341" on="1"/>
        <pt x="668" y="179" on="1"/>
        <pt x="666" y="173" on="0"/>
        <pt x="652" y="153" on="1"/>
        <pt x="631" y="122" on="1"/>
        <pt x="590" y="64" on="0"/>
        <pt x="472" y="12" on="0"/>
        <pt x="380" y="12" on="0"/>
        <pt x="302" y="22" on="0"/>
        <pt x="265" y="34" on="1"/>
        <pt x="180" y="61" on="0"/>
        <pt x="142" y="118" on="1"/>
        <pt x="18" y="12" on="1"/>
        <pt x="7" y="12" on="1"/>
        <pt x="-7" y="12" on="0"/>
        <pt x="-15" y="19" on="0"/>
        <pt x="-15" y="33" on="1"/>
        <pt x="-15" y="40" on="1"/>
        <pt x="-15" y="42" on="0"/>
        <pt x="-14" y="44" on="1"/>
        <pt x="110" y="162" on="1"/>
        <pt x="111" y="162" on="0"/>
        <pt x="111" y="166" on="1"/>
        <pt x="111" y="171" on="1"/>
        <pt x="111" y="198" on="0"/>
        <pt x="102" y="228" on="1"/>
        <pt x="84" y="283" on="0"/>
        <pt x="84" y="310" on="1"/>
        <pt x="84" y="378" on="0"/>
        <pt x="98" y="409" on="1"/>
        <pt x="178" y="589" on="1"/>
        <pt x="202" y="628" on="0"/>
        <pt x="266" y="664" on="1"/>
        <pt x="334" y="701" on="0"/>
        <pt x="393" y="701" on="1"/>
        <pt x="411" y="701" on="0"/>
        <pt x="411" y="692" on="1"/>
        <pt x="409" y="671" on="1"/>
        <pt x="493" y="677" on="1"/>
        <pt x="504" y="677" on="1"/>
        <pt x="527" y="676" on="1"/>
        <pt x="532" y="676" on="1"/>
        <pt x="571" y="666" on="0"/>
        <pt x="616" y="647" on="0"/>
        <pt x="618" y="645" on="1"/>
        <pt x="687" y="564" on="1"/>
        <pt x="811" y="657" on="1"/>
        <pt x="815" y="657" on="1"/>
        <pt x="819" y="658" on="1"/>
        <pt x="833" y="658" on="0"/>
        <pt x="837" y="646" on="0"/>
      </contour>
      <contour>
        <pt x="401" y="48" on="1"/>
        <pt x="426" y="49" on="1"/>
        <pt x="473" y="49" on="0"/>
        <pt x="536" y="88" on="1"/>
        <pt x="600" y="129" on="0"/>
        <pt x="618" y="174" on="1"/>
        <pt x="675" y="322" on="1"/>
        <pt x="675" y="485" on="1"/>
        <pt x="663" y="485" on="0"/>
        <pt x="656" y="478" on="1"/>
        <pt x="284" y="174" on="1"/>
        <pt x="334" y="74" on="1"/>
        <pt x="346" y="48" on="0"/>
      </contour>
      <contour>
        <pt x="129" y="354" on="1"/>
        <pt x="127" y="322" on="1"/>
        <pt x="127" y="312" on="1"/>
        <pt x="127" y="207" on="0"/>
        <pt x="165" y="144" on="1"/>
        <pt x="180" y="119" on="0"/>
        <pt x="203" y="105" on="1"/>
        <pt x="209" y="102" on="0"/>
        <pt x="230" y="91" on="0"/>
        <pt x="241" y="86" on="1"/>
        <pt x="267" y="74" on="0"/>
        <pt x="271" y="74" on="1"/>
        <pt x="286" y="74" on="1"/>
        <pt x="228" y="211" on="1"/>
        <pt x="226" y="228" on="0"/>
        <pt x="224" y="247" on="0"/>
        <pt x="222" y="265" on="0"/>
        <pt x="222" y="267" on="1"/>
        <pt x="284" y="558" on="1"/>
        <pt x="290" y="593" on="0"/>
        <pt x="323" y="613" on="1"/>
        <pt x="336" y="621" on="0"/>
        <pt x="362" y="637" on="0"/>
        <pt x="371" y="651" on="1"/>
        <pt x="336" y="651" on="0"/>
        <pt x="265" y="613" on="0"/>
        <pt x="236" y="584" on="0"/>
        <pt x="219" y="565" on="0"/>
        <pt x="212" y="556" on="1"/>
        <pt x="194" y="534" on="0"/>
        <pt x="191" y="527" on="1"/>
      </contour>
      <contour>
        <pt x="504" y="632" on="1"/>
        <pt x="499" y="633" on="1"/>
        <pt x="424" y="633" on="0"/>
        <pt x="395" y="602" on="1"/>
        <pt x="388" y="594" on="0"/>
        <pt x="365" y="567" on="0"/>
        <pt x="354" y="554" on="1"/>
        <pt x="327" y="524" on="0"/>
        <pt x="327" y="521" on="1"/>
        <pt x="265" y="291" on="1"/>
        <pt x="265" y="224" on="1"/>
        <pt x="650" y="533" on="1"/>
        <pt x="650" y="535" on="1"/>
        <pt x="651" y="539" on="1"/>
        <pt x="651" y="547" on="0"/>
        <pt x="636" y="565" on="1"/>
        <pt x="610" y="598" on="0"/>
        <pt x="600" y="602" on="1"/>
        <pt x="507" y="632" on="1"/>
      </contour>
    </TTGlyph>
    <TTGlyph name="Otilde" xMin="40" yMin="-29" xMax="739" yMax="856">
      <component glyphName="O" x="0" y="0" flags="0x1204"/>
      <component glyphName="tilde" x="79" y="29" flags="0x1004"/>
    </TTGlyph>
    <TTGlyph name="P" xMin="22" yMin="-12" xMax="629" yMax="682">
      <contour>
        <pt x="73" y="-12" on="1"/>
        <pt x="61" y="-12" on="0"/>
        <pt x="61" y="26" on="0"/>
        <pt x="80" y="26" on="1"/>
        <pt x="80" y="26" on="0"/>
        <pt x="137" y="21" on="1"/>
        <pt x="137" y="357" on="1"/>
        <pt x="105" y="353" on="1"/>
        <pt x="85" y="353" on="0"/>
        <pt x="85" y="372" on="1"/>
        <pt x="85" y="379" on="0"/>
        <pt x="128" y="390" on="0"/>
        <pt x="133" y="390" on="1"/>
        <pt x="133" y="572" on="0"/>
        <pt x="96" y="628" on="1"/>
        <pt x="86" y="643" on="0"/>
        <pt x="72" y="643" on="1"/>
        <pt x="43" y="641" on="1"/>
        <pt x="22" y="641" on="0"/>
        <pt x="22" y="660" on="1"/>
        <pt x="22" y="673" on="0"/>
        <pt x="36" y="679" on="1"/>
        <pt x="80" y="682" on="0"/>
        <pt x="118" y="682" on="1"/>
        <pt x="207" y="682" on="1"/>
        <pt x="454" y="682" on="0"/>
        <pt x="568" y="602" on="1"/>
        <pt x="629" y="559" on="0"/>
        <pt x="629" y="479" on="1"/>
        <pt x="629" y="419" on="0"/>
        <pt x="595" y="369" on="1"/>
        <pt x="580" y="347" on="0"/>
        <pt x="524" y="308" on="0"/>
        <pt x="453" y="287" on="0"/>
        <pt x="419" y="283" on="1"/>
        <pt x="377" y="278" on="0"/>
        <pt x="313" y="278" on="1"/>
        <pt x="313" y="38" on="1"/>
        <pt x="325" y="26" on="1"/>
        <pt x="330" y="27" on="0"/>
        <pt x="342" y="27" on="1"/>
        <pt x="369" y="27" on="1"/>
        <pt x="409" y="27" on="0"/>
        <pt x="420" y="24" on="1"/>
        <pt x="437" y="19" on="0"/>
        <pt x="451" y="1" on="1"/>
        <pt x="438" y="-12" on="1"/>
      </contour>
      <contour>
        <pt x="148" y="642" on="1"/>
        <pt x="148" y="623" on="0"/>
        <pt x="150" y="617" on="1"/>
        <pt x="150" y="587" on="0"/>
        <pt x="161" y="436" on="0"/>
        <pt x="163" y="416" on="0"/>
        <pt x="165" y="356" on="0"/>
        <pt x="167" y="277" on="0"/>
        <pt x="170" y="189" on="0"/>
        <pt x="172" y="150" on="1"/>
        <pt x="174" y="85" on="0"/>
        <pt x="174" y="38" on="1"/>
        <pt x="176" y="38" on="0"/>
        <pt x="198" y="34" on="0"/>
        <pt x="224" y="30" on="0"/>
        <pt x="245" y="27" on="0"/>
        <pt x="258" y="26" on="0"/>
        <pt x="270" y="46" on="0"/>
        <pt x="273" y="62" on="1"/>
        <pt x="277" y="82" on="0"/>
        <pt x="277" y="134" on="1"/>
        <pt x="275" y="290" on="1"/>
        <pt x="273" y="316" on="0"/>
        <pt x="268" y="388" on="0"/>
        <pt x="262" y="467" on="0"/>
        <pt x="254" y="543" on="0"/>
        <pt x="250" y="574" on="1"/>
        <pt x="243" y="642" on="0"/>
        <pt x="238" y="642" on="1"/>
      </contour>
      <contour>
        <pt x="372" y="324" on="1"/>
        <pt x="412" y="325" on="1"/>
        <pt x="465" y="327" on="0"/>
        <pt x="484" y="380" on="1"/>
        <pt x="497" y="413" on="0"/>
        <pt x="497" y="504" on="0"/>
        <pt x="490" y="550" on="0"/>
        <pt x="480" y="569" on="1"/>
        <pt x="453" y="620" on="0"/>
        <pt x="366" y="635" on="1"/>
        <pt x="319" y="643" on="0"/>
        <pt x="286" y="643" on="1"/>
        <pt x="286" y="488" on="0"/>
        <pt x="304" y="386" on="1"/>
        <pt x="309" y="354" on="0"/>
        <pt x="320" y="330" on="0"/>
        <pt x="342" y="324" on="0"/>
      </contour>
      <contour>
        <pt x="513" y="586" on="1"/>
        <pt x="530" y="554" on="0"/>
        <pt x="539" y="501" on="0"/>
        <pt x="539" y="439" on="0"/>
        <pt x="525" y="370" on="0"/>
        <pt x="498" y="343" on="1"/>
        <pt x="530" y="348" on="0"/>
        <pt x="556" y="379" on="1"/>
        <pt x="588" y="418" on="0"/>
        <pt x="588" y="473" on="1"/>
        <pt x="588" y="526" on="0"/>
        <pt x="560" y="560" on="1"/>
        <pt x="537" y="586" on="0"/>
      </contour>
    </TTGlyph>
    <TTGlyph name="Q" xMin="11" yMin="-81" xMax="829" yMax="725">
      <contour>
        <pt x="448" y="679" on="1"/>
        <pt x="480" y="680" on="1"/>
        <pt x="553" y="680" on="0"/>
        <pt x="647" y="610" on="1"/>
        <pt x="715" y="560" on="0"/>
        <pt x="720" y="431" on="1"/>
        <pt x="722" y="397" on="0"/>
        <pt x="722" y="333" on="0"/>
        <pt x="710" y="245" on="0"/>
        <pt x="698" y="200" on="1"/>
        <pt x="672" y="98" on="0"/>
        <pt x="635" y="50" on="1"/>
        <pt x="627" y="46" on="0"/>
        <pt x="627" y="27" on="0"/>
        <pt x="649" y="0" on="0"/>
        <pt x="665" y="-12" on="1"/>
        <pt x="703" y="-42" on="0"/>
        <pt x="740" y="-42" on="0"/>
        <pt x="763" y="-29" on="0"/>
        <pt x="772" y="-18" on="1"/>
        <pt x="789" y="3" on="0"/>
        <pt x="789" y="32" on="1"/>
        <pt x="789" y="47" on="0"/>
        <pt x="778" y="64" on="1"/>
        <pt x="756" y="96" on="0"/>
        <pt x="756" y="108" on="1"/>
        <pt x="756" y="109" on="0"/>
        <pt x="765" y="125" on="0"/>
        <pt x="786" y="122" on="0"/>
        <pt x="808" y="102" on="0"/>
        <pt x="815" y="88" on="1"/>
        <pt x="829" y="58" on="0"/>
        <pt x="829" y="7" on="0"/>
        <pt x="813" y="-32" on="0"/>
        <pt x="798" y="-48" on="1"/>
        <pt x="767" y="-81" on="0"/>
        <pt x="716" y="-81" on="1"/>
        <pt x="687" y="-81" on="0"/>
        <pt x="642" y="-53" on="0"/>
        <pt x="602" y="-21" on="0"/>
        <pt x="573" y="2" on="1"/>
        <pt x="572" y="2" on="1"/>
        <pt x="571" y="2" on="0"/>
        <pt x="569" y="3" on="0"/>
        <pt x="569" y="2" on="0"/>
        <pt x="568" y="2" on="1"/>
        <pt x="567" y="2" on="1"/>
        <pt x="446" y="-60" on="0"/>
        <pt x="364" y="-60" on="1"/>
        <pt x="310" y="-60" on="0"/>
        <pt x="241" y="-22" on="1"/>
        <pt x="118" y="44" on="0"/>
        <pt x="74" y="174" on="1"/>
        <pt x="58" y="221" on="0"/>
        <pt x="58" y="278" on="1"/>
        <pt x="58" y="292" on="0"/>
        <pt x="60" y="308" on="1"/>
        <pt x="58" y="309" on="0"/>
        <pt x="42" y="314" on="0"/>
        <pt x="34" y="318" on="1"/>
        <pt x="11" y="327" on="0"/>
        <pt x="11" y="347" on="0"/>
        <pt x="27" y="356" on="0"/>
        <pt x="36" y="358" on="1"/>
        <pt x="50" y="362" on="0"/>
        <pt x="67" y="362" on="1"/>
        <pt x="93" y="516" on="0"/>
        <pt x="187" y="632" on="1"/>
        <pt x="263" y="725" on="0"/>
        <pt x="338" y="725" on="1"/>
        <pt x="379" y="725" on="0"/>
        <pt x="421" y="704" on="1"/>
        <pt x="426" y="702" on="0"/>
        <pt x="430" y="693" on="0"/>
        <pt x="432" y="689" on="1"/>
        <pt x="437" y="679" on="0"/>
      </contour>
      <contour>
        <pt x="256" y="275" on="1"/>
        <pt x="256" y="178" on="0"/>
        <pt x="278" y="74" on="1"/>
        <pt x="293" y="41" on="0"/>
        <pt x="315" y="20" on="1"/>
        <pt x="356" y="-19" on="0"/>
        <pt x="389" y="-19" on="1"/>
        <pt x="419" y="-19" on="0"/>
        <pt x="460" y="-5" on="1"/>
        <pt x="539" y="22" on="0"/>
        <pt x="539" y="42" on="1"/>
        <pt x="539" y="66" on="0"/>
        <pt x="502" y="96" on="1"/>
        <pt x="469" y="124" on="0"/>
        <pt x="450" y="124" on="1"/>
        <pt x="438" y="124" on="0"/>
        <pt x="428" y="114" on="1"/>
        <pt x="408" y="94" on="0"/>
        <pt x="383" y="94" on="0"/>
        <pt x="368" y="112" on="0"/>
        <pt x="368" y="124" on="1"/>
        <pt x="368" y="147" on="0"/>
        <pt x="412" y="173" on="0"/>
        <pt x="461" y="173" on="0"/>
        <pt x="501" y="159" on="0"/>
        <pt x="518" y="146" on="1"/>
        <pt x="542" y="127" on="0"/>
        <pt x="587" y="77" on="0"/>
        <pt x="589" y="76" on="0"/>
        <pt x="590" y="76" on="1"/>
        <pt x="626" y="76" on="0"/>
        <pt x="666" y="260" on="1"/>
        <pt x="680" y="321" on="0"/>
        <pt x="680" y="341" on="1"/>
        <pt x="680" y="483" on="0"/>
        <pt x="636" y="550" on="1"/>
        <pt x="588" y="624" on="0"/>
        <pt x="481" y="624" on="1"/>
        <pt x="408" y="624" on="0"/>
        <pt x="353" y="562" on="1"/>
        <pt x="284" y="484" on="0"/>
        <pt x="262" y="346" on="1"/>
        <pt x="256" y="307" on="0"/>
      </contour>
      <contour>
        <pt x="149" y="483" on="0"/>
        <pt x="115" y="337" on="0"/>
        <pt x="115" y="204" on="0"/>
        <pt x="150" y="114" on="0"/>
        <pt x="199" y="50" on="0"/>
        <pt x="252" y="11" on="0"/>
        <pt x="271" y="4" on="1"/>
        <pt x="227" y="56" on="0"/>
        <pt x="214" y="198" on="1"/>
        <pt x="211" y="238" on="0"/>
        <pt x="211" y="339" on="0"/>
        <pt x="232" y="444" on="0"/>
        <pt x="254" y="490" on="1"/>
        <pt x="297" y="580" on="0"/>
        <pt x="396" y="651" on="1"/>
        <pt x="365" y="671" on="0"/>
        <pt x="338" y="671" on="1"/>
        <pt x="291" y="671" on="0"/>
        <pt x="209" y="599" on="0"/>
      </contour>
    </TTGlyph>
    <TTGlyph name="R" xMin="26" yMin="-42" xMax="764" yMax="661">
      <contour>
        <pt x="613" y="67" on="1"/>
        <pt x="614" y="86" on="1"/>
        <pt x="614" y="132" on="0"/>
        <pt x="606" y="153" on="1"/>
        <pt x="586" y="210" on="0"/>
        <pt x="528" y="232" on="1"/>
        <pt x="514" y="237" on="0"/>
        <pt x="501" y="237" on="1"/>
        <pt x="474" y="231" on="0"/>
        <pt x="442" y="222" on="1"/>
        <pt x="411" y="213" on="1"/>
        <pt x="405" y="207" on="1"/>
        <pt x="417" y="21" on="1"/>
        <pt x="448" y="21" on="1"/>
        <pt x="466" y="21" on="0"/>
        <pt x="498" y="18" on="0"/>
        <pt x="498" y="4" on="1"/>
        <pt x="498" y="-24" on="0"/>
        <pt x="367" y="-24" on="0"/>
        <pt x="232" y="-9" on="0"/>
        <pt x="163" y="-9" on="1"/>
        <pt x="132" y="-10" on="1"/>
        <pt x="119" y="-4" on="0"/>
        <pt x="119" y="23" on="0"/>
        <pt x="141" y="32" on="0"/>
        <pt x="172" y="34" on="0"/>
        <pt x="203" y="34" on="0"/>
        <pt x="212" y="39" on="1"/>
        <pt x="213" y="77" on="1"/>
        <pt x="213" y="342" on="0"/>
        <pt x="188" y="579" on="1"/>
        <pt x="187" y="581" on="0"/>
        <pt x="183" y="595" on="0"/>
        <pt x="182" y="597" on="1"/>
        <pt x="179" y="598" on="1"/>
        <pt x="158" y="598" on="0"/>
        <pt x="110" y="536" on="1"/>
        <pt x="98" y="519" on="0"/>
        <pt x="86" y="502" on="1"/>
        <pt x="70" y="479" on="0"/>
        <pt x="70" y="393" on="0"/>
        <pt x="73" y="353" on="0"/>
        <pt x="78" y="336" on="1"/>
        <pt x="88" y="307" on="0"/>
        <pt x="127" y="272" on="1"/>
        <pt x="127" y="259" on="0"/>
        <pt x="101" y="250" on="1"/>
        <pt x="63" y="250" on="0"/>
        <pt x="42" y="315" on="1"/>
        <pt x="26" y="362" on="0"/>
        <pt x="26" y="474" on="0"/>
        <pt x="80" y="591" on="0"/>
        <pt x="138" y="629" on="1"/>
        <pt x="202" y="661" on="0"/>
        <pt x="294" y="661" on="1"/>
        <pt x="437" y="661" on="0"/>
        <pt x="524" y="618" on="1"/>
        <pt x="576" y="592" on="0"/>
        <pt x="646" y="495" on="0"/>
        <pt x="646" y="414" on="1"/>
        <pt x="646" y="411" on="0"/>
        <pt x="644" y="398" on="0"/>
        <pt x="643" y="392" on="1"/>
        <pt x="640" y="372" on="0"/>
        <pt x="640" y="374" on="1"/>
        <pt x="572" y="269" on="1"/>
        <pt x="572" y="262" on="1"/>
        <pt x="666" y="228" on="0"/>
        <pt x="666" y="62" on="1"/>
        <pt x="665" y="27" on="1"/>
        <pt x="684" y="8" on="0"/>
        <pt x="687" y="8" on="1"/>
        <pt x="694" y="14" on="0"/>
        <pt x="707" y="30" on="0"/>
        <pt x="714" y="36" on="1"/>
        <pt x="734" y="53" on="0"/>
        <pt x="755" y="53" on="0"/>
        <pt x="764" y="52" on="0"/>
        <pt x="764" y="31" on="0"/>
        <pt x="754" y="1" on="0"/>
        <pt x="745" y="-12" on="1"/>
        <pt x="724" y="-42" on="0"/>
        <pt x="695" y="-42" on="1"/>
        <pt x="678" y="-42" on="0"/>
        <pt x="657" y="-30" on="0"/>
        <pt x="622" y="-2" on="0"/>
        <pt x="613" y="41" on="0"/>
      </contour>
      <contour>
        <pt x="231" y="616" on="1"/>
        <pt x="229" y="545" on="1"/>
        <pt x="229" y="520" on="1"/>
        <pt x="229" y="317" on="0"/>
        <pt x="256" y="58" on="1"/>
        <pt x="263" y="54" on="0"/>
        <pt x="269" y="39" on="1"/>
        <pt x="330" y="32" on="0"/>
        <pt x="377" y="32" on="1"/>
        <pt x="374" y="121" on="1"/>
        <pt x="368" y="145" on="1"/>
        <pt x="362" y="232" on="0"/>
        <pt x="360" y="405" on="0"/>
        <pt x="347" y="507" on="0"/>
        <pt x="341" y="551" on="0"/>
        <pt x="335" y="592" on="0"/>
        <pt x="332" y="607" on="1"/>
        <pt x="330" y="622" on="1"/>
        <pt x="244" y="622" on="1"/>
      </contour>
      <contour>
        <pt x="379" y="616" on="1"/>
        <pt x="380" y="597" on="1"/>
        <pt x="386" y="519" on="0"/>
        <pt x="392" y="359" on="0"/>
        <pt x="405" y="281" on="1"/>
        <pt x="408" y="274" on="0"/>
        <pt x="417" y="274" on="1"/>
        <pt x="563" y="274" on="0"/>
        <pt x="603" y="405" on="1"/>
        <pt x="603" y="491" on="0"/>
        <pt x="552" y="543" on="1"/>
        <pt x="535" y="561" on="0"/>
        <pt x="499" y="577" on="0"/>
        <pt x="462" y="592" on="0"/>
        <pt x="444" y="599" on="1"/>
        <pt x="402" y="616" on="0"/>
        <pt x="399" y="616" on="1"/>
      </contour>
    </TTGlyph>
    <TTGlyph name="S" xMin="44" yMin="-40" xMax="571" yMax="675">
      <contour>
        <pt x="571" y="478" on="1"/>
        <pt x="571" y="462" on="0"/>
        <pt x="534" y="462" on="1"/>
        <pt x="528" y="462" on="0"/>
        <pt x="500" y="487" on="0"/>
        <pt x="459" y="525" on="0"/>
        <pt x="410" y="568" on="0"/>
        <pt x="384" y="587" on="1"/>
        <pt x="324" y="631" on="0"/>
        <pt x="286" y="631" on="1"/>
        <pt x="198" y="631" on="0"/>
        <pt x="166" y="586" on="1"/>
        <pt x="154" y="569" on="0"/>
        <pt x="154" y="528" on="0"/>
        <pt x="176" y="493" on="0"/>
        <pt x="203" y="473" on="1"/>
        <pt x="261" y="430" on="0"/>
        <pt x="392" y="385" on="1"/>
        <pt x="394" y="387" on="0"/>
        <pt x="406" y="404" on="0"/>
        <pt x="413" y="414" on="1"/>
        <pt x="431" y="438" on="0"/>
        <pt x="445" y="438" on="0"/>
        <pt x="454" y="427" on="0"/>
        <pt x="454" y="417" on="0"/>
        <pt x="449" y="405" on="0"/>
        <pt x="445" y="398" on="1"/>
        <pt x="434" y="379" on="0"/>
        <pt x="433" y="374" on="1"/>
        <pt x="506" y="323" on="0"/>
        <pt x="532" y="285" on="1"/>
        <pt x="563" y="240" on="0"/>
        <pt x="563" y="171" on="1"/>
        <pt x="563" y="84" on="0"/>
        <pt x="491" y="23" on="1"/>
        <pt x="417" y="-40" on="0"/>
        <pt x="304" y="-40" on="1"/>
        <pt x="248" y="-40" on="0"/>
        <pt x="139" y="-3" on="0"/>
        <pt x="105" y="41" on="1"/>
        <pt x="103" y="42" on="1"/>
        <pt x="101" y="42" on="0"/>
        <pt x="93" y="37" on="0"/>
        <pt x="93" y="35" on="1"/>
        <pt x="79" y="-33" on="1"/>
        <pt x="78" y="-40" on="0"/>
        <pt x="57" y="-40" on="0"/>
        <pt x="50" y="-35" on="0"/>
        <pt x="45" y="-27" on="1"/>
        <pt x="44" y="13" on="1"/>
        <pt x="44" y="61" on="0"/>
        <pt x="52" y="153" on="1"/>
        <pt x="57" y="167" on="0"/>
        <pt x="91" y="167" on="0"/>
        <pt x="115" y="136" on="0"/>
        <pt x="137" y="94" on="0"/>
        <pt x="159" y="52" on="0"/>
        <pt x="174" y="41" on="1"/>
        <pt x="183" y="32" on="0"/>
        <pt x="214" y="20" on="1"/>
        <pt x="280" y="-7" on="0"/>
        <pt x="324" y="-7" on="1"/>
        <pt x="377" y="-7" on="0"/>
        <pt x="410" y="28" on="1"/>
        <pt x="441" y="61" on="0"/>
        <pt x="441" y="113" on="1"/>
        <pt x="441" y="146" on="0"/>
        <pt x="386" y="188" on="1"/>
        <pt x="333" y="228" on="0"/>
        <pt x="294" y="228" on="1"/>
        <pt x="287" y="228" on="0"/>
        <pt x="274" y="220" on="1"/>
        <pt x="251" y="205" on="0"/>
        <pt x="245" y="205" on="1"/>
        <pt x="246" y="210" on="0"/>
        <pt x="246" y="214" on="1"/>
        <pt x="246" y="221" on="1"/>
        <pt x="246" y="235" on="0"/>
        <pt x="242" y="243" on="1"/>
        <pt x="130" y="300" on="0"/>
        <pt x="99" y="340" on="1"/>
        <pt x="81" y="364" on="0"/>
        <pt x="71" y="418" on="0"/>
        <pt x="71" y="452" on="1"/>
        <pt x="71" y="541" on="0"/>
        <pt x="105" y="599" on="1"/>
        <pt x="129" y="640" on="0"/>
        <pt x="216" y="675" on="0"/>
        <pt x="293" y="675" on="0"/>
        <pt x="341" y="665" on="0"/>
        <pt x="363" y="656" on="1"/>
        <pt x="394" y="643" on="0"/>
        <pt x="454" y="605" on="1"/>
        <pt x="462" y="605" on="1"/>
        <pt x="515" y="668" on="1"/>
        <pt x="527" y="669" on="1"/>
        <pt x="552" y="669" on="0"/>
        <pt x="556" y="655" on="1"/>
        <pt x="571" y="529" on="0"/>
      </contour>
      <contour>
        <pt x="111" y="522" on="1"/>
        <pt x="110" y="462" on="1"/>
        <pt x="110" y="444" on="1"/>
        <pt x="110" y="406" on="0"/>
        <pt x="134" y="362" on="1"/>
        <pt x="169" y="300" on="0"/>
        <pt x="379" y="235" on="1"/>
        <pt x="435" y="217" on="0"/>
        <pt x="474" y="157" on="0"/>
        <pt x="474" y="120" on="1"/>
        <pt x="474" y="83" on="0"/>
        <pt x="460" y="43" on="1"/>
        <pt x="481" y="43" on="0"/>
        <pt x="500" y="80" on="1"/>
        <pt x="523" y="124" on="0"/>
        <pt x="523" y="238" on="0"/>
        <pt x="467" y="306" on="0"/>
        <pt x="381" y="355" on="0"/>
        <pt x="279" y="393" on="0"/>
        <pt x="188" y="437" on="0"/>
        <pt x="120" y="495" on="0"/>
        <pt x="111" y="539" on="1"/>
      </contour>
      <contour>
        <pt x="486" y="581" on="0"/>
        <pt x="477" y="572" on="0"/>
        <pt x="477" y="566" on="0"/>
        <pt x="491" y="547" on="0"/>
        <pt x="499" y="537" on="1"/>
        <pt x="520" y="511" on="0"/>
        <pt x="524" y="511" on="1"/>
        <pt x="532" y="511" on="1"/>
        <pt x="530" y="522" on="1"/>
        <pt x="528" y="533" on="0"/>
        <pt x="526" y="548" on="1"/>
        <pt x="520" y="578" on="0"/>
        <pt x="515" y="599" on="1"/>
        <pt x="511" y="596" on="0"/>
        <pt x="498" y="589" on="0"/>
      </contour>
    </TTGlyph>
    <TTGlyph name="Scaron" xMin="44" yMin="-40" xMax="571" yMax="894">
      <component glyphName="S" x="0" y="0" flags="0x1204"/>
      <component glyphName="caron" x="108" y="73" flags="0x1004"/>
    </TTGlyph>
    <TTGlyph name="T" xMin="3" yMin="-18" xMax="697" yMax="691">
      <contour>
        <pt x="161" y="-18" on="1"/>
        <pt x="148" y="-18" on="0"/>
        <pt x="148" y="4" on="1"/>
        <pt x="148" y="10" on="0"/>
        <pt x="152" y="20" on="0"/>
        <pt x="161" y="20" on="1"/>
        <pt x="236" y="20" on="1"/>
        <pt x="238" y="45" on="0"/>
        <pt x="246" y="118" on="0"/>
        <pt x="250" y="162" on="1"/>
        <pt x="260" y="272" on="0"/>
        <pt x="260" y="361" on="1"/>
        <pt x="260" y="604" on="1"/>
        <pt x="199" y="595" on="1"/>
        <pt x="34" y="489" on="1"/>
        <pt x="33" y="489" on="0"/>
        <pt x="32" y="480" on="0"/>
        <pt x="30" y="480" on="1"/>
        <pt x="19" y="480" on="0"/>
        <pt x="3" y="500" on="0"/>
        <pt x="3" y="511" on="1"/>
        <pt x="70" y="687" on="1"/>
        <pt x="183" y="652" on="1"/>
        <pt x="212" y="643" on="0"/>
        <pt x="266" y="643" on="1"/>
        <pt x="343" y="645" on="1"/>
        <pt x="440" y="644" on="1"/>
        <pt x="513" y="644" on="0"/>
        <pt x="560" y="666" on="1"/>
        <pt x="569" y="670" on="0"/>
        <pt x="581" y="679" on="0"/>
        <pt x="586" y="683" on="1"/>
        <pt x="598" y="691" on="0"/>
        <pt x="625" y="691" on="0"/>
        <pt x="629" y="685" on="1"/>
        <pt x="697" y="546" on="1"/>
        <pt x="697" y="541" on="0"/>
        <pt x="678" y="522" on="0"/>
        <pt x="678" y="523" on="1"/>
        <pt x="562" y="572" on="1"/>
        <pt x="479" y="604" on="1"/>
        <pt x="467" y="604" on="0"/>
        <pt x="452" y="592" on="0"/>
        <pt x="448" y="574" on="1"/>
        <pt x="440" y="544" on="0"/>
        <pt x="440" y="436" on="1"/>
        <pt x="434" y="168" on="1"/>
        <pt x="434" y="43" on="0"/>
        <pt x="446" y="26" on="1"/>
        <pt x="450" y="21" on="0"/>
        <pt x="456" y="21" on="1"/>
        <pt x="510" y="26" on="1"/>
        <pt x="523" y="26" on="0"/>
        <pt x="540" y="23" on="0"/>
        <pt x="540" y="14" on="1"/>
        <pt x="540" y="-12" on="0"/>
        <pt x="527" y="-14" on="1"/>
        <pt x="465" y="-18" on="1"/>
      </contour>
      <contour>
        <pt x="302" y="603" on="1"/>
        <pt x="296" y="549" on="0"/>
        <pt x="296" y="458" on="1"/>
        <pt x="292" y="254" on="1"/>
        <pt x="292" y="198" on="0"/>
        <pt x="288" y="150" on="1"/>
        <pt x="282" y="62" on="0"/>
        <pt x="282" y="21" on="1"/>
        <pt x="310" y="21" on="1"/>
        <pt x="352" y="21" on="0"/>
        <pt x="396" y="25" on="1"/>
        <pt x="408" y="605" on="1"/>
        <pt x="381" y="596" on="0"/>
        <pt x="335" y="596" on="0"/>
      </contour>
      <contour>
        <pt x="167" y="610" on="1"/>
        <pt x="147" y="623" on="0"/>
        <pt x="119" y="623" on="1"/>
        <pt x="106" y="624" on="1"/>
        <pt x="87" y="624" on="0"/>
        <pt x="71" y="566" on="1"/>
        <pt x="68" y="555" on="0"/>
        <pt x="68" y="554" on="1"/>
      </contour>
      <contour>
        <pt x="643" y="579" on="1"/>
        <pt x="643" y="604" on="0"/>
        <pt x="626" y="622" on="1"/>
        <pt x="620" y="629" on="0"/>
        <pt x="597" y="629" on="0"/>
        <pt x="557" y="619" on="0"/>
        <pt x="550" y="604" on="1"/>
      </contour>
    </TTGlyph>
    <TTGlyph name="Thorn" xMin="22" yMin="-19" xMax="690" yMax="682">
      <contour>
        <pt x="392" y="34" on="1"/>
        <pt x="398" y="34" on="0"/>
        <pt x="398" y="18" on="1"/>
        <pt x="398" y="7" on="1"/>
        <pt x="398" y="-4" on="0"/>
        <pt x="392" y="-6" on="1"/>
        <pt x="329" y="-19" on="1"/>
        <pt x="94" y="-19" on="1"/>
        <pt x="84" y="-19" on="0"/>
        <pt x="75" y="-2" on="0"/>
        <pt x="75" y="6" on="1"/>
        <pt x="75" y="28" on="0"/>
        <pt x="87" y="28" on="1"/>
        <pt x="162" y="28" on="1"/>
        <pt x="162" y="148" on="1"/>
        <pt x="76" y="148" on="1"/>
        <pt x="69" y="148" on="0"/>
        <pt x="60" y="156" on="1"/>
        <pt x="44" y="170" on="0"/>
        <pt x="44" y="177" on="1"/>
        <pt x="44" y="184" on="0"/>
        <pt x="63" y="192" on="1"/>
        <pt x="68" y="191" on="0"/>
        <pt x="78" y="191" on="1"/>
        <pt x="100" y="191" on="1"/>
        <pt x="137" y="191" on="0"/>
        <pt x="158" y="202" on="0"/>
        <pt x="158" y="216" on="1"/>
        <pt x="156" y="248" on="1"/>
        <pt x="156" y="333" on="0"/>
        <pt x="148" y="427" on="0"/>
        <pt x="144" y="428" on="1"/>
        <pt x="127" y="430" on="0"/>
        <pt x="84" y="429" on="0"/>
        <pt x="66" y="432" on="1"/>
        <pt x="22" y="439" on="0"/>
        <pt x="22" y="479" on="1"/>
        <pt x="52" y="479" on="0"/>
        <pt x="112" y="471" on="0"/>
        <pt x="143" y="471" on="1"/>
        <pt x="144" y="502" on="1"/>
        <pt x="137" y="613" on="1"/>
        <pt x="125" y="613" on="1"/>
        <pt x="81" y="607" on="1"/>
        <pt x="73" y="607" on="0"/>
        <pt x="56" y="624" on="0"/>
        <pt x="56" y="645" on="0"/>
        <pt x="74" y="654" on="0"/>
        <pt x="98" y="656" on="0"/>
        <pt x="123" y="657" on="0"/>
        <pt x="137" y="667" on="0"/>
        <pt x="139" y="675" on="0"/>
        <pt x="140" y="677" on="1"/>
        <pt x="142" y="682" on="0"/>
        <pt x="162" y="682" on="0"/>
        <pt x="170" y="678" on="0"/>
        <pt x="173" y="676" on="1"/>
        <pt x="182" y="670" on="0"/>
        <pt x="188" y="670" on="1"/>
        <pt x="367" y="677" on="1"/>
        <pt x="385" y="677" on="0"/>
        <pt x="385" y="652" on="0"/>
        <pt x="381" y="640" on="0"/>
        <pt x="372" y="633" on="0"/>
        <pt x="358" y="629" on="0"/>
        <pt x="348" y="626" on="1"/>
        <pt x="342" y="576" on="0"/>
        <pt x="342" y="524" on="0"/>
        <pt x="343" y="508" on="0"/>
        <pt x="348" y="496" on="1"/>
        <pt x="369" y="499" on="0"/>
        <pt x="403" y="499" on="1"/>
        <pt x="454" y="499" on="0"/>
        <pt x="571" y="459" on="1"/>
        <pt x="652" y="432" on="0"/>
        <pt x="680" y="364" on="1"/>
        <pt x="690" y="342" on="0"/>
        <pt x="690" y="281" on="0"/>
        <pt x="666" y="212" on="0"/>
        <pt x="634" y="192" on="1"/>
        <pt x="608" y="177" on="0"/>
        <pt x="549" y="154" on="0"/>
        <pt x="546" y="154" on="1"/>
        <pt x="360" y="143" on="1"/>
        <pt x="348" y="137" on="1"/>
        <pt x="345" y="134" on="0"/>
        <pt x="343" y="104" on="0"/>
        <pt x="342" y="90" on="0"/>
        <pt x="342" y="86" on="1"/>
        <pt x="342" y="71" on="1"/>
        <pt x="342" y="61" on="0"/>
        <pt x="343" y="43" on="0"/>
        <pt x="344" y="34" on="1"/>
      </contour>
      <contour>
        <pt x="304" y="68" on="1"/>
        <pt x="306" y="401" on="1"/>
        <pt x="306" y="571" on="0"/>
        <pt x="299" y="607" on="1"/>
        <pt x="293" y="626" on="1"/>
        <pt x="291" y="628" on="0"/>
        <pt x="284" y="628" on="1"/>
        <pt x="252" y="628" on="0"/>
        <pt x="198" y="628" on="0"/>
        <pt x="181" y="620" on="1"/>
        <pt x="181" y="584" on="1"/>
        <pt x="181" y="478" on="0"/>
        <pt x="190" y="298" on="0"/>
        <pt x="193" y="221" on="0"/>
        <pt x="198" y="138" on="0"/>
        <pt x="200" y="104" on="1"/>
        <pt x="206" y="25" on="0"/>
        <pt x="211" y="25" on="1"/>
        <pt x="299" y="25" on="1"/>
      </contour>
      <contour>
        <pt x="596" y="315" on="1"/>
        <pt x="596" y="275" on="0"/>
        <pt x="547" y="213" on="0"/>
        <pt x="516" y="192" on="1"/>
        <pt x="564" y="192" on="0"/>
        <pt x="606" y="227" on="1"/>
        <pt x="652" y="264" on="0"/>
        <pt x="652" y="346" on="0"/>
        <pt x="604" y="402" on="0"/>
        <pt x="571" y="415" on="1"/>
        <pt x="571" y="414" on="0"/>
        <pt x="570" y="414" on="0"/>
        <pt x="570" y="413" on="1"/>
        <pt x="570" y="412" on="1"/>
        <pt x="570" y="410" on="0"/>
        <pt x="589" y="385" on="0"/>
        <pt x="594" y="365" on="0"/>
        <pt x="596" y="343" on="0"/>
        <pt x="596" y="332" on="1"/>
      </contour>
      <contour>
        <pt x="349" y="454" on="1"/>
        <pt x="349" y="391" on="0"/>
        <pt x="341" y="269" on="0"/>
        <pt x="341" y="207" on="1"/>
        <pt x="426" y="207" on="0"/>
        <pt x="511" y="244" on="0"/>
        <pt x="553" y="295" on="0"/>
        <pt x="553" y="337" on="1"/>
        <pt x="553" y="365" on="0"/>
        <pt x="546" y="371" on="1"/>
        <pt x="478" y="434" on="1"/>
        <pt x="453" y="457" on="0"/>
        <pt x="379" y="454" on="1"/>
        <pt x="361" y="454" on="0"/>
      </contour>
    </TTGlyph>
    <TTGlyph name="U" xMin="18" yMin="-32" xMax="662" yMax="684">
      <contour>
        <pt x="599" y="634" on="0"/>
        <pt x="599" y="684" on="0"/>
        <pt x="628" y="684" on="1"/>
        <pt x="635" y="684" on="0"/>
        <pt x="648" y="668" on="0"/>
        <pt x="651" y="628" on="0"/>
        <pt x="657" y="580" on="0"/>
        <pt x="658" y="558" on="1"/>
        <pt x="662" y="507" on="0"/>
        <pt x="662" y="374" on="0"/>
        <pt x="653" y="232" on="0"/>
        <pt x="636" y="178" on="1"/>
        <pt x="604" y="70" on="0"/>
        <pt x="506" y="0" on="1"/>
        <pt x="495" y="-8" on="0"/>
        <pt x="400" y="-32" on="0"/>
        <pt x="382" y="-32" on="0"/>
        <pt x="334" y="-27" on="0"/>
        <pt x="309" y="-22" on="1"/>
        <pt x="249" y="-10" on="0"/>
        <pt x="212" y="30" on="0"/>
        <pt x="186" y="58" on="0"/>
        <pt x="169" y="83" on="0"/>
        <pt x="157" y="113" on="0"/>
        <pt x="151" y="138" on="1"/>
        <pt x="141" y="178" on="0"/>
        <pt x="119" y="296" on="1"/>
        <pt x="90" y="309" on="1"/>
        <pt x="93" y="323" on="0"/>
        <pt x="103" y="336" on="0"/>
        <pt x="115" y="340" on="1"/>
        <pt x="118" y="347" on="0"/>
        <pt x="130" y="408" on="0"/>
        <pt x="130" y="410" on="1"/>
        <pt x="124" y="479" on="1"/>
        <pt x="129" y="626" on="1"/>
        <pt x="103" y="626" on="0"/>
        <pt x="81" y="593" on="0"/>
        <pt x="69" y="554" on="0"/>
        <pt x="59" y="521" on="0"/>
        <pt x="46" y="521" on="1"/>
        <pt x="33" y="521" on="0"/>
        <pt x="18" y="539" on="0"/>
        <pt x="18" y="587" on="0"/>
        <pt x="48" y="638" on="0"/>
        <pt x="72" y="654" on="1"/>
        <pt x="119" y="683" on="0"/>
        <pt x="190" y="683" on="1"/>
        <pt x="298" y="676" on="1"/>
        <pt x="323" y="676" on="0"/>
        <pt x="368" y="684" on="0"/>
        <pt x="402" y="684" on="0"/>
        <pt x="402" y="658" on="0"/>
        <pt x="382" y="641" on="0"/>
        <pt x="368" y="635" on="1"/>
        <pt x="345" y="625" on="0"/>
        <pt x="320" y="621" on="1"/>
        <pt x="314" y="613" on="0"/>
        <pt x="307" y="539" on="0"/>
        <pt x="307" y="528" on="1"/>
        <pt x="310" y="335" on="1"/>
        <pt x="360" y="340" on="1"/>
        <pt x="371" y="340" on="0"/>
        <pt x="371" y="300" on="0"/>
        <pt x="335" y="291" on="0"/>
        <pt x="313" y="290" on="1"/>
        <pt x="313" y="271" on="1"/>
        <pt x="351" y="19" on="1"/>
        <pt x="352" y="12" on="0"/>
        <pt x="441" y="12" on="0"/>
        <pt x="519" y="54" on="0"/>
        <pt x="572" y="121" on="0"/>
        <pt x="603" y="206" on="0"/>
        <pt x="612" y="250" on="1"/>
        <pt x="625" y="319" on="0"/>
        <pt x="625" y="405" on="1"/>
        <pt x="624" y="460" on="1"/>
        <pt x="624" y="491" on="0"/>
        <pt x="607" y="584" on="0"/>
      </contour>
      <contour>
        <pt x="167" y="576" on="1"/>
        <pt x="171" y="520" on="1"/>
        <pt x="168" y="397" on="1"/>
        <pt x="168" y="259" on="0"/>
        <pt x="205" y="115" on="0"/>
        <pt x="258" y="33" on="0"/>
        <pt x="302" y="21" on="1"/>
        <pt x="277" y="324" on="1"/>
        <pt x="271" y="627" on="1"/>
        <pt x="271" y="628" on="0"/>
        <pt x="224" y="632" on="0"/>
        <pt x="202" y="634" on="0"/>
        <pt x="201" y="634" on="1"/>
        <pt x="180" y="634" on="0"/>
        <pt x="167" y="598" on="0"/>
      </contour>
    </TTGlyph>
    <TTGlyph name="Uacute" xMin="18" yMin="-32" xMax="662" yMax="806">
      <component glyphName="U" x="0" y="0" flags="0x1204"/>
      <component glyphName="acute" x="291" y="37" flags="0x1004"/>
    </TTGlyph>
    <TTGlyph name="Ucircumflex" xMin="18" yMin="-32" xMax="662" yMax="843">
      <component glyphName="U" x="0" y="0" flags="0x1204"/>
      <component glyphName="circumflex" x="175" y="55" flags="0x1004"/>
    </TTGlyph>
    <TTGlyph name="Udieresis" xMin="18" yMin="-32" xMax="662" yMax="835">
      <component glyphName="U" x="0" y="0" flags="0x1204"/>
      <component glyphName="dieresis" x="88" y="37" flags="0x1004"/>
    </TTGlyph>
    <TTGlyph name="Ugrave" xMin="18" yMin="-32" xMax="662" yMax="815">
      <component glyphName="U" x="0" y="0" flags="0x1204"/>
      <component glyphName="grave" x="255" y="46" flags="0x1004"/>
    </TTGlyph>
    <TTGlyph name="V" xMin="-6" yMin="-23" xMax="676" yMax="687">
      <contour>
        <pt x="635" y="635" on="1"/>
        <pt x="607" y="637" on="1"/>
        <pt x="436" y="-4" on="1"/>
        <pt x="432" y="-18" on="0"/>
        <pt x="416" y="-23" on="0"/>
        <pt x="369" y="-23" on="0"/>
        <pt x="300" y="-6" on="0"/>
        <pt x="263" y="3" on="1"/>
        <pt x="247" y="14" on="0"/>
        <pt x="245" y="28" on="1"/>
        <pt x="161" y="296" on="1"/>
        <pt x="100" y="296" on="1"/>
        <pt x="93" y="296" on="0"/>
        <pt x="93" y="325" on="0"/>
        <pt x="111" y="331" on="0"/>
        <pt x="132" y="332" on="0"/>
        <pt x="150" y="336" on="0"/>
        <pt x="150" y="346" on="1"/>
        <pt x="99" y="618" on="1"/>
        <pt x="1" y="618" on="1"/>
        <pt x="-6" y="618" on="0"/>
        <pt x="-6" y="647" on="0"/>
        <pt x="15" y="660" on="0"/>
        <pt x="43" y="666" on="0"/>
        <pt x="72" y="667" on="0"/>
        <pt x="96" y="669" on="0"/>
        <pt x="120" y="672" on="0"/>
        <pt x="133" y="673" on="1"/>
        <pt x="159" y="675" on="0"/>
        <pt x="179" y="675" on="1"/>
        <pt x="206" y="675" on="1"/>
        <pt x="238" y="674" on="1"/>
        <pt x="238" y="674" on="0"/>
        <pt x="249" y="674" on="1"/>
        <pt x="265" y="667" on="0"/>
        <pt x="270" y="638" on="0"/>
        <pt x="272" y="620" on="0"/>
        <pt x="279" y="612" on="1"/>
        <pt x="418" y="89" on="1"/>
        <pt x="424" y="89" on="1"/>
        <pt x="532" y="526" on="1"/>
        <pt x="532" y="532" on="1"/>
        <pt x="534" y="536" on="0"/>
        <pt x="541" y="586" on="0"/>
        <pt x="545" y="610" on="0"/>
        <pt x="545" y="612" on="1"/>
        <pt x="545" y="619" on="1"/>
        <pt x="545" y="634" on="0"/>
        <pt x="538" y="634" on="1"/>
        <pt x="464" y="634" on="1"/>
        <pt x="457" y="634" on="0"/>
        <pt x="457" y="668" on="0"/>
        <pt x="467" y="677" on="0"/>
        <pt x="483" y="681" on="0"/>
        <pt x="517" y="683" on="0"/>
        <pt x="554" y="685" on="0"/>
        <pt x="588" y="687" on="0"/>
        <pt x="599" y="687" on="0"/>
        <pt x="625" y="686" on="0"/>
        <pt x="639" y="683" on="1"/>
        <pt x="676" y="675" on="0"/>
        <pt x="676" y="635" on="0"/>
      </contour>
      <contour>
        <pt x="300" y="33" on="1"/>
        <pt x="312" y="30" on="1"/>
        <pt x="373" y="14" on="0"/>
        <pt x="387" y="14" on="1"/>
        <pt x="387" y="46" on="1"/>
        <pt x="235" y="624" on="1"/>
        <pt x="150" y="624" on="1"/>
        <pt x="146" y="624" on="0"/>
        <pt x="130" y="616" on="0"/>
        <pt x="130" y="612" on="1"/>
        <pt x="275" y="46" on="1"/>
      </contour>
    </TTGlyph>
    <TTGlyph name="W" xMin="19" yMin="-26" xMax="895" yMax="657">
      <contour>
        <pt x="875" y="595" on="1"/>
        <pt x="832" y="601" on="1"/>
        <pt x="830" y="601" on="0"/>
        <pt x="820" y="596" on="0"/>
        <pt x="820" y="595" on="1"/>
        <pt x="689" y="0" on="1"/>
        <pt x="687" y="-10" on="0"/>
        <pt x="671" y="-26" on="0"/>
        <pt x="651" y="-26" on="0"/>
        <pt x="637" y="-13" on="0"/>
        <pt x="637" y="0" on="0"/>
        <pt x="639" y="6" on="1"/>
        <pt x="534" y="329" on="1"/>
        <pt x="534" y="333" on="1"/>
        <pt x="527" y="335" on="1"/>
        <pt x="522" y="335" on="0"/>
        <pt x="504" y="254" on="1"/>
        <pt x="454" y="37" on="1"/>
        <pt x="454" y="33" on="0"/>
        <pt x="467" y="30" on="0"/>
        <pt x="476" y="27" on="1"/>
        <pt x="497" y="19" on="0"/>
        <pt x="497" y="-13" on="0"/>
        <pt x="491" y="-19" on="0"/>
        <pt x="456" y="-18" on="0"/>
        <pt x="377" y="-15" on="0"/>
        <pt x="288" y="-10" on="0"/>
        <pt x="209" y="-7" on="0"/>
        <pt x="193" y="-6" on="1"/>
        <pt x="180" y="-1" on="0"/>
        <pt x="180" y="22" on="0"/>
        <pt x="193" y="34" on="0"/>
        <pt x="202" y="38" on="1"/>
        <pt x="216" y="43" on="0"/>
        <pt x="237" y="43" on="1"/>
        <pt x="237" y="68" on="1"/>
        <pt x="94" y="571" on="1"/>
        <pt x="87" y="577" on="1"/>
        <pt x="69" y="539" on="0"/>
        <pt x="69" y="483" on="1"/>
        <pt x="69" y="466" on="0"/>
        <pt x="76" y="444" on="0"/>
        <pt x="76" y="419" on="0"/>
        <pt x="68" y="414" on="0"/>
        <pt x="36" y="414" on="0"/>
        <pt x="19" y="439" on="0"/>
        <pt x="19" y="493" on="0"/>
        <pt x="20" y="537" on="0"/>
        <pt x="24" y="558" on="1"/>
        <pt x="34" y="610" on="0"/>
        <pt x="63" y="626" on="1"/>
        <pt x="63" y="626" on="0"/>
        <pt x="80" y="634" on="1"/>
        <pt x="125" y="657" on="0"/>
        <pt x="131" y="657" on="1"/>
        <pt x="268" y="657" on="1"/>
        <pt x="275" y="657" on="0"/>
        <pt x="299" y="644" on="0"/>
        <pt x="299" y="630" on="0"/>
        <pt x="293" y="624" on="0"/>
        <pt x="289" y="621" on="1"/>
        <pt x="279" y="614" on="0"/>
        <pt x="279" y="605" on="1"/>
        <pt x="280" y="595" on="1"/>
        <pt x="416" y="118" on="1"/>
        <pt x="422" y="112" on="1"/>
        <pt x="447" y="173" on="1"/>
        <pt x="497" y="440" on="1"/>
        <pt x="496" y="445" on="0"/>
        <pt x="496" y="448" on="1"/>
        <pt x="496" y="456" on="1"/>
        <pt x="496" y="491" on="0"/>
        <pt x="516" y="559" on="0"/>
        <pt x="516" y="595" on="1"/>
        <pt x="510" y="599" on="0"/>
        <pt x="469" y="607" on="0"/>
        <pt x="454" y="607" on="1"/>
        <pt x="450" y="616" on="1"/>
        <pt x="447" y="621" on="0"/>
        <pt x="447" y="630" on="0"/>
        <pt x="457" y="644" on="0"/>
        <pt x="466" y="645" on="1"/>
        <pt x="559" y="651" on="1"/>
        <pt x="591" y="651" on="0"/>
        <pt x="591" y="625" on="1"/>
        <pt x="591" y="598" on="0"/>
        <pt x="571" y="583" on="1"/>
        <pt x="560" y="545" on="0"/>
        <pt x="546" y="486" on="0"/>
        <pt x="546" y="451" on="1"/>
        <pt x="546" y="428" on="1"/>
        <pt x="658" y="74" on="1"/>
        <pt x="664" y="68" on="1"/>
        <pt x="763" y="558" on="1"/>
        <pt x="763" y="593" on="1"/>
        <pt x="707" y="588" on="1"/>
        <pt x="699" y="588" on="0"/>
        <pt x="688" y="591" on="0"/>
        <pt x="688" y="601" on="1"/>
        <pt x="688" y="651" on="0"/>
        <pt x="895" y="651" on="0"/>
        <pt x="895" y="616" on="1"/>
        <pt x="895" y="595" on="0"/>
      </contour>
      <contour>
        <pt x="280" y="62" on="1"/>
        <pt x="280" y="55" on="0"/>
        <pt x="298" y="37" on="1"/>
        <pt x="386" y="37" on="1"/>
        <pt x="398" y="43" on="1"/>
        <pt x="229" y="607" on="1"/>
        <pt x="144" y="607" on="1"/>
        <pt x="133" y="607" on="0"/>
        <pt x="130" y="599" on="0"/>
        <pt x="130" y="593" on="1"/>
        <pt x="130" y="587" on="1"/>
        <pt x="130" y="585" on="0"/>
        <pt x="131" y="583" on="1"/>
      </contour>
    </TTGlyph>
    <TTGlyph name="X" xMin="-13" yMin="-39" xMax="788" yMax="682">
      <contour>
        <pt x="421" y="-39" on="1"/>
        <pt x="390" y="-39" on="0"/>
        <pt x="390" y="-16" on="1"/>
        <pt x="390" y="10" on="0"/>
        <pt x="440" y="17" on="1"/>
        <pt x="440" y="29" on="1"/>
        <pt x="316" y="240" on="1"/>
        <pt x="312" y="247" on="0"/>
        <pt x="307" y="247" on="1"/>
        <pt x="306" y="247" on="0"/>
        <pt x="305" y="246" on="1"/>
        <pt x="304" y="246" on="1"/>
        <pt x="138" y="42" on="1"/>
        <pt x="223" y="42" on="1"/>
        <pt x="229" y="42" on="0"/>
        <pt x="236" y="22" on="0"/>
        <pt x="236" y="8" on="0"/>
        <pt x="209" y="-5" on="0"/>
        <pt x="168" y="-13" on="0"/>
        <pt x="119" y="-18" on="0"/>
        <pt x="96" y="-19" on="1"/>
        <pt x="51" y="-21" on="0"/>
        <pt x="37" y="-21" on="1"/>
        <pt x="6" y="-20" on="1"/>
        <pt x="1" y="-16" on="0"/>
        <pt x="-13" y="0" on="0"/>
        <pt x="-13" y="2" on="1"/>
        <pt x="-13" y="18" on="0"/>
        <pt x="12" y="29" on="0"/>
        <pt x="45" y="31" on="0"/>
        <pt x="75" y="31" on="0"/>
        <pt x="80" y="36" on="1"/>
        <pt x="283" y="296" on="1"/>
        <pt x="87" y="600" on="1"/>
        <pt x="71" y="625" on="0"/>
        <pt x="44" y="625" on="1"/>
        <pt x="29" y="625" on="0"/>
        <pt x="26" y="637" on="0"/>
        <pt x="24" y="640" on="1"/>
        <pt x="24" y="650" on="0"/>
        <pt x="49" y="662" on="0"/>
        <pt x="55" y="662" on="1"/>
        <pt x="390" y="662" on="1"/>
        <pt x="393" y="662" on="0"/>
        <pt x="409" y="643" on="0"/>
        <pt x="409" y="632" on="0"/>
        <pt x="396" y="623" on="0"/>
        <pt x="388" y="620" on="1"/>
        <pt x="369" y="612" on="0"/>
        <pt x="360" y="612" on="1"/>
        <pt x="459" y="439" on="1"/>
        <pt x="459" y="435" on="0"/>
        <pt x="468" y="432" on="1"/>
        <pt x="470" y="432" on="1"/>
        <pt x="638" y="612" on="1"/>
        <pt x="638" y="624" on="1"/>
        <pt x="629" y="624" on="1"/>
        <pt x="604" y="625" on="1"/>
        <pt x="596" y="625" on="1"/>
        <pt x="546" y="619" on="1"/>
        <pt x="532" y="619" on="0"/>
        <pt x="526" y="640" on="0"/>
        <pt x="526" y="646" on="1"/>
        <pt x="526" y="657" on="1"/>
        <pt x="526" y="662" on="0"/>
        <pt x="527" y="662" on="1"/>
        <pt x="539" y="669" on="1"/>
        <pt x="541" y="670" on="0"/>
        <pt x="567" y="672" on="0"/>
        <pt x="604" y="675" on="0"/>
        <pt x="647" y="678" on="0"/>
        <pt x="685" y="680" on="0"/>
        <pt x="712" y="682" on="0"/>
        <pt x="720" y="682" on="1"/>
        <pt x="756" y="682" on="0"/>
        <pt x="756" y="658" on="1"/>
        <pt x="756" y="650" on="0"/>
        <pt x="750" y="644" on="1"/>
        <pt x="707" y="625" on="1"/>
        <pt x="508" y="396" on="1"/>
        <pt x="490" y="383" on="1"/>
        <pt x="695" y="29" on="1"/>
        <pt x="701" y="23" on="1"/>
        <pt x="711" y="25" on="0"/>
        <pt x="757" y="25" on="0"/>
        <pt x="788" y="14" on="0"/>
        <pt x="788" y="-6" on="1"/>
        <pt x="788" y="-19" on="0"/>
        <pt x="781" y="-20" on="1"/>
        <pt x="765" y="-22" on="0"/>
        <pt x="723" y="-24" on="0"/>
        <pt x="684" y="-26" on="0"/>
        <pt x="670" y="-26" on="1"/>
        <pt x="651" y="-26" on="1"/>
        <pt x="622" y="-26" on="0"/>
        <pt x="557" y="-25" on="0"/>
        <pt x="526" y="-26" on="1"/>
        <pt x="450" y="-28" on="0"/>
      </contour>
      <contour>
        <pt x="490" y="23" on="1"/>
        <pt x="654" y="23" on="1"/>
        <pt x="312" y="619" on="1"/>
        <pt x="127" y="619" on="1"/>
        <pt x="341" y="259" on="1"/>
        <pt x="347" y="253" on="1"/>
      </contour>
    </TTGlyph>
    <TTGlyph name="Y" xMin="2" yMin="-24" xMax="739" yMax="687">
      <contour>
        <pt x="409" y="214" on="0"/>
        <pt x="367" y="114" on="0"/>
        <pt x="355" y="67" on="0"/>
        <pt x="355" y="55" on="0"/>
        <pt x="358" y="46" on="1"/>
        <pt x="487" y="46" on="1"/>
        <pt x="502" y="24" on="1"/>
        <pt x="476" y="-24" on="0"/>
        <pt x="2" y="-24" on="1"/>
        <pt x="2" y="7" on="0"/>
        <pt x="16" y="31" on="0"/>
        <pt x="21" y="31" on="1"/>
        <pt x="143" y="31" on="1"/>
        <pt x="137" y="65" on="1"/>
        <pt x="137" y="69" on="1"/>
        <pt x="143" y="91" on="0"/>
        <pt x="166" y="132" on="0"/>
        <pt x="177" y="152" on="1"/>
        <pt x="204" y="203" on="0"/>
        <pt x="204" y="263" on="0"/>
        <pt x="189" y="276" on="0"/>
        <pt x="170" y="277" on="0"/>
        <pt x="155" y="277" on="0"/>
        <pt x="155" y="292" on="0"/>
        <pt x="165" y="300" on="0"/>
        <pt x="172" y="303" on="1"/>
        <pt x="186" y="309" on="0"/>
        <pt x="201" y="311" on="1"/>
        <pt x="175" y="356" on="0"/>
        <pt x="143" y="442" on="1"/>
        <pt x="100" y="588" on="1"/>
        <pt x="100" y="603" on="1"/>
        <pt x="41" y="603" on="0"/>
        <pt x="20" y="622" on="1"/>
        <pt x="11" y="630" on="0"/>
        <pt x="11" y="646" on="1"/>
        <pt x="11" y="646" on="0"/>
        <pt x="12" y="662" on="1"/>
        <pt x="158" y="676" on="1"/>
        <pt x="218" y="676" on="0"/>
        <pt x="218" y="638" on="1"/>
        <pt x="217" y="634" on="1"/>
        <pt x="217" y="631" on="1"/>
        <pt x="158" y="603" on="1"/>
        <pt x="157" y="601" on="0"/>
        <pt x="157" y="600" on="1"/>
        <pt x="157" y="597" on="1"/>
        <pt x="160" y="573" on="0"/>
        <pt x="196" y="440" on="0"/>
        <pt x="208" y="404" on="1"/>
        <pt x="234" y="325" on="0"/>
        <pt x="246" y="325" on="1"/>
        <pt x="260" y="325" on="1"/>
        <pt x="404" y="609" on="1"/>
        <pt x="402" y="615" on="0"/>
        <pt x="402" y="660" on="0"/>
        <pt x="413" y="683" on="0"/>
        <pt x="432" y="683" on="1"/>
        <pt x="514" y="681" on="1"/>
        <pt x="739" y="687" on="1"/>
        <pt x="739" y="657" on="0"/>
        <pt x="700" y="646" on="1"/>
        <pt x="678" y="639" on="0"/>
        <pt x="653" y="639" on="1"/>
        <pt x="645" y="607" on="0"/>
        <pt x="608" y="580" on="1"/>
        <pt x="623" y="566" on="1"/>
        <pt x="618" y="562" on="0"/>
        <pt x="594" y="537" on="0"/>
        <pt x="588" y="531" on="1"/>
        <pt x="579" y="522" on="1"/>
        <pt x="579" y="508" on="1"/>
        <pt x="479" y="340" on="1"/>
        <pt x="478" y="331" on="1"/>
        <pt x="478" y="324" on="0"/>
        <pt x="487" y="319" on="0"/>
        <pt x="499" y="316" on="0"/>
        <pt x="508" y="311" on="0"/>
        <pt x="508" y="290" on="0"/>
        <pt x="490" y="278" on="0"/>
        <pt x="466" y="271" on="0"/>
        <pt x="441" y="263" on="0"/>
        <pt x="435" y="253" on="1"/>
      </contour>
      <contour>
        <pt x="557" y="644" on="1"/>
        <pt x="507" y="639" on="1"/>
        <pt x="489" y="630" on="0"/>
        <pt x="450" y="586" on="0"/>
        <pt x="447" y="580" on="1"/>
        <pt x="180" y="54" on="1"/>
        <pt x="180" y="38" on="1"/>
        <pt x="196" y="38" on="0"/>
        <pt x="298" y="53" on="0"/>
        <pt x="298" y="54" on="1"/>
        <pt x="608" y="639" on="1"/>
      </contour>
    </TTGlyph>
    <TTGlyph name="Yacute" xMin="2" yMin="-24" xMax="739" yMax="806">
      <component glyphName="Y" x="0" y="0" flags="0x1204"/>
      <component glyphName="acute" x="244" y="37" flags="0x1004"/>
    </TTGlyph>
    <TTGlyph name="Ydieresis" xMin="2" yMin="-24" xMax="739" yMax="818">
      <component glyphName="Y" x="0" y="0" flags="0x1204"/>
      <component glyphName="dieresis" x="85" y="20" flags="0x1004"/>
    </TTGlyph>
    <TTGlyph name="Z" xMin="36" yMin="-40" xMax="762" yMax="668">
      <contour>
        <pt x="719" y="79" on="1"/>
        <pt x="719" y="91" on="0"/>
        <pt x="733" y="91" on="1"/>
        <pt x="762" y="91" on="0"/>
        <pt x="762" y="63" on="1"/>
        <pt x="762" y="23" on="0"/>
        <pt x="737" y="-6" on="1"/>
        <pt x="711" y="-36" on="0"/>
        <pt x="671" y="-36" on="1"/>
        <pt x="660" y="-36" on="0"/>
        <pt x="650" y="-33" on="1"/>
        <pt x="336" y="34" on="1"/>
        <pt x="161" y="-8" on="1"/>
        <pt x="141" y="-22" on="0"/>
        <pt x="107" y="-40" on="0"/>
        <pt x="92" y="-40" on="1"/>
        <pt x="61" y="-40" on="0"/>
        <pt x="61" y="-21" on="1"/>
        <pt x="62" y="-14" on="1"/>
        <pt x="167" y="239" on="1"/>
        <pt x="192" y="275" on="0"/>
        <pt x="192" y="283" on="1"/>
        <pt x="172" y="276" on="0"/>
        <pt x="125" y="276" on="0"/>
        <pt x="117" y="286" on="0"/>
        <pt x="117" y="305" on="0"/>
        <pt x="122" y="324" on="0"/>
        <pt x="136" y="327" on="1"/>
        <pt x="235" y="346" on="1"/>
        <pt x="415" y="593" on="1"/>
        <pt x="400" y="624" on="0"/>
        <pt x="322" y="624" on="1"/>
        <pt x="172" y="624" on="0"/>
        <pt x="110" y="559" on="1"/>
        <pt x="85" y="533" on="0"/>
        <pt x="85" y="491" on="1"/>
        <pt x="85" y="467" on="0"/>
        <pt x="104" y="444" on="1"/>
        <pt x="112" y="436" on="0"/>
        <pt x="124" y="423" on="0"/>
        <pt x="124" y="416" on="1"/>
        <pt x="124" y="409" on="0"/>
        <pt x="112" y="400" on="0"/>
        <pt x="90" y="400" on="0"/>
        <pt x="64" y="418" on="0"/>
        <pt x="55" y="432" on="1"/>
        <pt x="36" y="462" on="0"/>
        <pt x="36" y="491" on="1"/>
        <pt x="36" y="542" on="0"/>
        <pt x="95" y="611" on="0"/>
        <pt x="138" y="631" on="1"/>
        <pt x="218" y="668" on="0"/>
        <pt x="318" y="668" on="1"/>
        <pt x="334" y="668" on="1"/>
        <pt x="538" y="624" on="1"/>
        <pt x="580" y="624" on="0"/>
        <pt x="649" y="637" on="0"/>
        <pt x="687" y="637" on="1"/>
        <pt x="712" y="637" on="1"/>
        <pt x="706" y="612" on="1"/>
        <pt x="502" y="346" on="1"/>
        <pt x="501" y="345" on="0"/>
        <pt x="501" y="344" on="1"/>
        <pt x="501" y="342" on="1"/>
        <pt x="501" y="333" on="0"/>
        <pt x="526" y="330" on="0"/>
        <pt x="557" y="328" on="0"/>
        <pt x="582" y="323" on="0"/>
        <pt x="582" y="312" on="1"/>
        <pt x="582" y="295" on="0"/>
        <pt x="546" y="288" on="0"/>
        <pt x="528" y="288" on="1"/>
        <pt x="493" y="288" on="1"/>
        <pt x="476" y="288" on="0"/>
        <pt x="471" y="289" on="1"/>
        <pt x="458" y="277" on="1"/>
        <pt x="365" y="85" on="1"/>
        <pt x="365" y="84" on="0"/>
        <pt x="364" y="83" on="1"/>
        <pt x="364" y="81" on="0"/>
        <pt x="398" y="73" on="1"/>
        <pt x="472" y="55" on="0"/>
        <pt x="477" y="60" on="1"/>
        <pt x="620" y="16" on="1"/>
        <pt x="638" y="15" on="1"/>
        <pt x="721" y="15" on="0"/>
        <pt x="721" y="54" on="1"/>
      </contour>
      <contour>
        <pt x="123" y="29" on="1"/>
        <pt x="304" y="79" on="1"/>
        <pt x="311" y="80" on="0"/>
        <pt x="320" y="105" on="1"/>
        <pt x="338" y="153" on="0"/>
        <pt x="346" y="159" on="1"/>
        <pt x="607" y="569" on="1"/>
        <pt x="607" y="580" on="1"/>
        <pt x="464" y="580" on="1"/>
        <pt x="396" y="506" on="1"/>
        <pt x="123" y="54" on="1"/>
      </contour>
    </TTGlyph>
    <TTGlyph name="Zcaron" xMin="36" yMin="-40" xMax="762" yMax="867">
      <component glyphName="Z" x="0" y="0" flags="0x1204"/>
      <component glyphName="caron" x="197" y="46" flags="0x1004"/>
    </TTGlyph>
    <TTGlyph name="a" xMin="19" yMin="-47" xMax="541" yMax="452">
      <contour>
        <pt x="325" y="35" on="1"/>
        <pt x="257" y="-47" on="0"/>
        <pt x="153" y="-47" on="1"/>
        <pt x="94" y="-47" on="0"/>
        <pt x="54" y="-4" on="1"/>
        <pt x="19" y="35" on="0"/>
        <pt x="19" y="108" on="0"/>
        <pt x="54" y="161" on="0"/>
        <pt x="86" y="180" on="1"/>
        <pt x="156" y="223" on="0"/>
        <pt x="298" y="243" on="1"/>
        <pt x="313" y="245" on="0"/>
        <pt x="321" y="250" on="1"/>
        <pt x="335" y="260" on="0"/>
        <pt x="335" y="312" on="1"/>
        <pt x="335" y="368" on="0"/>
        <pt x="299" y="384" on="1"/>
        <pt x="285" y="391" on="0"/>
        <pt x="245" y="391" on="0"/>
        <pt x="227" y="377" on="0"/>
        <pt x="222" y="368" on="1"/>
        <pt x="216" y="355" on="0"/>
        <pt x="216" y="324" on="0"/>
        <pt x="225" y="316" on="0"/>
        <pt x="225" y="295" on="0"/>
        <pt x="213" y="284" on="0"/>
        <pt x="204" y="282" on="1"/>
        <pt x="191" y="278" on="0"/>
        <pt x="166" y="278" on="1"/>
        <pt x="148" y="278" on="0"/>
        <pt x="94" y="260" on="0"/>
        <pt x="90" y="260" on="1"/>
        <pt x="81" y="260" on="0"/>
        <pt x="72" y="282" on="0"/>
        <pt x="72" y="301" on="0"/>
        <pt x="86" y="333" on="0"/>
        <pt x="96" y="350" on="1"/>
        <pt x="119" y="387" on="0"/>
        <pt x="136" y="400" on="1"/>
        <pt x="167" y="423" on="0"/>
        <pt x="219" y="452" on="0"/>
        <pt x="274" y="452" on="0"/>
        <pt x="314" y="448" on="0"/>
        <pt x="334" y="442" on="1"/>
        <pt x="405" y="423" on="0"/>
        <pt x="432" y="375" on="1"/>
        <pt x="457" y="331" on="0"/>
        <pt x="457" y="269" on="1"/>
        <pt x="457" y="242" on="0"/>
        <pt x="443" y="186" on="0"/>
        <pt x="443" y="134" on="0"/>
        <pt x="452" y="99" on="0"/>
        <pt x="460" y="83" on="1"/>
        <pt x="477" y="46" on="0"/>
        <pt x="498" y="46" on="1"/>
        <pt x="504" y="46" on="0"/>
        <pt x="515" y="54" on="0"/>
        <pt x="520" y="54" on="1"/>
        <pt x="541" y="54" on="0"/>
        <pt x="541" y="33" on="1"/>
        <pt x="541" y="13" on="0"/>
        <pt x="523" y="-2" on="1"/>
        <pt x="487" y="-32" on="0"/>
        <pt x="421" y="-32" on="0"/>
        <pt x="393" y="-24" on="0"/>
        <pt x="371" y="-10" on="0"/>
        <pt x="355" y="5" on="0"/>
        <pt x="339" y="21" on="0"/>
        <pt x="326" y="35" on="0"/>
      </contour>
      <contour>
        <pt x="169" y="3" on="1"/>
        <pt x="144" y="60" on="0"/>
        <pt x="144" y="128" on="0"/>
        <pt x="161" y="169" on="0"/>
        <pt x="175" y="189" on="1"/>
        <pt x="118" y="162" on="0"/>
        <pt x="98" y="148" on="1"/>
        <pt x="55" y="116" on="0"/>
        <pt x="55" y="79" on="1"/>
        <pt x="55" y="45" on="0"/>
        <pt x="88" y="20" on="1"/>
        <pt x="117" y="-1" on="0"/>
        <pt x="149" y="-1" on="1"/>
        <pt x="160" y="-1" on="0"/>
      </contour>
      <contour>
        <pt x="196" y="153" on="1"/>
        <pt x="185" y="135" on="0"/>
        <pt x="185" y="103" on="0"/>
        <pt x="187" y="72" on="0"/>
        <pt x="190" y="56" on="1"/>
        <pt x="199" y="17" on="0"/>
        <pt x="216" y="15" on="1"/>
        <pt x="241" y="15" on="0"/>
        <pt x="259" y="29" on="1"/>
        <pt x="291" y="54" on="0"/>
        <pt x="293" y="79" on="1"/>
        <pt x="305" y="204" on="1"/>
        <pt x="227" y="204" on="0"/>
      </contour>
      <contour>
        <pt x="354" y="383" on="1"/>
        <pt x="380" y="343" on="0"/>
        <pt x="380" y="298" on="1"/>
        <pt x="380" y="268" on="0"/>
        <pt x="356" y="207" on="0"/>
        <pt x="345" y="171" on="0"/>
        <pt x="345" y="121" on="0"/>
        <pt x="356" y="73" on="0"/>
        <pt x="370" y="54" on="1"/>
        <pt x="400" y="13" on="0"/>
        <pt x="458" y="13" on="1"/>
        <pt x="404" y="75" on="0"/>
        <pt x="404" y="175" on="1"/>
        <pt x="404" y="201" on="0"/>
        <pt x="410" y="224" on="1"/>
        <pt x="421" y="265" on="0"/>
        <pt x="421" y="308" on="0"/>
        <pt x="410" y="338" on="0"/>
        <pt x="400" y="351" on="1"/>
        <pt x="380" y="379" on="0"/>
      </contour>
      <contour>
        <pt x="182" y="341" on="1"/>
        <pt x="183" y="385" on="1"/>
        <pt x="158" y="383" on="0"/>
        <pt x="136" y="354" on="1"/>
        <pt x="114" y="323" on="0"/>
        <pt x="114" y="298" on="1"/>
        <pt x="122" y="306" on="0"/>
        <pt x="147" y="306" on="1"/>
        <pt x="178" y="306" on="1"/>
        <pt x="183" y="306" on="0"/>
        <pt x="186" y="305" on="1"/>
        <pt x="182" y="316" on="0"/>
      </contour>
    </TTGlyph>
    <TTGlyph name="aacute" xMin="19" yMin="-47" xMax="541" yMax="656">
      <component glyphName="a" x="0" y="0" flags="0x1204"/>
      <component glyphName="acute" x="150" y="-113" flags="0x1004"/>
    </TTGlyph>
    <TTGlyph name="acircumflex" xMin="19" yMin="-47" xMax="541" yMax="684">
      <component glyphName="a" x="0" y="0" flags="0x1204"/>
      <component glyphName="circumflex" x="69" y="-104" flags="0x1004"/>
    </TTGlyph>
    <TTGlyph name="acute" xMin="11" yMin="682" xMax="232" yMax="769">
      <contour>
        <pt x="202" y="768" on="1"/>
        <pt x="206" y="769" on="1"/>
        <pt x="216" y="769" on="0"/>
        <pt x="232" y="757" on="0"/>
        <pt x="232" y="745" on="0"/>
        <pt x="231" y="745" on="0"/>
        <pt x="231" y="744" on="1"/>
        <pt x="231" y="743" on="1"/>
        <pt x="43" y="683" on="1"/>
        <pt x="41" y="682" on="0"/>
        <pt x="39" y="682" on="1"/>
        <pt x="32" y="682" on="1"/>
        <pt x="21" y="682" on="0"/>
        <pt x="11" y="688" on="0"/>
        <pt x="11" y="700" on="1"/>
        <pt x="11" y="705" on="1"/>
        <pt x="11" y="707" on="0"/>
        <pt x="12" y="708" on="1"/>
        <pt x="200" y="768" on="1"/>
      </contour>
    </TTGlyph>
    <TTGlyph name="adieresis" xMin="19" yMin="-47" xMax="541" yMax="703">
      <component glyphName="a" x="0" y="0" flags="0x1204"/>
      <component glyphName="dieresis" x="-6" y="-95" flags="0x1004"/>
    </TTGlyph>
    <TTGlyph name="ae" xMin="30" yMin="-65" xMax="693" yMax="462">
      <contour>
        <pt x="505" y="-65" on="1"/>
        <pt x="495" y="-64" on="1"/>
        <pt x="488" y="-63" on="0"/>
        <pt x="459" y="-56" on="0"/>
        <pt x="444" y="-52" on="1"/>
        <pt x="405" y="-44" on="0"/>
        <pt x="402" y="-41" on="1"/>
        <pt x="363" y="-22" on="0"/>
        <pt x="327" y="46" on="1"/>
        <pt x="316" y="37" on="0"/>
        <pt x="299" y="14" on="0"/>
        <pt x="290" y="4" on="1"/>
        <pt x="270" y="-22" on="0"/>
        <pt x="231" y="-37" on="0"/>
        <pt x="208" y="-44" on="0"/>
        <pt x="198" y="-46" on="1"/>
        <pt x="183" y="-48" on="0"/>
        <pt x="165" y="-48" on="1"/>
        <pt x="136" y="-48" on="0"/>
        <pt x="95" y="-29" on="0"/>
        <pt x="62" y="-5" on="0"/>
        <pt x="54" y="8" on="1"/>
        <pt x="40" y="30" on="0"/>
        <pt x="40" y="74" on="1"/>
        <pt x="40" y="97" on="0"/>
        <pt x="44" y="106" on="1"/>
        <pt x="51" y="120" on="0"/>
        <pt x="73" y="146" on="1"/>
        <pt x="78" y="157" on="0"/>
        <pt x="109" y="163" on="0"/>
        <pt x="150" y="178" on="0"/>
        <pt x="196" y="196" on="0"/>
        <pt x="217" y="196" on="1"/>
        <pt x="252" y="196" on="0"/>
        <pt x="315" y="202" on="1"/>
        <pt x="332" y="204" on="0"/>
        <pt x="340" y="234" on="0"/>
        <pt x="340" y="255" on="1"/>
        <pt x="340" y="346" on="1"/>
        <pt x="314" y="380" on="0"/>
        <pt x="295" y="392" on="1"/>
        <pt x="265" y="411" on="0"/>
        <pt x="222" y="417" on="1"/>
        <pt x="220" y="417" on="0"/>
        <pt x="215" y="412" on="1"/>
        <pt x="197" y="374" on="0"/>
        <pt x="187" y="287" on="0"/>
        <pt x="185" y="246" on="1"/>
        <pt x="179" y="240" on="1"/>
        <pt x="179" y="240" on="0"/>
        <pt x="164" y="238" on="1"/>
        <pt x="148" y="237" on="0"/>
        <pt x="128" y="234" on="1"/>
        <pt x="82" y="229" on="0"/>
        <pt x="30" y="229" on="0"/>
        <pt x="30" y="251" on="1"/>
        <pt x="30" y="262" on="0"/>
        <pt x="54" y="355" on="0"/>
        <pt x="65" y="382" on="0"/>
        <pt x="88" y="421" on="0"/>
        <pt x="104" y="434" on="1"/>
        <pt x="135" y="462" on="0"/>
        <pt x="198" y="462" on="1"/>
        <pt x="206" y="462" on="0"/>
        <pt x="214" y="459" on="0"/>
        <pt x="246" y="449" on="0"/>
        <pt x="291" y="434" on="0"/>
        <pt x="312" y="424" on="1"/>
        <pt x="355" y="403" on="0"/>
        <pt x="377" y="362" on="1"/>
        <pt x="389" y="394" on="0"/>
        <pt x="465" y="441" on="0"/>
        <pt x="501" y="441" on="1"/>
        <pt x="509" y="441" on="0"/>
        <pt x="565" y="420" on="0"/>
        <pt x="597" y="409" on="0"/>
        <pt x="625" y="396" on="0"/>
        <pt x="636" y="388" on="1"/>
        <pt x="657" y="370" on="0"/>
        <pt x="678" y="324" on="1"/>
        <pt x="683" y="314" on="0"/>
        <pt x="693" y="282" on="0"/>
        <pt x="693" y="271" on="0"/>
        <pt x="682" y="238" on="0"/>
        <pt x="675" y="220" on="1"/>
        <pt x="658" y="179" on="0"/>
        <pt x="649" y="174" on="1"/>
        <pt x="606" y="174" on="1"/>
        <pt x="581" y="174" on="0"/>
        <pt x="563" y="180" on="1"/>
        <pt x="553" y="181" on="0"/>
        <pt x="527" y="182" on="0"/>
        <pt x="514" y="183" on="1"/>
        <pt x="482" y="185" on="0"/>
        <pt x="464" y="196" on="1"/>
        <pt x="463" y="177" on="1"/>
        <pt x="463" y="161" on="0"/>
        <pt x="470" y="142" on="0"/>
        <pt x="470" y="129" on="1"/>
        <pt x="469" y="102" on="1"/>
        <pt x="470" y="91" on="1"/>
        <pt x="470" y="65" on="0"/>
        <pt x="494" y="10" on="0"/>
        <pt x="520" y="-21" on="0"/>
        <pt x="557" y="-21" on="0"/>
        <pt x="576" y="1" on="0"/>
        <pt x="586" y="35" on="0"/>
        <pt x="590" y="73" on="0"/>
        <pt x="592" y="90" on="1"/>
        <pt x="597" y="129" on="0"/>
        <pt x="609" y="129" on="1"/>
        <pt x="618" y="129" on="0"/>
        <pt x="633" y="120" on="1"/>
        <pt x="649" y="112" on="1"/>
        <pt x="668" y="100" on="0"/>
        <pt x="692" y="72" on="0"/>
        <pt x="693" y="70" on="1"/>
        <pt x="686" y="35" on="0"/>
        <pt x="686" y="34" on="1"/>
        <pt x="687" y="23" on="1"/>
        <pt x="687" y="3" on="0"/>
        <pt x="646" y="-22" on="1"/>
        <pt x="577" y="-65" on="0"/>
      </contour>
      <contour>
        <pt x="365" y="52" on="1"/>
        <pt x="365" y="49" on="0"/>
        <pt x="377" y="29" on="1"/>
        <pt x="415" y="-24" on="0"/>
        <pt x="482" y="-26" on="1"/>
        <pt x="482" y="-13" on="0"/>
        <pt x="454" y="20" on="0"/>
        <pt x="445" y="46" on="1"/>
        <pt x="443" y="55" on="0"/>
        <pt x="436" y="103" on="0"/>
        <pt x="432" y="130" on="1"/>
        <pt x="421" y="201" on="0"/>
        <pt x="420" y="212" on="1"/>
        <pt x="420" y="264" on="0"/>
        <pt x="428" y="290" on="1"/>
        <pt x="438" y="321" on="0"/>
        <pt x="464" y="374" on="1"/>
        <pt x="464" y="383" on="0"/>
        <pt x="478" y="392" on="0"/>
        <pt x="478" y="403" on="1"/>
        <pt x="427" y="380" on="0"/>
        <pt x="415" y="362" on="1"/>
        <pt x="400" y="338" on="0"/>
        <pt x="386" y="268" on="0"/>
        <pt x="383" y="257" on="1"/>
        <pt x="371" y="233" on="0"/>
        <pt x="370" y="217" on="1"/>
        <pt x="368" y="187" on="0"/>
        <pt x="365" y="180" on="1"/>
      </contour>
      <contour>
        <pt x="203" y="157" on="1"/>
        <pt x="197" y="158" on="1"/>
        <pt x="182" y="150" on="0"/>
        <pt x="141" y="138" on="0"/>
        <pt x="122" y="129" on="1"/>
        <pt x="79" y="108" on="0"/>
        <pt x="79" y="66" on="1"/>
        <pt x="79" y="35" on="0"/>
        <pt x="130" y="-9" on="0"/>
        <pt x="166" y="-9" on="1"/>
        <pt x="154" y="14" on="1"/>
        <pt x="153" y="20" on="0"/>
        <pt x="153" y="25" on="1"/>
        <pt x="152" y="30" on="0"/>
        <pt x="152" y="34" on="1"/>
        <pt x="152" y="42" on="1"/>
        <pt x="152" y="106" on="0"/>
      </contour>
      <contour>
        <pt x="298" y="84" on="0"/>
        <pt x="315" y="125" on="0"/>
        <pt x="315" y="158" on="0"/>
        <pt x="304" y="158" on="1"/>
        <pt x="262" y="158" on="0"/>
        <pt x="227" y="118" on="1"/>
        <pt x="195" y="82" on="0"/>
        <pt x="195" y="44" on="1"/>
        <pt x="195" y="23" on="0"/>
        <pt x="197" y="19" on="1"/>
        <pt x="198" y="17" on="0"/>
        <pt x="219" y="2" on="0"/>
        <pt x="227" y="2" on="0"/>
        <pt x="247" y="14" on="1"/>
        <pt x="258" y="14" on="0"/>
      </contour>
      <contour>
        <pt x="626" y="77" on="1"/>
        <pt x="626" y="47" on="0"/>
        <pt x="613" y="8" on="1"/>
        <pt x="614" y="8" on="0"/>
        <pt x="621" y="7" on="0"/>
        <pt x="634" y="21" on="0"/>
        <pt x="638" y="30" on="1"/>
        <pt x="649" y="51" on="0"/>
        <pt x="649" y="68" on="0"/>
        <pt x="634" y="77" on="0"/>
      </contour>
      <contour>
        <pt x="601" y="285" on="1"/>
        <pt x="601" y="247" on="0"/>
        <pt x="594" y="223" on="1"/>
        <pt x="596" y="219" on="0"/>
        <pt x="608" y="212" on="0"/>
        <pt x="622" y="212" on="0"/>
        <pt x="635" y="231" on="0"/>
        <pt x="640" y="244" on="1"/>
        <pt x="650" y="272" on="0"/>
        <pt x="650" y="314" on="0"/>
        <pt x="633" y="340" on="0"/>
        <pt x="614" y="364" on="0"/>
        <pt x="591" y="390" on="0"/>
        <pt x="579" y="390" on="1"/>
        <pt x="578" y="390" on="0"/>
        <pt x="578" y="389" on="0"/>
        <pt x="577" y="389" on="1"/>
        <pt x="575" y="389" on="1"/>
        <pt x="601" y="344" on="0"/>
        <pt x="601" y="291" on="1"/>
      </contour>
      <contour>
        <pt x="544" y="229" on="1"/>
        <pt x="548" y="259" on="0"/>
        <pt x="557" y="274" on="1"/>
        <pt x="557" y="322" on="0"/>
        <pt x="534" y="362" on="1"/>
        <pt x="526" y="374" on="0"/>
        <pt x="511" y="374" on="0"/>
        <pt x="507" y="368" on="1"/>
        <pt x="487" y="334" on="0"/>
        <pt x="463" y="274" on="0"/>
        <pt x="463" y="236" on="1"/>
        <pt x="463" y="224" on="0"/>
        <pt x="478" y="218" on="0"/>
        <pt x="504" y="218" on="0"/>
        <pt x="535" y="219" on="0"/>
        <pt x="550" y="219" on="1"/>
        <pt x="548" y="220" on="0"/>
        <pt x="544" y="228" on="0"/>
      </contour>
      <contour>
        <pt x="166" y="417" on="1"/>
        <pt x="131" y="417" on="0"/>
        <pt x="106" y="367" on="1"/>
        <pt x="79" y="313" on="0"/>
        <pt x="79" y="268" on="1"/>
        <pt x="140" y="268" on="1"/>
      </contour>
    </TTGlyph>
    <TTGlyph name="agrave" xMin="19" yMin="-47" xMax="541" yMax="656">
      <component glyphName="a" x="0" y="0" flags="0x1204"/>
      <component glyphName="grave" x="150" y="-113" flags="0x1004"/>
    </TTGlyph>
    <TTGlyph name="ampersand" xMin="36" yMin="-4" xMax="703" yMax="679">
      <contour>
        <pt x="613" y="86" on="0"/>
        <pt x="651" y="74" on="0"/>
        <pt x="651" y="37" on="0"/>
        <pt x="604" y="37" on="0"/>
        <pt x="568" y="48" on="0"/>
        <pt x="550" y="55" on="1"/>
        <pt x="500" y="74" on="0"/>
        <pt x="477" y="78" on="1"/>
        <pt x="473" y="78" on="0"/>
        <pt x="450" y="64" on="1"/>
        <pt x="410" y="37" on="1"/>
        <pt x="383" y="23" on="1"/>
        <pt x="355" y="5" on="0"/>
        <pt x="303" y="-4" on="0"/>
        <pt x="274" y="-4" on="1"/>
        <pt x="238" y="-4" on="1"/>
        <pt x="148" y="-4" on="0"/>
        <pt x="93" y="47" on="1"/>
        <pt x="36" y="100" on="0"/>
        <pt x="36" y="187" on="1"/>
        <pt x="36" y="208" on="1"/>
        <pt x="36" y="222" on="0"/>
        <pt x="38" y="228" on="0"/>
        <pt x="51" y="256" on="0"/>
        <pt x="60" y="273" on="1"/>
        <pt x="76" y="306" on="1"/>
        <pt x="88" y="329" on="0"/>
        <pt x="108" y="352" on="0"/>
        <pt x="118" y="363" on="1"/>
        <pt x="142" y="392" on="0"/>
        <pt x="145" y="399" on="0"/>
        <pt x="145" y="406" on="1"/>
        <pt x="145" y="420" on="1"/>
        <pt x="144" y="496" on="1"/>
        <pt x="144" y="504" on="1"/>
        <pt x="144" y="510" on="0"/>
        <pt x="155" y="565" on="0"/>
        <pt x="166" y="607" on="0"/>
        <pt x="191" y="650" on="0"/>
        <pt x="210" y="662" on="1"/>
        <pt x="240" y="679" on="0"/>
        <pt x="321" y="679" on="1"/>
        <pt x="349" y="679" on="0"/>
        <pt x="367" y="670" on="1"/>
        <pt x="387" y="660" on="0"/>
        <pt x="437" y="623" on="1"/>
        <pt x="463" y="605" on="0"/>
        <pt x="463" y="551" on="1"/>
        <pt x="463" y="500" on="0"/>
        <pt x="409" y="428" on="1"/>
        <pt x="389" y="402" on="0"/>
        <pt x="366" y="379" on="1"/>
        <pt x="326" y="339" on="0"/>
        <pt x="270" y="283" on="0"/>
        <pt x="263" y="277" on="1"/>
        <pt x="302" y="228" on="0"/>
        <pt x="404" y="170" on="1"/>
        <pt x="454" y="142" on="0"/>
        <pt x="473" y="142" on="0"/>
        <pt x="508" y="171" on="0"/>
        <pt x="526" y="191" on="1"/>
        <pt x="568" y="240" on="0"/>
        <pt x="570" y="263" on="1"/>
        <pt x="571" y="288" on="1"/>
        <pt x="571" y="288" on="0"/>
        <pt x="571" y="354" on="1"/>
        <pt x="570" y="384" on="1"/>
        <pt x="559" y="403" on="0"/>
        <pt x="503" y="411" on="1"/>
        <pt x="503" y="437" on="1"/>
        <pt x="703" y="437" on="1"/>
        <pt x="703" y="411" on="1"/>
        <pt x="686" y="411" on="0"/>
        <pt x="640" y="399" on="0"/>
        <pt x="632" y="394" on="0"/>
        <pt x="622" y="358" on="0"/>
        <pt x="618" y="334" on="1"/>
        <pt x="610" y="276" on="0"/>
        <pt x="610" y="237" on="1"/>
        <pt x="608" y="235" on="0"/>
        <pt x="598" y="226" on="0"/>
        <pt x="596" y="224" on="1"/>
        <pt x="529" y="130" on="1"/>
        <pt x="529" y="123" on="1"/>
        <pt x="529" y="105" on="0"/>
        <pt x="567" y="93" on="0"/>
      </contour>
      <contour>
        <pt x="199" y="188" on="0"/>
        <pt x="196" y="159" on="0"/>
        <pt x="196" y="128" on="0"/>
        <pt x="204" y="92" on="0"/>
        <pt x="230" y="73" on="0"/>
        <pt x="249" y="59" on="0"/>
        <pt x="260" y="52" on="1"/>
        <pt x="288" y="37" on="0"/>
        <pt x="304" y="37" on="1"/>
        <pt x="307" y="37" on="0"/>
        <pt x="351" y="48" on="0"/>
        <pt x="362" y="52" on="0"/>
        <pt x="386" y="63" on="0"/>
        <pt x="397" y="70" on="1"/>
        <pt x="425" y="88" on="0"/>
        <pt x="425" y="97" on="1"/>
        <pt x="425" y="103" on="0"/>
        <pt x="311" y="177" on="0"/>
        <pt x="298" y="187" on="0"/>
        <pt x="275" y="206" on="0"/>
        <pt x="263" y="215" on="1"/>
        <pt x="232" y="238" on="0"/>
        <pt x="219" y="238" on="0"/>
        <pt x="206" y="217" on="0"/>
      </contour>
      <contour>
        <pt x="403" y="598" on="1"/>
        <pt x="396" y="596" on="1"/>
        <pt x="385" y="556" on="0"/>
        <pt x="366" y="532" on="1"/>
        <pt x="336" y="492" on="0"/>
        <pt x="290" y="450" on="1"/>
        <pt x="283" y="443" on="0"/>
        <pt x="260" y="427" on="1"/>
        <pt x="219" y="398" on="0"/>
        <pt x="210" y="384" on="1"/>
        <pt x="206" y="377" on="0"/>
        <pt x="184" y="357" on="0"/>
        <pt x="170" y="343" on="1"/>
        <pt x="165" y="340" on="0"/>
        <pt x="156" y="330" on="1"/>
        <pt x="136" y="310" on="1"/>
        <pt x="97" y="272" on="0"/>
        <pt x="81" y="243" on="0"/>
        <pt x="78" y="232" on="1"/>
        <pt x="75" y="215" on="0"/>
        <pt x="75" y="139" on="0"/>
        <pt x="84" y="97" on="0"/>
        <pt x="108" y="70" on="0"/>
        <pt x="150" y="50" on="0"/>
        <pt x="183" y="37" on="1"/>
        <pt x="196" y="37" on="1"/>
        <pt x="169" y="59" on="0"/>
        <pt x="142" y="108" on="0"/>
        <pt x="142" y="159" on="0"/>
        <pt x="145" y="183" on="0"/>
        <pt x="148" y="195" on="1"/>
        <pt x="152" y="210" on="0"/>
        <pt x="170" y="251" on="1"/>
        <pt x="185" y="280" on="0"/>
        <pt x="237" y="325" on="0"/>
        <pt x="263" y="343" on="1"/>
        <pt x="291" y="369" on="0"/>
        <pt x="342" y="418" on="0"/>
        <pt x="362" y="445" on="1"/>
        <pt x="407" y="504" on="0"/>
        <pt x="423" y="571" on="1"/>
        <pt x="426" y="581" on="0"/>
        <pt x="413" y="598" on="0"/>
      </contour>
      <contour>
        <pt x="344" y="635" on="0"/>
        <pt x="319" y="637" on="0"/>
        <pt x="267" y="637" on="0"/>
        <pt x="224" y="617" on="0"/>
        <pt x="213" y="598" on="1"/>
        <pt x="196" y="570" on="0"/>
        <pt x="196" y="496" on="1"/>
        <pt x="196" y="437" on="1"/>
        <pt x="222" y="454" on="0"/>
        <pt x="276" y="490" on="0"/>
        <pt x="299" y="512" on="1"/>
        <pt x="351" y="561" on="0"/>
        <pt x="356" y="623" on="1"/>
      </contour>
    </TTGlyph>
    <TTGlyph name="aring" xMin="19" yMin="-47" xMax="541" yMax="713">
      <component glyphName="a" x="0" y="0" flags="0x1204"/>
      <component glyphName="ring" x="154" y="-185" flags="0x1004"/>
    </TTGlyph>
    <TTGlyph name="asciicircum" xMin="12" yMin="427" xMax="391" yMax="664">
      <contour>
        <pt x="201" y="663" on="1"/>
        <pt x="206" y="664" on="1"/>
        <pt x="240" y="657" on="0"/>
        <pt x="248" y="651" on="1"/>
        <pt x="379" y="533" on="1"/>
        <pt x="381" y="531" on="0"/>
        <pt x="391" y="514" on="0"/>
        <pt x="391" y="508" on="1"/>
        <pt x="391" y="496" on="0"/>
        <pt x="366" y="496" on="1"/>
        <pt x="236" y="601" on="1"/>
        <pt x="232" y="605" on="0"/>
        <pt x="223" y="607" on="0"/>
        <pt x="219" y="608" on="0"/>
        <pt x="219" y="607" on="0"/>
        <pt x="218" y="607" on="1"/>
        <pt x="217" y="607" on="1"/>
        <pt x="69" y="446" on="1"/>
        <pt x="58" y="435" on="0"/>
        <pt x="46" y="427" on="0"/>
        <pt x="26" y="427" on="0"/>
        <pt x="17" y="432" on="0"/>
        <pt x="12" y="440" on="1"/>
        <pt x="18" y="469" on="0"/>
        <pt x="43" y="495" on="0"/>
        <pt x="69" y="508" on="1"/>
        <pt x="198" y="663" on="1"/>
      </contour>
    </TTGlyph>
    <TTGlyph name="asciitilde" xMin="42" yMin="260" xMax="613" yMax="416">
      <contour>
        <pt x="64" y="260" on="1"/>
        <pt x="42" y="260" on="0"/>
        <pt x="42" y="310" on="0"/>
        <pt x="79" y="343" on="0"/>
        <pt x="101" y="363" on="1"/>
        <pt x="141" y="399" on="0"/>
        <pt x="224" y="399" on="1"/>
        <pt x="224" y="399" on="0"/>
        <pt x="260" y="397" on="1"/>
        <pt x="445" y="347" on="1"/>
        <pt x="454" y="346" on="1"/>
        <pt x="501" y="346" on="0"/>
        <pt x="563" y="378" on="0"/>
        <pt x="588" y="416" on="1"/>
        <pt x="600" y="416" on="0"/>
        <pt x="609" y="407" on="0"/>
        <pt x="613" y="397" on="1"/>
        <pt x="600" y="327" on="0"/>
        <pt x="513" y="309" on="1"/>
        <pt x="489" y="304" on="0"/>
        <pt x="466" y="304" on="1"/>
        <pt x="452" y="304" on="1"/>
        <pt x="235" y="354" on="1"/>
        <pt x="223" y="354" on="1"/>
        <pt x="165" y="354" on="0"/>
        <pt x="122" y="307" on="1"/>
        <pt x="105" y="289" on="0"/>
        <pt x="79" y="260" on="0"/>
      </contour>
    </TTGlyph>
    <TTGlyph name="asterisk" xMin="34" yMin="440" xMax="299" yMax="692">
      <contour>
        <pt x="276" y="661" on="1"/>
        <pt x="276" y="637" on="0"/>
        <pt x="262" y="616" on="1"/>
        <pt x="290" y="607" on="0"/>
        <pt x="299" y="591" on="1"/>
        <pt x="262" y="578" on="0"/>
        <pt x="211" y="566" on="1"/>
        <pt x="221" y="550" on="0"/>
        <pt x="267" y="530" on="0"/>
        <pt x="291" y="516" on="0"/>
        <pt x="299" y="504" on="1"/>
        <pt x="299" y="500" on="0"/>
        <pt x="289" y="490" on="0"/>
        <pt x="287" y="490" on="1"/>
        <pt x="285" y="490" on="0"/>
        <pt x="256" y="500" on="0"/>
        <pt x="246" y="505" on="0"/>
        <pt x="229" y="511" on="0"/>
        <pt x="220" y="515" on="1"/>
        <pt x="199" y="524" on="0"/>
        <pt x="192" y="529" on="1"/>
        <pt x="192" y="440" on="1"/>
        <pt x="167" y="440" on="1"/>
        <pt x="167" y="529" on="1"/>
        <pt x="162" y="524" on="0"/>
        <pt x="111" y="490" on="1"/>
        <pt x="104" y="490" on="1"/>
        <pt x="96" y="490" on="0"/>
        <pt x="85" y="502" on="0"/>
        <pt x="85" y="521" on="0"/>
        <pt x="98" y="529" on="1"/>
        <pt x="91" y="529" on="1"/>
        <pt x="80" y="529" on="0"/>
        <pt x="64" y="515" on="0"/>
        <pt x="45" y="515" on="0"/>
        <pt x="34" y="527" on="0"/>
        <pt x="34" y="535" on="1"/>
        <pt x="35" y="541" on="1"/>
        <pt x="39" y="543" on="0"/>
        <pt x="61" y="553" on="0"/>
        <pt x="73" y="559" on="1"/>
        <pt x="96" y="570" on="1"/>
        <pt x="117" y="581" on="0"/>
        <pt x="123" y="590" on="0"/>
        <pt x="123" y="610" on="0"/>
        <pt x="114" y="625" on="0"/>
        <pt x="108" y="632" on="1"/>
        <pt x="94" y="649" on="0"/>
        <pt x="94" y="671" on="1"/>
        <pt x="109" y="671" on="0"/>
        <pt x="128" y="649" on="0"/>
        <pt x="134" y="642" on="1"/>
        <pt x="147" y="624" on="0"/>
        <pt x="159" y="630" on="1"/>
        <pt x="163" y="632" on="0"/>
        <pt x="167" y="635" on="1"/>
        <pt x="167" y="692" on="1"/>
        <pt x="198" y="692" on="1"/>
        <pt x="198" y="629" on="1"/>
        <pt x="228" y="661" on="0"/>
      </contour>
    </TTGlyph>
    <TTGlyph name="at" xMin="46" yMin="35" xMax="652" yMax="564">
      <contour>
        <pt x="484" y="249" on="1"/>
        <pt x="538" y="267" on="0"/>
        <pt x="538" y="388" on="1"/>
        <pt x="538" y="402" on="1"/>
        <pt x="537" y="432" on="1"/>
        <pt x="537" y="438" on="1"/>
        <pt x="533" y="469" on="0"/>
        <pt x="496" y="492" on="1"/>
        <pt x="461" y="514" on="0"/>
        <pt x="396" y="514" on="0"/>
        <pt x="330" y="484" on="0"/>
        <pt x="300" y="462" on="1"/>
        <pt x="261" y="433" on="0"/>
        <pt x="197" y="362" on="1"/>
        <pt x="170" y="331" on="0"/>
        <pt x="158" y="270" on="0"/>
        <pt x="158" y="248" on="1"/>
        <pt x="158" y="219" on="1"/>
        <pt x="160" y="174" on="1"/>
        <pt x="212" y="109" on="0"/>
        <pt x="320" y="91" on="1"/>
        <pt x="350" y="86" on="0"/>
        <pt x="386" y="86" on="1"/>
        <pt x="468" y="86" on="0"/>
        <pt x="537" y="124" on="1"/>
        <pt x="543" y="128" on="0"/>
        <pt x="570" y="145" on="0"/>
        <pt x="584" y="154" on="1"/>
        <pt x="618" y="175" on="0"/>
        <pt x="619" y="175" on="1"/>
        <pt x="637" y="175" on="0"/>
        <pt x="637" y="162" on="1"/>
        <pt x="637" y="145" on="0"/>
        <pt x="610" y="120" on="1"/>
        <pt x="584" y="97" on="0"/>
        <pt x="508" y="58" on="0"/>
        <pt x="478" y="50" on="1"/>
        <pt x="425" y="35" on="0"/>
        <pt x="311" y="35" on="0"/>
        <pt x="248" y="41" on="0"/>
        <pt x="217" y="49" on="1"/>
        <pt x="112" y="76" on="0"/>
        <pt x="64" y="184" on="1"/>
        <pt x="46" y="227" on="0"/>
        <pt x="46" y="309" on="0"/>
        <pt x="76" y="378" on="0"/>
        <pt x="123" y="458" on="0"/>
        <pt x="196" y="510" on="0"/>
        <pt x="282" y="540" on="0"/>
        <pt x="376" y="556" on="0"/>
        <pt x="424" y="564" on="1"/>
        <pt x="442" y="564" on="1"/>
        <pt x="472" y="564" on="0"/>
        <pt x="573" y="532" on="0"/>
        <pt x="606" y="517" on="0"/>
        <pt x="631" y="477" on="0"/>
        <pt x="638" y="452" on="1"/>
        <pt x="652" y="408" on="0"/>
        <pt x="652" y="330" on="0"/>
        <pt x="623" y="268" on="0"/>
        <pt x="600" y="243" on="1"/>
        <pt x="546" y="186" on="0"/>
        <pt x="486" y="186" on="1"/>
        <pt x="481" y="186" on="0"/>
        <pt x="442" y="201" on="0"/>
        <pt x="422" y="212" on="0"/>
        <pt x="413" y="224" on="0"/>
        <pt x="412" y="224" on="1"/>
        <pt x="373" y="212" on="1"/>
        <pt x="313" y="212" on="0"/>
        <pt x="284" y="246" on="1"/>
        <pt x="272" y="260" on="0"/>
        <pt x="272" y="281" on="1"/>
        <pt x="272" y="285" on="1"/>
        <pt x="272" y="289" on="0"/>
        <pt x="302" y="349" on="0"/>
        <pt x="317" y="368" on="1"/>
        <pt x="353" y="415" on="0"/>
        <pt x="393" y="415" on="1"/>
        <pt x="429" y="415" on="0"/>
        <pt x="448" y="376" on="1"/>
        <pt x="462" y="347" on="0"/>
        <pt x="462" y="291" on="0"/>
        <pt x="451" y="269" on="0"/>
        <pt x="451" y="257" on="1"/>
      </contour>
      <contour>
        <pt x="164" y="124" on="1"/>
        <pt x="164" y="130" on="0"/>
        <pt x="155" y="130" on="0"/>
        <pt x="155" y="124" on="1"/>
        <pt x="155" y="118" on="0"/>
        <pt x="164" y="118" on="0"/>
      </contour>
      <contour>
        <pt x="139" y="149" on="1"/>
        <pt x="139" y="155" on="0"/>
        <pt x="130" y="155" on="0"/>
        <pt x="130" y="149" on="1"/>
        <pt x="130" y="143" on="0"/>
        <pt x="139" y="143" on="0"/>
      </contour>
      <contour>
        <pt x="121" y="174" on="1"/>
        <pt x="128" y="174" on="0"/>
        <pt x="128" y="185" on="0"/>
        <pt x="122" y="187" on="1"/>
        <pt x="116" y="187" on="0"/>
        <pt x="116" y="174" on="0"/>
      </contour>
      <contour>
        <pt x="261" y="488" on="1"/>
        <pt x="96" y="417" on="0"/>
        <pt x="96" y="271" on="1"/>
        <pt x="95" y="247" on="1"/>
        <pt x="95" y="212" on="0"/>
        <pt x="110" y="199" on="1"/>
        <pt x="122" y="212" on="1"/>
        <pt x="129" y="349" on="0"/>
        <pt x="172" y="401" on="1"/>
        <pt x="183" y="415" on="0"/>
        <pt x="255" y="484" on="0"/>
      </contour>
      <contour>
        <pt x="310" y="280" on="1"/>
        <pt x="310" y="270" on="0"/>
        <pt x="349" y="237" on="1"/>
        <pt x="376" y="237" on="0"/>
        <pt x="397" y="286" on="1"/>
        <pt x="412" y="320" on="0"/>
        <pt x="412" y="355" on="0"/>
        <pt x="407" y="376" on="0"/>
        <pt x="392" y="376" on="1"/>
        <pt x="386" y="375" on="1"/>
        <pt x="310" y="311" on="0"/>
      </contour>
      <contour>
        <pt x="575" y="468" on="0"/>
        <pt x="587" y="433" on="0"/>
        <pt x="587" y="404" on="1"/>
        <pt x="587" y="344" on="0"/>
        <pt x="562" y="262" on="1"/>
        <pt x="610" y="295" on="0"/>
        <pt x="613" y="342" on="1"/>
        <pt x="614" y="356" on="0"/>
        <pt x="614" y="388" on="0"/>
        <pt x="612" y="423" on="0"/>
        <pt x="608" y="439" on="1"/>
        <pt x="601" y="475" on="0"/>
        <pt x="575" y="488" on="1"/>
      </contour>
    </TTGlyph>
    <TTGlyph name="atilde" xMin="6" yMin="-47" xMax="541" yMax="696">
      <component glyphName="a" x="0" y="0" flags="0x1204"/>
      <component glyphName="tilde" x="-30" y="-131" flags="0x1004"/>
    </TTGlyph>
    <TTGlyph name="b" xMin="-18" yMin="-37" xMax="541" yMax="693">
      <contour>
        <pt x="58" y="566" on="1"/>
        <pt x="52" y="563" on="0"/>
        <pt x="2" y="563" on="0"/>
        <pt x="-18" y="573" on="0"/>
        <pt x="-18" y="596" on="0"/>
        <pt x="-11" y="607" on="0"/>
        <pt x="0" y="613" on="0"/>
        <pt x="11" y="615" on="0"/>
        <pt x="22" y="618" on="0"/>
        <pt x="38" y="624" on="1"/>
        <pt x="73" y="635" on="1"/>
        <pt x="130" y="654" on="0"/>
        <pt x="162" y="670" on="0"/>
        <pt x="176" y="676" on="1"/>
        <pt x="210" y="693" on="0"/>
        <pt x="242" y="693" on="0"/>
        <pt x="253" y="677" on="0"/>
        <pt x="253" y="650" on="0"/>
        <pt x="241" y="635" on="0"/>
        <pt x="238" y="611" on="0"/>
        <pt x="229" y="552" on="0"/>
        <pt x="224" y="514" on="1"/>
        <pt x="209" y="402" on="0"/>
        <pt x="208" y="361" on="1"/>
        <pt x="230" y="384" on="1"/>
        <pt x="254" y="407" on="0"/>
        <pt x="306" y="419" on="0"/>
        <pt x="383" y="419" on="0"/>
        <pt x="459" y="384" on="0"/>
        <pt x="486" y="354" on="1"/>
        <pt x="541" y="290" on="0"/>
        <pt x="541" y="190" on="1"/>
        <pt x="541" y="115" on="0"/>
        <pt x="479" y="61" on="1"/>
        <pt x="414" y="5" on="0"/>
        <pt x="314" y="-11" on="1"/>
        <pt x="288" y="-11" on="0"/>
        <pt x="254" y="1" on="0"/>
        <pt x="232" y="14" on="1"/>
        <pt x="229" y="18" on="0"/>
        <pt x="226" y="21" on="0"/>
        <pt x="220" y="21" on="1"/>
        <pt x="206" y="14" on="0"/>
        <pt x="176" y="-6" on="0"/>
        <pt x="160" y="-15" on="1"/>
        <pt x="123" y="-37" on="0"/>
        <pt x="74" y="-37" on="0"/>
        <pt x="64" y="-20" on="0"/>
        <pt x="64" y="41" on="0"/>
        <pt x="74" y="123" on="0"/>
        <pt x="74" y="201" on="0"/>
        <pt x="72" y="306" on="0"/>
        <pt x="70" y="362" on="1"/>
        <pt x="65" y="488" on="0"/>
      </contour>
      <contour>
        <pt x="101" y="510" on="1"/>
        <pt x="103" y="371" on="1"/>
        <pt x="105" y="311" on="0"/>
        <pt x="112" y="189" on="0"/>
        <pt x="112" y="108" on="0"/>
        <pt x="110" y="80" on="0"/>
        <pt x="108" y="64" on="1"/>
        <pt x="105" y="25" on="0"/>
        <pt x="105" y="4" on="1"/>
        <pt x="110" y="8" on="0"/>
        <pt x="138" y="24" on="0"/>
        <pt x="152" y="33" on="1"/>
        <pt x="189" y="56" on="0"/>
        <pt x="189" y="64" on="1"/>
        <pt x="189" y="67" on="0"/>
        <pt x="183" y="78" on="1"/>
        <pt x="172" y="98" on="0"/>
        <pt x="168" y="116" on="0"/>
        <pt x="165" y="164" on="0"/>
        <pt x="164" y="218" on="0"/>
        <pt x="164" y="242" on="1"/>
        <pt x="164" y="275" on="1"/>
        <pt x="164" y="398" on="0"/>
        <pt x="193" y="636" on="1"/>
        <pt x="98" y="597" on="1"/>
        <pt x="101" y="544" on="1"/>
      </contour>
      <contour>
        <pt x="356" y="358" on="1"/>
        <pt x="344" y="369" on="0"/>
        <pt x="313" y="369" on="0"/>
        <pt x="271" y="355" on="0"/>
        <pt x="252" y="342" on="1"/>
        <pt x="208" y="312" on="0"/>
        <pt x="208" y="274" on="1"/>
        <pt x="208" y="127" on="1"/>
        <pt x="208" y="94" on="0"/>
        <pt x="237" y="64" on="1"/>
        <pt x="266" y="33" on="0"/>
        <pt x="303" y="33" on="1"/>
        <pt x="341" y="33" on="0"/>
        <pt x="366" y="100" on="1"/>
        <pt x="389" y="161" on="0"/>
        <pt x="389" y="237" on="1"/>
        <pt x="389" y="326" on="0"/>
      </contour>
      <contour>
        <pt x="411" y="361" on="1"/>
        <pt x="427" y="292" on="0"/>
        <pt x="427" y="233" on="1"/>
        <pt x="427" y="121" on="0"/>
        <pt x="395" y="49" on="1"/>
        <pt x="420" y="58" on="1"/>
        <pt x="441" y="68" on="0"/>
        <pt x="460" y="99" on="1"/>
        <pt x="496" y="154" on="0"/>
        <pt x="496" y="221" on="0"/>
        <pt x="479" y="283" on="0"/>
        <pt x="466" y="306" on="1"/>
        <pt x="438" y="357" on="0"/>
      </contour>
    </TTGlyph>
    <TTGlyph name="backslash" xMin="33" yMin="-18" xMax="330" yMax="669">
      <contour>
        <pt x="312" y="-18" on="1"/>
        <pt x="297" y="-18" on="0"/>
        <pt x="254" y="82" on="1"/>
        <pt x="243" y="107" on="0"/>
        <pt x="228" y="144" on="0"/>
        <pt x="193" y="230" on="0"/>
        <pt x="148" y="342" on="0"/>
        <pt x="99" y="464" on="0"/>
        <pt x="79" y="517" on="1"/>
        <pt x="33" y="639" on="0"/>
        <pt x="33" y="659" on="0"/>
        <pt x="47" y="669" on="0"/>
        <pt x="63" y="669" on="0"/>
        <pt x="90" y="631" on="0"/>
        <pt x="104" y="604" on="1"/>
        <pt x="119" y="577" on="0"/>
        <pt x="152" y="499" on="1"/>
        <pt x="191" y="399" on="0"/>
        <pt x="203" y="349" on="0"/>
        <pt x="206" y="337" on="1"/>
        <pt x="214" y="312" on="0"/>
        <pt x="222" y="291" on="1"/>
        <pt x="240" y="246" on="1"/>
        <pt x="269" y="174" on="0"/>
        <pt x="296" y="102" on="0"/>
        <pt x="306" y="74" on="1"/>
        <pt x="330" y="13" on="0"/>
        <pt x="330" y="-18" on="0"/>
      </contour>
    </TTGlyph>
    <TTGlyph name="bar" xMin="79" yMin="18" xMax="139" yMax="633">
      <contour>
        <pt x="139" y="128" on="1"/>
        <pt x="139" y="18" on="0"/>
        <pt x="100" y="18" on="0"/>
        <pt x="97" y="40" on="1"/>
        <pt x="91" y="82" on="0"/>
        <pt x="91" y="174" on="1"/>
        <pt x="91" y="279" on="1"/>
        <pt x="91" y="309" on="0"/>
        <pt x="87" y="341" on="0"/>
        <pt x="85" y="360" on="1"/>
        <pt x="79" y="419" on="0"/>
        <pt x="79" y="499" on="1"/>
        <pt x="79" y="633" on="0"/>
        <pt x="106" y="633" on="1"/>
        <pt x="112" y="633" on="0"/>
        <pt x="131" y="621" on="0"/>
        <pt x="131" y="614" on="1"/>
        <pt x="133" y="327" on="0"/>
        <pt x="139" y="152" on="0"/>
      </contour>
    </TTGlyph>
    <TTGlyph name="braceleft" xMin="5" yMin="-13" xMax="429" yMax="710">
      <contour>
        <pt x="99" y="347" on="1"/>
        <pt x="110" y="317" on="0"/>
        <pt x="110" y="220" on="0"/>
        <pt x="116" y="140" on="0"/>
        <pt x="130" y="108" on="1"/>
        <pt x="162" y="37" on="0"/>
        <pt x="257" y="37" on="1"/>
        <pt x="285" y="37" on="1"/>
        <pt x="253" y="66" on="0"/>
        <pt x="210" y="126" on="0"/>
        <pt x="210" y="195" on="0"/>
        <pt x="218" y="241" on="0"/>
        <pt x="218" y="281" on="0"/>
        <pt x="206" y="302" on="0"/>
        <pt x="191" y="319" on="0"/>
        <pt x="179" y="335" on="0"/>
        <pt x="179" y="358" on="0"/>
        <pt x="191" y="369" on="0"/>
        <pt x="199" y="372" on="1"/>
        <pt x="220" y="382" on="0"/>
        <pt x="223" y="396" on="1"/>
        <pt x="272" y="651" on="1"/>
        <pt x="240" y="646" on="0"/>
        <pt x="202" y="606" on="1"/>
        <pt x="193" y="596" on="0"/>
        <pt x="186" y="589" on="1"/>
        <pt x="162" y="565" on="0"/>
        <pt x="153" y="503" on="0"/>
        <pt x="149" y="437" on="0"/>
        <pt x="132" y="373" on="0"/>
      </contour>
      <contour>
        <pt x="409" y="62" on="1"/>
        <pt x="429" y="51" on="0"/>
        <pt x="429" y="21" on="1"/>
        <pt x="429" y="13" on="0"/>
        <pt x="425" y="3" on="0"/>
        <pt x="415" y="0" on="1"/>
        <pt x="396" y="1" on="1"/>
        <pt x="361" y="1" on="0"/>
        <pt x="295" y="-13" on="0"/>
        <pt x="215" y="-13" on="0"/>
        <pt x="142" y="21" on="0"/>
        <pt x="114" y="50" on="1"/>
        <pt x="55" y="113" on="0"/>
        <pt x="55" y="196" on="1"/>
        <pt x="62" y="279" on="1"/>
        <pt x="62" y="304" on="1"/>
        <pt x="55" y="315" on="0"/>
        <pt x="19" y="327" on="0"/>
        <pt x="5" y="336" on="0"/>
        <pt x="5" y="359" on="0"/>
        <pt x="18" y="370" on="0"/>
        <pt x="38" y="373" on="0"/>
        <pt x="59" y="374" on="0"/>
        <pt x="71" y="380" on="0"/>
        <pt x="82" y="388" on="0"/>
        <pt x="86" y="393" on="1"/>
        <pt x="99" y="407" on="0"/>
        <pt x="99" y="409" on="1"/>
        <pt x="124" y="577" on="1"/>
        <pt x="129" y="618" on="0"/>
        <pt x="226" y="666" on="1"/>
        <pt x="264" y="686" on="0"/>
        <pt x="342" y="710" on="0"/>
        <pt x="365" y="710" on="1"/>
        <pt x="416" y="710" on="0"/>
        <pt x="416" y="688" on="1"/>
        <pt x="416" y="679" on="0"/>
        <pt x="385" y="668" on="0"/>
        <pt x="346" y="655" on="0"/>
        <pt x="310" y="637" on="0"/>
        <pt x="293" y="589" on="0"/>
        <pt x="289" y="529" on="0"/>
        <pt x="288" y="470" on="0"/>
        <pt x="281" y="412" on="0"/>
        <pt x="261" y="374" on="0"/>
        <pt x="247" y="349" on="0"/>
        <pt x="247" y="331" on="0"/>
        <pt x="267" y="301" on="0"/>
        <pt x="267" y="255" on="0"/>
        <pt x="254" y="205" on="0"/>
        <pt x="254" y="155" on="0"/>
        <pt x="276" y="111" on="0"/>
        <pt x="294" y="94" on="1"/>
        <pt x="334" y="58" on="0"/>
        <pt x="382" y="58" on="1"/>
        <pt x="397" y="58" on="0"/>
      </contour>
    </TTGlyph>
    <TTGlyph name="braceright" xMin="7" yMin="-13" xMax="431" yMax="710">
      <contour>
        <pt x="40" y="1" on="1"/>
        <pt x="21" y="0" on="1"/>
        <pt x="11" y="3" on="0"/>
        <pt x="7" y="13" on="0"/>
        <pt x="7" y="23" on="1"/>
        <pt x="7" y="51" on="0"/>
        <pt x="27" y="62" on="1"/>
        <pt x="39" y="58" on="0"/>
        <pt x="78" y="58" on="0"/>
        <pt x="124" y="78" on="0"/>
        <pt x="142" y="94" on="1"/>
        <pt x="182" y="131" on="0"/>
        <pt x="182" y="179" on="1"/>
        <pt x="182" y="205" on="0"/>
        <pt x="169" y="255" on="0"/>
        <pt x="169" y="301" on="0"/>
        <pt x="189" y="331" on="0"/>
        <pt x="189" y="349" on="0"/>
        <pt x="175" y="374" on="0"/>
        <pt x="155" y="412" on="0"/>
        <pt x="148" y="470" on="0"/>
        <pt x="147" y="529" on="0"/>
        <pt x="143" y="589" on="0"/>
        <pt x="126" y="637" on="0"/>
        <pt x="89" y="655" on="0"/>
        <pt x="50" y="668" on="0"/>
        <pt x="20" y="679" on="0"/>
        <pt x="20" y="688" on="1"/>
        <pt x="20" y="710" on="0"/>
        <pt x="71" y="710" on="1"/>
        <pt x="121" y="710" on="0"/>
        <pt x="210" y="666" on="1"/>
        <pt x="269" y="637" on="0"/>
        <pt x="310" y="592" on="0"/>
        <pt x="312" y="577" on="1"/>
        <pt x="337" y="409" on="1"/>
        <pt x="337" y="407" on="0"/>
        <pt x="346" y="397" on="1"/>
        <pt x="360" y="382" on="0"/>
        <pt x="377" y="374" on="0"/>
        <pt x="398" y="373" on="0"/>
        <pt x="408" y="372" on="1"/>
        <pt x="431" y="368" on="0"/>
        <pt x="431" y="346" on="1"/>
        <pt x="431" y="336" on="0"/>
        <pt x="417" y="327" on="0"/>
        <pt x="408" y="324" on="1"/>
        <pt x="381" y="315" on="0"/>
        <pt x="374" y="304" on="1"/>
        <pt x="374" y="279" on="1"/>
        <pt x="381" y="196" on="1"/>
        <pt x="381" y="113" on="0"/>
        <pt x="322" y="50" on="1"/>
        <pt x="262" y="-13" on="0"/>
        <pt x="179" y="-13" on="1"/>
        <pt x="141" y="-13" on="0"/>
        <pt x="75" y="1" on="0"/>
      </contour>
      <contour>
        <pt x="323" y="180" on="1"/>
        <pt x="326" y="220" on="0"/>
        <pt x="326" y="317" on="0"/>
        <pt x="337" y="347" on="1"/>
        <pt x="304" y="373" on="0"/>
        <pt x="287" y="437" on="0"/>
        <pt x="283" y="503" on="0"/>
        <pt x="274" y="565" on="0"/>
        <pt x="250" y="589" on="1"/>
        <pt x="243" y="596" on="0"/>
        <pt x="224" y="616" on="0"/>
        <pt x="212" y="626" on="1"/>
        <pt x="186" y="647" on="0"/>
        <pt x="164" y="651" on="1"/>
        <pt x="213" y="396" on="1"/>
        <pt x="216" y="382" on="0"/>
        <pt x="237" y="372" on="1"/>
        <pt x="257" y="364" on="0"/>
        <pt x="257" y="335" on="0"/>
        <pt x="245" y="319" on="0"/>
        <pt x="238" y="310" on="1"/>
        <pt x="218" y="288" on="0"/>
        <pt x="218" y="241" on="0"/>
        <pt x="226" y="195" on="0"/>
        <pt x="226" y="126" on="0"/>
        <pt x="183" y="66" on="0"/>
        <pt x="151" y="37" on="1"/>
        <pt x="179" y="37" on="1"/>
        <pt x="312" y="37" on="0"/>
      </contour>
    </TTGlyph>
    <TTGlyph name="bracketleft" xMin="74" yMin="-51" xMax="459" yMax="701">
      <contour>
        <pt x="123" y="207" on="1"/>
        <pt x="137" y="29" on="1"/>
        <pt x="138" y="26" on="0"/>
        <pt x="146" y="15" on="0"/>
        <pt x="148" y="15" on="1"/>
        <pt x="237" y="7" on="1"/>
        <pt x="229" y="71" on="1"/>
        <pt x="230" y="84" on="1"/>
        <pt x="219" y="190" on="0"/>
        <pt x="215" y="214" on="0"/>
        <pt x="215" y="234" on="1"/>
        <pt x="215" y="283" on="1"/>
        <pt x="216" y="408" on="1"/>
        <pt x="216" y="479" on="1"/>
        <pt x="209" y="543" on="1"/>
        <pt x="209" y="547" on="0"/>
        <pt x="197" y="581" on="0"/>
        <pt x="191" y="601" on="0"/>
        <pt x="187" y="610" on="0"/>
        <pt x="185" y="618" on="0"/>
        <pt x="183" y="623" on="1"/>
        <pt x="179" y="633" on="1"/>
        <pt x="115" y="638" on="1"/>
        <pt x="114" y="626" on="1"/>
        <pt x="118" y="573" on="0"/>
        <pt x="120" y="352" on="0"/>
        <pt x="121" y="310" on="1"/>
        <pt x="123" y="228" on="0"/>
      </contour>
      <contour>
        <pt x="76" y="629" on="1"/>
        <pt x="81" y="666" on="1"/>
        <pt x="81" y="671" on="0"/>
        <pt x="93" y="685" on="0"/>
        <pt x="95" y="685" on="1"/>
        <pt x="395" y="660" on="1"/>
        <pt x="397" y="662" on="0"/>
        <pt x="408" y="674" on="0"/>
        <pt x="422" y="687" on="0"/>
        <pt x="434" y="698" on="0"/>
        <pt x="438" y="701" on="0"/>
        <pt x="441" y="700" on="0"/>
        <pt x="443" y="700" on="1"/>
        <pt x="445" y="700" on="0"/>
        <pt x="449" y="700" on="0"/>
        <pt x="449" y="699" on="1"/>
        <pt x="459" y="682" on="0"/>
        <pt x="459" y="647" on="0"/>
        <pt x="457" y="622" on="0"/>
        <pt x="455" y="607" on="0"/>
        <pt x="453" y="600" on="1"/>
        <pt x="448" y="584" on="0"/>
        <pt x="422" y="587" on="0"/>
        <pt x="410" y="604" on="0"/>
        <pt x="404" y="614" on="1"/>
        <pt x="255" y="639" on="1"/>
        <pt x="244" y="641" on="0"/>
        <pt x="239" y="621" on="0"/>
        <pt x="239" y="616" on="1"/>
        <pt x="239" y="603" on="1"/>
        <pt x="275" y="17" on="1"/>
        <pt x="363" y="9" on="1"/>
        <pt x="373" y="8" on="0"/>
        <pt x="377" y="26" on="0"/>
        <pt x="377" y="37" on="1"/>
        <pt x="377" y="68" on="0"/>
        <pt x="393" y="71" on="1"/>
        <pt x="422" y="47" on="0"/>
        <pt x="447" y="-36" on="1"/>
        <pt x="448" y="-51" on="1"/>
        <pt x="433" y="-50" on="0"/>
        <pt x="416" y="-42" on="1"/>
        <pt x="382" y="-28" on="0"/>
        <pt x="340" y="-25" on="0"/>
        <pt x="288" y="-29" on="0"/>
        <pt x="262" y="-32" on="1"/>
        <pt x="154" y="-44" on="0"/>
        <pt x="116" y="-28" on="1"/>
        <pt x="100" y="-22" on="0"/>
        <pt x="97" y="6" on="1"/>
        <pt x="74" y="592" on="1"/>
        <pt x="74" y="598" on="1"/>
        <pt x="74" y="602" on="0"/>
        <pt x="75" y="614" on="0"/>
        <pt x="76" y="626" on="0"/>
      </contour>
    </TTGlyph>
</ttFont>
